<?xml version="1.0" encoding="utf-8"?>
<!-- Generator: Adobe Illustrator 24.2.1, SVG Export Plug-In . SVG Version: 6.00 Build 0)  -->
<svg version="1.1" id="圖層_1" xmlns="http://www.w3.org/2000/svg" xmlns:xlink="http://www.w3.org/1999/xlink" x="0px" y="0px"
	 viewBox="0 0 343 292" style="enable-background:new 0 0 343 292;" xml:space="preserve">
<style type="text/css">
	.st0{fill:url(#SVGID_1_);stroke:#FFFFFF;stroke-width:2;}
	.st1{fill:url(#SVGID_2_);stroke:#FFFFFF;stroke-width:2;}
	.st2{fill:url(#SVGID_3_);stroke:#FFFFFF;stroke-width:2;}
	.st3{fill:url(#SVGID_4_);stroke:#FFFFFF;stroke-width:2;}
	.st4{fill:url(#SVGID_5_);stroke:#FFFFFF;stroke-width:2;}
	.st5{fill:url(#SVGID_6_);stroke:#FFFFFF;stroke-width:2;}
	.st6{fill:url(#SVGID_7_);stroke:#FFFFFF;stroke-width:2;}
	.st7{fill:url(#SVGID_8_);stroke:#FFFFFF;stroke-width:2;}
</style>
<g>
	<linearGradient id="SVGID_1_" gradientUnits="userSpaceOnUse" x1="499.7261" y1="475.7259" x2="924.7311" y2="503.6872">
		<stop  offset="0" style="stop-color:#976091"/>
		<stop  offset="1" style="stop-color:#EE8DAB"/>
	</linearGradient>
	<path class="st0" d="M764.5,578.1c0,0-1.3-7-0.3-22.3c0,0,1.6-6.3,0.7-16.2l-6.4,1.7c-3,2-6.5,1-6.5,1c0-6.5-7-5-7-5
		c-3,0-7.5-4.5-7.5-4.5c-1,2.5-3.5,1.5-3.5,1.5c0-2.5-1.5-5.5-1.5-5.5c2-4.5-0.5-4.5-0.5-4.5c-10.5-6.5-2.5-10.5-2.5-10.5
		c4-8.5-3-8.5-3-8.5c-4.5,0-7.5-3.5-7.5-3.5c-3.5-2-2-5.5-2-5.5c1.5-2.5,0.5-10.5,0.5-10.5c2.5,0,10.5-3,10.5-3c0.5-5-6-12.5-6-12.5
		c-5-5-2-11.5-2-11.5c0-5-4-17-4-17c-5.5-8.5,1-17,1-17c2.5-4.5,1.5-11,1.5-11c5.5-6,10.5-14.5,10.5-14.5c2-4,0-8.5,0-8.5l8.5,1
		c1.5-3.5,7-4.5,7-4.5l4-4l11-2.5c-0.5-5.5,2-8,2-8l-0.5-6.5l2.5-6.5c0-7-10.5-9.5-10.5-9.5c-0.3-0.4-0.6-0.8-0.9-1.2
		c-0.1-0.1-0.1-0.2-0.2-0.3c-0.3-0.4-0.5-0.8-0.8-1.2c0,0,0,0,0-0.1c-0.2-0.4-0.4-0.8-0.6-1.1c0-0.1-0.1-0.2-0.1-0.3
		c-0.2-0.4-0.4-0.8-0.5-1.1c0,0,0-0.1,0-0.1c-0.1-0.3-0.3-0.7-0.4-1c0-0.1-0.1-0.2-0.1-0.2c-0.1-0.3-0.2-0.7-0.3-1
		c0-0.1,0-0.1-0.1-0.2c0-0.1,0-0.2-0.1-0.2c0-0.2-0.1-0.4-0.1-0.5c0-0.1,0-0.2-0.1-0.3c-0.1-0.3-0.1-0.5-0.1-0.8c0-0.1,0-0.2,0-0.4
		c0-0.1,0-0.3,0-0.4c-0.1-0.5-0.1-1-0.1-1.4c0,0,0,0,0,0l-8.3-5.1c-6.5-1-7.5,7-7.5,7c-3.5,8-8.5,1.5-8.5,1.5
		c-0.5-5.5-13-8.5-13-8.5c-6-7-8-1-8-1c-4.5,7-12,3-12,3c-2.5-7-16.5-1-16.5-1c-13.5,0.5-13.5,10.5-13.5,10.5
		c-6,4.5-23.5,3.5-23.5,3.5c-8-1.5-7.5,10-7.5,10l-3,15c3,7.5-0.5,13-0.5,13l-2,8c-5.5,4.5-1.5,14-1.5,14c-4.5,5.5,1,20,1,20
		c2,4-3,13.5-3,13.5l-6.5,5.5l-1,5.5l6,8.8l4.6,1.5l3-0.3l2.3,1.7c0,0,5.7,5.3-3.3,4.3c0,0,0.7,2.3,4,2.7c0,0-4,3.7,3.7,6.3
		c0,0,9,3.3,14,7.3c0,0,2.7,3.7,10.7,4.7c0,0,15,16,20.7,23c0,0,8,8.3,8,19c0,0-1.7,5.7,8.7,15c0,0,3.3,9.3,3.7,14.7
		c0,0,1.3,9,6.7,19.7c0,0,1.3,5.3-1.7,9.3c0,0-1.7,2,4,7c0,0,0,2.7-5,2l-1.3,5.3c0,0-4.3,1.7-0.3,8l0.7,4.7c0,0,5.3,4,5.3,10.7
		c0,0-7.3,9.7,2.7,15.3c0,0,9,4.3,6.7-4.7c0,0,0.7-6.3,7.7-3c0,0,17.3,1,26,13c0,0,1.3,5,6.3,2.3c0,0,0-3.3-4.3-8
		c0,0-8-13.3-1.3-23.3c0,0,8-1,12.7-8.7c0,0,5.7-4.7,1.3-14.7C765.5,596.5,770.1,590.1,764.5,578.1z"/>
	<g>
		<linearGradient id="SVGID_2_" gradientUnits="userSpaceOnUse" x1="515.3606" y1="238.0291" x2="940.3622" y2="265.9902">
			<stop  offset="0" style="stop-color:#976091"/>
			<stop  offset="1" style="stop-color:#EE8DAB"/>
		</linearGradient>
		<path class="st1" d="M673.6,215.1c-2.7-4.7-7.3-0.7-7.3-0.7c0,6.7-8.7,5.3-8.7,5.3l-6.7-2.7c-3.3-4-0.7-9.3-0.7-9.3l-4-8.7
			c1.3-4,0.7-6,0.7-6c0-6.7,4-6.7,4-6.7c2-8.7-5.3-7.3-5.3-7.3c-2.7-2.7-8-14-8-14c0-3.3-13.3-6-13.3-6l-20.7,0.7
			c-5.3-0.7-19.3,4-19.3,4l0.7,2.7l-6,2.7l-11.3,12.7l-8,0.7c0,4-7.3,12.7-7.3,12.7c-4.7,0.7-10.7-1.3-10.7-1.3l-8-4l-5.7-2.7
			c-0.7,1-3,4.3-6.1,4c0,0-2,4,5,4c0,0,0.7,4.7-2.7,5.3c0,0-6.7,2.3-4.3,11.7l-3.3,1c0,0,0.3,11.3-1.7,13l-1.3,2
			c0,0-0.3,3.7,1.7,5.3c0,0-3.7-0.7-5.7,4c0,0-2,9,5.7,4.3c0,0-1,10,6.7,10c0,0-4.7,2.3-10.7,1.7c0,0-5.3,1-8.3,17l4.3,0.8l10.6-6.1
			l14.7-3.3h8l7.3,3.3c0,0,10-4,12.7,0c0,0,2,6.7-6,10.7c0,0-0.7,13.3,6.7,15.3c0,0,6,10.7-2,12c0,0-6-1.3-9.3,2.7
			c0,0,3,8.4,2.2,14.4l2.5-0.4l10,4.7l6,3.3l6-4l9.3,3.3l10.7-0.7l5.3-5.3l6.7-4l5.3-0.7c0,0,8.7-10,7.3-18l4-2
			c0,0,13.3-16.7,21.3-16.7c0,0-2.7-4.7,9.3-10.7c0,0,12.7-19.3,16-30l14-11.3l-4-3.3l4.7-6.7l-0.6-3.2
			C679.9,222.6,673.6,215.1,673.6,215.1z"/>
		<linearGradient id="SVGID_3_" gradientUnits="userSpaceOnUse" x1="511.989" y1="289.3815" x2="936.9876" y2="317.3424">
			<stop  offset="0" style="stop-color:#976091"/>
			<stop  offset="1" style="stop-color:#EE8DAB"/>
		</linearGradient>
		<path class="st2" d="M549.6,305.8c3.3-4,9.3-2.7,9.3-2.7c8-1.3,2-12,2-12c-7.3-2-6.7-15.3-6.7-15.3c8-4,6-10.7,6-10.7
			c-2.7-4-12.7,0-12.7,0l-7.3-3.3h-8l-14.7,3.3l-10.6,6.1l1.4,0.2c0,0-1,3.7,4.7,5.7c0,0,3.7,2.3,9.7,2.3c0,0-0.7,8.3,4,12.3
			c0,0,11,7.7,13,18.3c0,0,1.7,5.7,1.7,8.7c0,0,0.2,0.7,0.4,1.8l3.8,0.5l6.2-0.9C552.6,314.2,549.6,305.8,549.6,305.8z"/>
	</g>
	<linearGradient id="SVGID_4_" gradientUnits="userSpaceOnUse" x1="512.0624" y1="288.2538" x2="937.0521" y2="316.2141">
		<stop  offset="0" style="stop-color:#976091"/>
		<stop  offset="1" style="stop-color:#EE8DAB"/>
	</linearGradient>
	<path class="st3" d="M804,181.3l-4.5-6.5c-10,0-12.5-5.5-12.5-5.5c0-9,11-10,11-10l0.9-6.9l0.1-1.1l-4-6l0.1,0l-7.4-6.8
		c-4.7-1.9-9.8-1.9-14.6-0.8c-0.5,0.1-0.9,0.2-1.4,0.3c-0.2,0-0.3,0.1-0.5,0.1c-0.3,0.1-0.7,0.2-1,0.3c-0.2,0-0.3,0.1-0.5,0.1
		c-0.4,0.1-0.9,0.3-1.3,0.4c-0.1,0-0.2,0.1-0.4,0.1c-0.3,0.1-0.7,0.2-1,0.4c-0.2,0.1-0.3,0.1-0.5,0.2c-0.3,0.1-0.7,0.3-1,0.4
		c-0.1,0-0.2,0.1-0.3,0.1c-0.4,0.2-0.8,0.3-1.2,0.5c-0.1,0-0.2,0.1-0.3,0.1c-0.1,0-0.1,0.1-0.2,0.1c-0.3,0.1-0.6,0.3-0.8,0.4
		c-0.2,0.1-0.3,0.1-0.4,0.2c-0.4,0.2-0.8,0.4-1.1,0.6c-0.1,0.1-0.2,0.1-0.3,0.2c-0.3,0.1-0.6,0.3-0.8,0.4c-0.1,0.1-0.3,0.2-0.4,0.2
		c-0.3,0.1-0.5,0.3-0.8,0.4c-0.1,0-0.2,0.1-0.3,0.1c0,0,0,0,0,0c-0.3,0.2-0.7,0.4-1,0.6c-0.1,0.1-0.2,0.1-0.3,0.2
		c-0.2,0.1-0.5,0.3-0.7,0.4c0,0,0,0,0,0c-0.1,0.1-0.2,0.1-0.3,0.2c-0.3,0.2-0.6,0.4-0.9,0.5c-0.1,0.1-0.2,0.1-0.3,0.2
		c-0.2,0.1-0.4,0.2-0.6,0.4c0,0-0.1,0.1-0.1,0.1c-0.1,0-0.1,0.1-0.2,0.1c-0.2,0.1-0.4,0.3-0.6,0.4c0,0,0,0,0,0
		c-0.1,0-0.1,0.1-0.2,0.1c-0.2,0.2-0.4,0.3-0.6,0.4c-0.1,0.1-0.2,0.1-0.3,0.2c-0.1,0.1-0.2,0.2-0.3,0.2c-0.1,0-0.1,0.1-0.2,0.1
		c0,0,0,0,0,0c-0.2,0.1-0.4,0.3-0.5,0.4c0,0,0,0,0,0c0,0-0.1,0.1-0.1,0.1c-0.1,0.1-0.2,0.1-0.3,0.2c0,0,0,0-0.1,0c0,0-0.1,0-0.1,0.1
		c-0.1,0.1-0.2,0.1-0.3,0.2c0,0,0,0-0.1,0.1c-0.1,0.1-0.2,0.1-0.2,0.2c0,0,0,0,0,0c0,0,0,0,0,0c-0.1,0-0.1,0.1-0.1,0.1c0,0,0,0,0,0
		c0,0,0,0,0,0c-0.2,0-0.4,0.1-0.7,0.1c-0.1,0-0.2,0.1-0.3,0.1c-0.1,0-0.2,0-0.3,0.1c-0.1,0-0.3,0.1-0.4,0.1c-0.1,0-0.1,0-0.2,0.1
		c-0.2,0.1-0.3,0.1-0.5,0.2c0,0-0.1,0-0.1,0c-0.2,0.1-0.3,0.2-0.5,0.3c0,0,0,0-0.1,0c-0.2,0.1-0.4,0.2-0.5,0.3c0,0,0,0,0,0
		c-0.2,0.1-0.4,0.3-0.5,0.4c0,0,0,0,0,0c-0.2,0.1-0.3,0.3-0.5,0.4c0,0,0,0,0,0c-4.1,3.6-6,10.5-6,10.5c-3.3,7.3-12.7,12-12.7,12
		l-8.7,4.7l-7.3,7.3l-5.3,5.3c-4.7,0-6,6.7-6,6.7c-0.7-4-10.7-3.3-10.7-3.3c-2.7,0-6,4-6,4l2,6.7l0.7,5.3l0.8,4.2l0.6,3.2l-4.7,6.7
		l4,3.3l-14,11.3c-3.3,10.7-16,30-16,30c-12,6-9.3,10.7-9.3,10.7c-8,0-21.3,16.7-21.3,16.7l-4,2c1.3,8-7.3,18-7.3,18l-5.3,0.7
		l-6.7,4l-5.3,5.3l-10.7,0.7l-9.3-3.3l-6,4l-6-3.3l-10-4.7l-8.7,1.3l-3.8-0.5c0.6,2.6,1.6,7.3,2.3,9.8c0,0,1.3,7,5.3,9
		c0,0,0.3,8,3.7,13.3c0,0,2,9.7,1,11.3c0,0,10.7,16.3,13,26l1.7,1.7l0.3-6.7l3,9.3l-3.3-0.3c0,0-1,7.3-3,9.7c0,0,0.3,7.7,5,12
		c0,0,8.7,9,11,12.3c0,0,18,19,7,10.7c0,0-15-17-16-17c0,0-1.3,3.3,6.7,12.3l16.7,19l14,9.3c0,0,4.7,4.3,6-2l1.9,0.6l0.4-1.1l-5-7.3
		l1-5.5l6.5-5.5c0,0,5-9.5,3-13.5c0,0-5.5-14.5-1-20c0,0-4-9.5,1.5-14l2-8c0,0,3.5-5.5,0.5-13l3-15c0,0-0.5-11.5,7.5-10
		c0,0,17.5,1,23.5-3.5c0,0,0-10,13.5-10.5c0,0,14-6,16.5,1c0,0,7.5,4,12-3c0,0,2-6,8,1c0,0,12.5,3,13,8.5c0,0,5,6.5,8.5-1.5
		c0,0,1-8,7.5-7l8.3,5.1v0c0-1.3,0.2-2.1,0.2-2.1c1-6-4.5-10-4.5-10c-6-5-4-8.5-4-8.5c-5-5-1.5-11.5-1.5-11.5c-3.5-5.5,1-8.5,1-8.5
		c3.5-3.5,8.5-11,8.5-11h4.5l0.5-8.5c2-3,0-7,0-7c-1-8,2.5-10,2.5-10l1-7v-9.5c0-4.5-3-6-3-6l5-2.5l1-5.5c8.5-3.5,3-7,3-7l1.5-5
		c0-3.5,3-7,3-7l13-8c2.5-5.5,9-10,9-10l7-0.5c3-2.5,8.5-6.5,8.5-6.5l2.5-4L804,181.3z"/>
	<linearGradient id="SVGID_5_" gradientUnits="userSpaceOnUse" x1="521.5538" y1="143.8413" x2="946.55" y2="171.8021">
		<stop  offset="0" style="stop-color:#976091"/>
		<stop  offset="1" style="stop-color:#EE8DAB"/>
	</linearGradient>
	<path class="st4" d="M772.9,136.4c0,0-11.3-3.3-22.7-1.3c0,0-12.7,1.3-12.7-9.3c0,0,0.7-8.7-4-10.7l-0.7-7.3c0,0,3.3-4,3.3-7.3
		c0,0,4.7-3.3-5.3-6.7l-9.3-1.3l-4-2.7h-6.7l-4.7,14.7l-6-2h-13.3l-6-2c0,0,2.7-4.7-1.3-4.7l-9.3,5.3l-8.7-2l-8-3.3
		c0,0-11.3,0-11.3-8.7c0,0-2.7-6-18,0.7c0,0-9.3-2-29.3,9.3l-8,1.3l-2,10l-6-1.3l-2.7,6.7l-5.3,6h-6l-5.3,6h-13.3l-14.1-0.5
		c-0.2,0.3-0.4,0.6-0.7,0.8c0,0-2.7,3,2.7,4c0,0,1.8,4.7-1.4,6.9c-0.4,0.3-0.9,0.6-1.6,0.8c0,0-5.3,5.7,2.3,7.3c0,0-3,2.7-2.3,6.7
		c0,0,3,3.7,2,6c0,0,2.3,1,2.3,7c0,0-6,13.3,3.3,14.3c0,0,0.7,2-4.7,1.3c0,0-7.7,0.3-3.7-14c0,0-2.3,3.7-3,6.3c0,0-3.3,0.3-0.7,4.7
		c0,0-4,4.3,4.7,8c0,0,2,3-3.3,1.3c0,0-0.1,0.1-0.2,0.3l5.7,2.7l8,4c0,0,6,2,10.7,1.3c0,0,7.3-8.7,7.3-12.7l8-0.7l11.3-12.7l6-2.7
		l-0.7-2.7c0,0,14-4.7,19.3-4l20.7-0.7c0,0,13.3,2.7,13.3,6c0,0,5.3,11.3,8,14c0,0,7.3-1.3,5.3,7.3c0,0-4,0-4,6.7c0,0,0.7,2-0.7,6
		l4,8.7c0,0-2.7,5.3,0.7,9.3l6.7,2.7c0,0,8.7,1.3,8.7-5.3c0,0,4.7-4,7.3,0.7c0,0,6.3,7.5,12.1-0.5l-0.8-4.2l-0.7-5.3l-2-6.7
		c0,0,3.3-4,6-4c0,0,10-0.7,10.7,3.3c0,0,1.3-6.7,6-6.7l5.3-5.3l7.3-7.3l8.7-4.7c0,0,9.3-4.7,12.7-12c0,0,1.9-6.9,6-10.5
		c1.3-1.2,2.9-2,4.7-2.2c0,0,11-8.9,23.4-11.5L772.9,136.4z"/>
	<linearGradient id="SVGID_6_" gradientUnits="userSpaceOnUse" x1="526.5587" y1="67.7636" x2="951.5667" y2="95.7251">
		<stop  offset="0" style="stop-color:#976091"/>
		<stop  offset="1" style="stop-color:#EE8DAB"/>
	</linearGradient>
	<path class="st5" d="M705.6,83.1l-2,4.7h-6.7l-9.3,2c-7.3-4-6.7-12-6.7-12c7.3-12.7,0-14,0-14l0.7-7.3c3.3,0,6-2,6-2
		c2.7-6-4-14-4-14c-1.5-1.5-2.8-3.4-3.8-5.2c-0.1-0.3-0.3-0.5-0.4-0.8c0-0.1-0.1-0.1-0.1-0.2c-0.1-0.2-0.2-0.4-0.3-0.6
		c0-0.1-0.1-0.1-0.1-0.2c-0.1-0.2-0.2-0.4-0.3-0.6c0-0.1-0.1-0.1-0.1-0.2c-0.1-0.2-0.2-0.4-0.3-0.6c0,0,0-0.1,0-0.1
		c-1.1-2.5-1.7-4.6-1.8-5.3c0,0,0,0,0,0c0-0.1-0.1-0.2-0.1-0.2c-6-4-14-1.3-14-1.3l-2.2-0.4l-13.8-2.3l-20.7-4
		c-12.2-4.2-19.1-0.5-22.1,2c2.6,0.7,7.5,2.4,3,5.2c-0.1,0.1-0.2,0.1-0.3,0.2c0,0-9,0.7-14.7,0.3c0,0-9.3,3.7-17.3,0
		c0,0-13-1.7-20.3,6c0,0-5.7,3.7-8,12.3l3,2c0,0-3,1.7-4,4.7l-0.7,12c0,0-8.3-2-15.3,21l-1,3c0,0-1.3,5.3,0.7,10.3
		c0,0,3.7,6.7,1.3,7.7c0,0-2.3,3.7,1,7.3c0,0,3.7,1-0.3,3.3c0,0,0,2.7,1.7,2.7c0,0,2.7,1.3-1,3.3c0,0,2.3,1.5,1.1,3.5l14.1,0.5h13.3
		l5.3-6h6l5.3-6l2.7-6.7l6,1.3l2-10l8-1.3c20-11.3,29.3-9.3,29.3-9.3c15.3-6.7,18-0.7,18-0.7c0,8.7,11.3,8.7,11.3,8.7l8,3.3l8.7,2
		l9.3-5.3c4,0,1.3,4.7,1.3,4.7l6,2h7.3h6l6,2l4.7-14.7L705.6,83.1z"/>
	<linearGradient id="SVGID_7_" gradientUnits="userSpaceOnUse" x1="562.7861" y1="411.1852" x2="600.7778" y2="411.1852">
		<stop  offset="0" style="stop-color:#976091"/>
		<stop  offset="1" style="stop-color:#EE8DAB"/>
	</linearGradient>
	<path class="st6" d="M562.8,385.3c0,0,5-9,14-9l5-0.5c0,0,11.5-9,9.5,3.5c0,0-2,4,0.5,9l-2.5,12.5l2,8.5l-4,15l5,5
		c0,0,16.5,11,3.5,20.5c0,0-16-12-20.5-24.5c0,0-6-10-9-12.5c0,0-1-7.5-0.5-10.5s-0.5,3-0.5,3S569.8,394.8,562.8,385.3z"/>
	<linearGradient id="SVGID_8_" gradientUnits="userSpaceOnUse" x1="618.7861" y1="137.7525" x2="662.1201" y2="137.7525">
		<stop  offset="0" style="stop-color:#976091"/>
		<stop  offset="1" style="stop-color:#EE8DAB"/>
	</linearGradient>
	<polygon class="st7" points="619.5,130.1 618.8,134.8 624.8,140.8 628.1,149.4 640.1,150.8 644.8,146.1 662.1,136.8 662.1,132.1 
		660.8,126.1 653.5,124.8 645.5,126.1 639.5,126.1 629.5,126.1 619.5,127.4 	"/>
</g>
</svg>
