<?xml version="1.0" encoding="utf-8"?>
<!-- Generator: Adobe Illustrator 24.3.0, SVG Export Plug-In . SVG Version: 6.00 Build 0)  -->
<svg version="1.1" id="圖層_1" xmlns="http://www.w3.org/2000/svg" xmlns:xlink="http://www.w3.org/1999/xlink" x="0px" y="0px"
	 viewBox="0 0 126 224" style="enable-background:new 0 0 126 224;" xml:space="preserve">
<style type="text/css">
	.st0{fill:#F2AD11;}
	.st1{fill:#FFFFFF;}
</style>
<g>
	<path class="st0" d="M46.5,223.9c0.1-1.5-0.8-2.7-1.2-3.2c0.1-0.6-0.1-1.2-0.4-1.5c-0.4-0.5-1-0.6-1.2-0.6l-3.2-1.8l-2.7-1.5
		c0.2-1.8-1.9-3.8-2.5-4.3c-0.1-3.8-3.3-6.2-3.4-6.3l-0.1-0.1h-0.1c-2.3,0-4.5,0.9-5.3,1.3l-1.2-1.4c-1.4-2.2-7.5-3.8-7.8-3.9
		c-1.9-0.2-3.1-0.8-3.8-1.7c-0.8-1-0.5-2.2-0.5-2.2c0-3.8-1.4-6.5-2.6-8.2c-0.3-0.5-0.6-0.9-0.8-1.1l1.4-2.3l-1.9-1l-2.5-3.6H6.6
		c-4.7,0-6.1-2.3-6.4-2.7c0.1-4.4,5.4-4.9,5.6-4.9h0.3l0.6-4.8l-2-2.9l2.2-0.7l2.6-1.4l2.2-3.1l-0.3-0.2c-1.2-0.8-1.8-1.5-1.7-2.1
		c0.1-0.7,1-1.1,1.4-1.3c2.3-1.5,2-3.3,1.9-3.9l0.4-1.2h7.1l3.3-1.1c1.7-0.9,2.6-1.9,2.9-3c0.2-0.9,0-1.6-0.2-1.9l1.1-3.2l-1.1-1.9
		c0.3-0.7,0.9-1.1,1.7-1.1c1,0,2,0.6,2,0.6l0.3,0.2l0.2-0.3c1.3-1.8,7.4-4.7,7.4-4.7h0.1l0.1-0.1c1.4-1.7,1.2-6.3,1.2-6.5
		c-0.3-4.1,2.1-7,2.1-7c1.1-1.3,1.4-2.5,1.1-3.6c-0.5-1.3-1.9-1.9-2.6-2.1c0.2-2.7-1.1-5.4-1.1-5.6l-0.1-0.1l-0.1-0.1
		c-1.6-0.9-2.4-1.9-2.4-2.9c0-1.6,2.1-3,2.1-3c1.1-0.9,0.8-3.7,0.7-4.5l2.4-2.9l1.1-7.3l1.4-3l-0.5-3.7l2.7-2.1l-0.6-9.7
		c0-2-0.9-2.9-1.3-3.2c0.1-2.2,1.5-3.8,1.5-3.9l0.1-0.1v-0.1c0.2-1,0-2.2-0.1-2.9l2,1l0.3-4.7l4.2-2.6l2-2.8l0.9-4.4l-4.5-2.8
		l-5.4-4.9l1.2-4.2l3.7-2.4l2.1-3.3v1l2,3.2l3.2,1.3l0.9-4.9l-1.1-3.7l2.3-3.5l3.4-1.4v-5.5l2.1-2.1l4.6-3.8l1.7-3.1V6.5
		c0-2,0.6-3.7,0.9-4.4c0.6,0.2,1.8,0.6,3.2,0.6c0.8,0,1.6-0.1,2.3-0.4c0.7,0.5,3.8,2.4,8.6,2.4c0.9,0.7,7.1,5.2,10.2,5.2
		c0.2,0,0.3,0,0.5,0h0.1l0,0c0.1,0,0.3-0.2,0.5-0.6C98,8.6,97.7,7.6,97,6.4c0.7-0.1,2-0.5,2.9-1.5s1.4-2.4,1.4-4.1
		c1.2,0.1,4.8,0.8,10.2,4.5c0.1,0.1,2.6,1.9,6.9,1.9c0.9,0,1.9-0.1,2.8-0.3h0.1l4.4-2.3l-0.8,5.9c-3.2,1.7-3.1,5-3.1,5.1
		c-0.7,6-5.6,6.8-5.8,6.8h-0.2l-0.1,0.2c-1.4,3.3-2.9,4.3-2.9,4.3c-6.8,2.4-5.2,7.8-5.2,7.8c1.9,8.6-4.7,13.6-4.7,13.6
		c-1.7,1.9-2.4,3.8-2.2,5.9c0.3,3.8,3.5,6.6,4,6.9c1.8,2.7,0.9,5.1,0.2,6.1l-0.5-1.5L104,66c-4.8,3-4.7,9.8-4.7,10.1v0.2l1.1,0.5
		c0.1,9.5-3.1,13.9-3.2,14c-3.1,5.8-3.1,12.2-3.1,12.5c1.6,6.8-3.3,11.9-3.3,12l-0.1,0.2l0.1,0.2c1.2,4.3,0.4,7,0.4,7
		c-2.9,7.3-2.9,10.4-2.9,10.6c-0.2,8.3-3,13.5-3,13.5v0.1v0.1c-0.5,3.6,0.1,9.7,0.2,10c0,2.2-0.5,4.8-1.5,7.6
		c-0.1,0.3-0.2,0.7-0.4,1l-1.5-1l-6.1-0.8l-5.4,2.6l-0.6,2.3l-1.1,1.8l-1.4,3.2l2,3.4l1,1.9l-3.3,3.6c-2.2,1.3-2.1,4.1-2.1,5
		c-2.1,1.7-1.5,5.9-1.4,7c-2.1,1.4-2.6,3.5-2.7,3.6v2.5c-1.9,0.8-2.4,4.1-2.4,4.3c0,4-1.6,4.6-1.6,4.6h-0.1h-0.1
		c-2.3,1.7-2.1,4.8-2,4.9l1.1,4.9c0,1.6-3.1,1.7-4.1,1.7c-0.2,0-0.4,0-0.4,0h-0.3l-0.1,0.3C50.2,222.7,47.9,223.5,46.5,223.9z"/>
	<path class="st1" d="M101.4,1.2c1.4,0.2,4.8,1.1,9.6,4.4c0.1,0.1,2.7,2,7.2,2c0.9,0,1.9-0.1,2.9-0.3h0.1l0.1-0.1l3.7-1.9l-0.7,5
		c-3.1,1.7-3.1,4.8-3.1,5.3c-0.7,5.7-5.3,6.5-5.5,6.5l-0.4,0.1l-0.2,0.4c-1.2,2.8-2.4,3.9-2.7,4.1c-6.8,2.4-5.6,7.7-5.4,8.2
		c1.8,8.4-4.3,13.1-4.6,13.3h-0.1l-0.1,0.1c-1.7,1.9-2.4,3.9-2.3,6.1c0.3,3.8,3.5,6.6,4.1,7.1c1.3,2,1.1,3.7,0.6,4.8v-0.2l-0.3-0.9
		l-0.8,0.5c-5,3.1-4.9,10.1-4.9,10.4v0.4l0.4,0.2l0.7,0.3c0.1,9.2-3.1,13.5-3.1,13.5l0,0v0.1c-3.1,5.9-3.2,12.3-3.2,12.6v0.1v0.1
		c1.5,6.5-3.2,11.5-3.2,11.6l-0.3,0.3l0.1,0.4c1.2,4.2,0.4,6.7,0.4,6.7l0,0c-2.9,7.4-2.9,10.6-2.9,10.7c-0.2,8.2-2.9,13.3-3,13.3
		l-0.1,0.1v0.1c-0.5,3.5,0.1,9.4,0.2,10.1c0,2.2-0.5,4.7-1.5,7.5c-0.1,0.2-0.1,0.4-0.2,0.5l-1-0.7l-0.1-0.1h-0.2l-5.9-0.8h-0.2
		l-0.2,0.1l-5.1,2.4l-0.3,0.2l-0.1,0.3l-0.5,2.1l-1,1.8l0,0l0,0l-1.4,3l-0.2,0.4l0.2,0.3l1.9,3.2l0.8,1.7l-3.1,3.3
		c-2.2,1.3-2.3,4-2.2,5.1c-2,1.8-1.6,5.6-1.4,7c-2,1.5-2.6,3.6-2.6,3.7v0.1v0.1v2.2c-1.8,1-2.4,4.1-2.4,4.4v0.1v0.1
		c0,3.6-1.4,4.1-1.3,4.1l0,0h-0.1l-0.1,0.1c-2.5,1.9-2.2,5.1-2.2,5.3l0,0l0,0l1.1,4.8c-0.1,1.3-3.3,1.4-3.7,1.4c-0.2,0-0.4,0-0.4,0
		h-0.6l-0.2,0.6c-0.3,1-2,1.8-3.3,2.2c-0.1-1.3-0.8-2.3-1.2-2.8c0-0.8-0.2-1.4-0.5-1.7c-0.5-0.5-1.1-0.7-1.4-0.7l-3.1-1.8l-2.5-1.4
		c0-1.8-1.8-3.6-2.5-4.3c-0.2-3.9-3.4-6.4-3.5-6.5l-0.2-0.2H32c-2.1,0-4.2,0.8-5.2,1.2l-1-1.1c-1.5-2.3-7.3-3.9-8-4.1h-0.1h-0.1
		c-1.7-0.2-2.8-0.7-3.5-1.5c-0.7-0.9-0.5-1.9-0.5-1.9v-0.1v-0.1c0-3.8-1.4-6.6-2.7-8.4c-0.3-0.4-0.5-0.7-0.7-0.9l1.1-1.7l0.4-0.7
		l-0.7-0.4l-1.4-0.7L7.3,180L7,180.1H6.6c-4.2,0-5.7-1.9-6-2.4c0.1-3.9,5-4.5,5.3-4.5l0.6-0.1l0.1-0.6l0.5-3.7l0.1-0.6v-0.3L7,167.7
		l-1.6-2.4l1.7-0.5h0.1h0.1l2.4-1.4l0.2-0.1l0.1-0.1l1.9-2.7l0.4-0.6l-0.6-0.4c-1.5-1-1.6-1.6-1.5-1.8c0.1-0.4,0.8-0.8,1.1-1h0.1
		l0.1-0.1c2.1-1.4,2.3-3.2,2-4.1l0.3-0.9h6.8h0.1h0.1l3.2-1.1h0.1h0.1c1.7-0.9,2.7-2,3.1-3.3c0.2-0.9,0-1.6-0.2-2.1l1-2.9l0.1-0.3
		l-0.2-0.3l-0.9-1.6c0.3-0.5,0.7-0.7,1.2-0.7c0.9,0,1.9,0.5,1.9,0.5l0.6,0.3l0.4-0.6c1-1.4,5.6-3.8,7.3-4.6l0.1-0.1l0.1-0.1
		c1.5-1.8,1.3-6.2,1.3-6.7c-0.2-4,2-6.7,2-6.8c1.2-1.4,1.5-2.8,1.1-3.9c-0.5-1.3-1.8-1.9-2.5-2.2c0.1-2.7-1.1-5.3-1.2-5.4l-0.1-0.2
		l-0.2-0.1c-1-0.6-2.2-1.5-2.2-2.5c0-1.2,1.4-2.3,2-2.6l0,0l0,0c1.2-0.9,1-3.5,0.9-4.7l2.2-2.7l0.1-0.2v-0.2l1.1-7.2l1.3-2.9
		l0.1-0.2V86l-0.5-3.4l2.4-1.9l0.3-0.2v-0.4L46,70.6c0-2-0.8-2.9-1.3-3.4c0.2-1.9,1.4-3.4,1.4-3.4l0.1-0.2v-0.2
		c0.1-0.8,0.1-1.6,0-2.3l0.8,0.4l1,0.5l0.1-1.1l0.2-3.9l4-2.5l0.1-0.1l0.1-0.1l1.9-2.7l0.1-0.1v-0.2l0.8-4.1l0.1-0.5L55,46.4
		l-4.3-2.7L45.6,39l1.1-3.9l3.5-2.3l0.1-0.1l0.1-0.1l1.4-2.2v0.1l1.9,3l0.1,0.2l0.2,0.1l2.7,1.1l0.8,0.3l0.2-0.9l0.8-4.3v-0.2v-0.2
		L58,27.1l-0.3-1l2.1-3.3l3-1.3l0.5-0.2v-0.5v-5.1l1.9-1.9l4.6-3.8l0.1-0.1l0.1,0l1.6-3l0.1-0.2V6.5c0-1.7,0.4-3.1,0.7-3.9
		c0.7,0.2,1.7,0.5,3,0.5c0.8,0,1.5-0.1,2.2-0.3c1,0.6,4,2.3,8.5,2.3c1.3,1,7.2,5.2,10.4,5.2c0.2,0,0.4,0,0.6,0h0.1h0.1
		c0.1-0.1,0.5-0.3,0.7-0.9c0.2-0.7,0-1.6-0.6-2.7C98,6.4,99.1,6,99.9,5.1C100.8,4.1,101.3,2.8,101.4,1.2 M100.6,0.3
		C100.9,6,96,6,96,6c1.9,3,0.8,3.5,0.8,3.5c-0.1,0-0.3,0-0.4,0c-3.2,0-10.1-5.2-10.1-5.2c-5.4,0-8.6-2.4-8.6-2.4
		c-0.8,0.3-1.6,0.4-2.3,0.4c-1.9,0-3.4-0.7-3.4-0.7s-1.1,2.2-1.1,4.9l-1.6,3l-4.6,3.8l-2.2,2.2v5.4l-3.2,1.4L56.9,26l0.4,1.3
		l0.7,2.5l-0.8,4.3L54.4,33l-1.9-3v-2.2l-2.7,4.3L46,34.6l-1.4,4.6l5.7,5.1l4.3,2.7l-0.8,4.1L52,53.8l-4.3,2.7l-0.3,4.3l-2.2-1.1
		c0,0,0.5,1.9,0.3,3.5c0,0-1.6,1.9-1.6,4.3c0,0,1.4,0.5,1.4,3l0.5,9.5l-2.7,2.2l0.5,3.8l-1.4,3l-1.1,7.3l-2.4,3c0,0,0.5,3.5-0.5,4.3
		c0,0-5.4,3.2,0.3,6.5c0,0,1.4,3,1.1,5.7c0,0,4.9,1.1,1.6,5.1c0,0-2.4,3-2.2,7.3c0,0,0.3,4.6-1.1,6.2c0,0-6.2,3-7.6,4.9
		c0,0-1.1-0.6-2.2-0.6c-0.8,0-1.6,0.3-2.1,1.5l1.1,1.9l-1.1,3.2c0,0,1.6,2.4-2.4,4.6l-3.2,1.1h-7.3l-0.5,1.6c0,0,0.8,1.9-1.6,3.5
		c0,0-3.8,1.4,0.3,4.1l-1.9,2.7L7,164.3l-2.6,0.8H4.3l2.2,3.2l-0.1,0.6l-0.5,3.7c0,0-5.9,0.5-5.9,5.4c0,0,1.4,3,6.8,3l2.4,3.5
		l1.6,0.8l-1.4,2.2c0,0,0.4,0.4,1,1.2c1,1.5,2.5,4.3,2.5,7.9c0,0-0.8,3.8,4.6,4.3c0,0,6.2,1.6,7.6,3.8l1.4,1.6c0,0,2.7-1.4,5.4-1.4
		c0,0,3.2,2.4,3.2,6.2c0,0,3,2.4,2.4,4.3l3,1.6l3.2,1.9c0,0,1.6,0,1.4,1.9c0,0,1.6,1.6,1.1,3.5c0,0,4.3-0.8,4.9-3c0,0,0.2,0,0.4,0
		c1.2,0,4.4-0.2,4.4-2.2l-1.1-4.9c0,0-0.3-3,1.9-4.6c0,0,1.9-0.5,1.9-4.9c0,0,0.5-3.5,2.4-4.1v-2.7c0,0,0.5-2.2,2.7-3.5
		c0,0-1.1-5.4,1.4-7c0,0-0.5-3.5,1.9-4.9l3.5-3.8l-1.1-2.2l-1.9-3.2l1.4-3l1.1-1.9l0.5-2.2l5.1-2.4l5.9,0.8l1.8,1.2
		c0.2-0.4,0.4-0.9,0.5-1.4c0.8-2.3,1.6-5.1,1.6-7.8c0,0-0.7-6.3-0.2-9.9c0,0,2.9-5.2,3.1-13.7c0,0,0-3.1,2.9-10.4
		c0,0,0.9-2.7-0.4-7.2c0,0,5-5.2,3.4-12.3c0,0,0-6.5,3.1-12.3c0,0,3.4-4.5,3.2-14.4l-1.1-0.5c0,0-0.2-6.8,4.5-9.7l0.5,1.8
		c0,0,2.9-3.2,0.2-7.2c0,0-7.4-5.9-1.8-12.3c0,0,6.8-5,4.9-14.1c0,0-1.6-5,5-7.4c0,0,1.6-1.1,3.1-4.5c0,0,5.4-0.7,6.1-7.2
		c0,0-0.2-3.2,3.1-4.9l0.9-6.5c0,0,0.1-0.2,0.2-0.5l-5.2,2.7c-1,0.2-1.9,0.3-2.8,0.3c-4.3,0-6.7-1.9-6.7-1.9
		C104.7,0.3,100.6,0.3,100.6,0.3L100.6,0.3z"/>
</g>
</svg>
