<?xml version="1.0" encoding="utf-8"?>
<!-- Generator: Adobe Illustrator 24.3.0, SVG Export Plug-In . SVG Version: 6.00 Build 0)  -->
<svg version="1.1" id="圖層_1" xmlns="http://www.w3.org/2000/svg" xmlns:xlink="http://www.w3.org/1999/xlink" x="0px" y="0px"
	 viewBox="0 0 23 21" style="enable-background:new 0 0 23 21;" xml:space="preserve">
<style type="text/css">
	.st0{fill:#F2AD11;}
	.st1{fill:#FFFFFF;}
</style>
<g>
	<polygon class="st0" points="12.5,17.8 9.4,14.7 4.8,14.7 3,11.9 2.3,8.4 1,5.5 2.4,3.5 10.1,0.8 12,1.7 14.6,3.6 18.2,4.3 
		21.2,5.9 22.2,7.8 20,10 18.8,12.4 18.8,15.5 21.2,17.2 20.8,18.5 16.4,20.1 	"/>
	<path class="st1" d="M10.1,1.6l1.5,0.7L14,4.1l0.3,0.2l0.3,0.1L18,5l2.7,1.5l0.7,1.2l-1.7,1.7l-0.2,0.2l-0.1,0.2L18.3,12l-0.2,0.3
		v0.4v2.5V16l0.6,0.4l1.6,1.2L20.2,18l-3.7,1.3l-3.6-2.1l-2.7-2.7L9.7,14H9.1H5.2l-1.6-2.3L3,8.3V8.1L2.9,8L1.8,5.6l1-1.4L10.1,1.6
		 M10.2,0L1.9,2.9L0.1,5.4l1.4,3.2l0.7,3.6l2.2,3.2h4.7l2.9,2.9l4.3,2.5l5-1.8l0.7-2.2L19.5,15v-2.5l1.1-2.2l2.5-2.5l-1.4-2.5
		l-3.2-1.8l-3.6-0.7L12.4,1L10.2,0L10.2,0z"/>
</g>
</svg>
