<?xml version="1.0" encoding="utf-8"?>
<!-- Generator: Adobe Illustrator 24.3.0, SVG Export Plug-In . SVG Version: 6.00 Build 0)  -->
<svg version="1.1" id="圖層_1" xmlns="http://www.w3.org/2000/svg" xmlns:xlink="http://www.w3.org/1999/xlink" x="0px" y="0px"
	 viewBox="0 0 20 24" style="enable-background:new 0 0 20 24;" xml:space="preserve">
<style type="text/css">
	.st0{fill:#F2AD11;}
	.st1{fill:#FFFFFF;}
</style>
<g>
	<path class="st0" d="M7.9,23.6L5,22l-3.8-0.9l1.1-3.9c2.2-3.1,1.7-6.3,1.5-7.1c1.7-2.1,1-3.3,0.7-3.7c0-0.9,0.1-1.8,0.4-2.5
		c0.5,0.7,1,1,1.4,1c0.1,0,0.1,0,0.2,0l0.2-0.1l0.9-2.9l0,0c0,0,0.5-0.9,1.5-0.9c0.4,0,0.9,0.2,1.5,0.5c0.1,0.1,3.5,3.2,5.8,3.3
		c0.4,0.2,2.9,1.3,2.6,4v0.1V9c0.4,1.3,1.2,5,0.4,6.1c-0.1,0.2-0.3,0.2-0.5,0.2c-0.3,0-0.6-0.1-0.9-0.3c-0.1,0-0.3-0.1-0.6-0.1
		c-0.7,0-2,0.4-2.1,3.1l-3.8,1l-2.9,2l-0.2,2.6H7.9z"/>
	<path class="st1" d="M9.1,1.4L9.1,1.4c0.4,0,0.8,0.2,1.2,0.4c0.5,0.5,3.7,3.3,6,3.4c0.5,0.2,2.6,1.2,2.4,3.5v0.1v0.1
		c0.5,1.9,1,5,0.4,5.8c-0.1,0.1-0.1,0.1-0.2,0.1s-0.3,0-0.8-0.3l0,0l0,0c-0.1,0-0.3-0.1-0.7-0.1c-0.7,0-2.2,0.3-2.4,3.2l-3.5,0.9
		h-0.1l-0.1,0.1l-2.7,1.9l-0.3,0.2v0.4l-0.2,2l-2.8-1.5H5.2H5.1l-3.3-0.8l1-3.4c2.2-3,1.8-6.1,1.6-7.2c1.5-2,1-3.3,0.7-3.9
		c0-0.6,0.1-1.1,0.2-1.6c0.4,0.4,0.8,0.6,1.2,0.6c0.1,0,0.2,0,0.3,0L7,5.1l0.1-0.4l0.8-2.6C8,1.9,8.4,1.4,9.1,1.4 M9.1,0.6
		c-1.2,0-1.8,1.1-1.8,1.1L6.4,4.5H6.3c-0.5,0-1-0.7-1.5-1.4C4.4,4,4.2,5.2,4.2,6.6c0,0,1.3,1.1-0.7,3.4c0,0,1.1,3.6-1.4,7l-1.3,4.3
		l4.1,1l3,1.6l0.8,0.2v0.3L9,21.2l2.7-1.9l4.1-1.1c0-2.6,1.1-3,1.7-3c0.3,0,0.5,0.1,0.5,0.1c0.5,0.2,0.8,0.3,1.1,0.3
		c2.4,0,0.5-6.8,0.5-6.8c0.3-3.2-3-4.3-3-4.3c-2.2,0-5.7-3.2-5.7-3.2C10.1,0.8,9.5,0.6,9.1,0.6L9.1,0.6z"/>
</g>
</svg>
