<?xml version="1.0" encoding="utf-8"?>
<!-- Generator: Adobe Illustrator 24.3.0, SVG Export Plug-In . SVG Version: 6.00 Build 0)  -->
<svg version="1.1" id="圖層_1" xmlns="http://www.w3.org/2000/svg" xmlns:xlink="http://www.w3.org/1999/xlink" x="0px" y="0px"
	 viewBox="0 0 79 92" style="enable-background:new 0 0 79 92;" xml:space="preserve">
<style type="text/css">
	.st0{fill:#009696;}
	.st1{fill:#FFFFFF;}
</style>
<g>
	<path class="st0" d="M56.1,89.1c0.5-0.6,0.6-1.5,0.4-2.6c-0.6-2.3-3-4.8-3.1-4.9c-2.4-1.9-3.7-4.5-3.7-4.5L49.5,77l-5.6,0.3
		l-4.6,0.5l-5.7-0.6L30,78.9l-2.5,1.5l-3.7-3c0.1-2.5,1.5-2.7,1.9-2.7h0.1l0.2-0.1c1-0.6,1.6-1.3,1.5-2.1c0-1.5-2-2.8-2.8-3.2L27,65
		c0.2-0.3,0.2-0.6,0.1-1c-0.4-1.7-4-3.6-4.4-3.8c-2.8-1.3-5-5.5-5-5.5l-0.1-0.1l-7.9-2.2c-1.4-1.7-0.7-5-0.7-5l0.1-0.2L9,47.1
		c-0.8-0.6-1.2-1.2-1.1-1.8c0-0.8,0.8-1.4,0.8-1.4l0.6-0.4L4,41.4l0.2-2.8l2.5-1.8l4.3-1.1v-0.3c0-1.7,0.5-2.7,1.3-2.7
		c0.2,0,0.3,0,0.3,0.1c0.4,0.2,0.9,0.4,1.3,0.4c0.5,0,0.8-0.2,1.1-0.5c1.1-1.5,0-5.9-0.2-6.7c0.2-3.4-3.2-4.6-3.2-4.6h-0.1h-0.1
		c-2,0-5.4-3.1-5.4-3.1c-0.7-0.5-1.3-0.7-1.9-0.7c-1.5,0-2.1,1.3-2.2,1.4l-0.7,2.5c-0.2-0.1-0.5-0.4-0.9-1c1.2-2.8,3.5-3.7,3.6-3.7
		l0.2-0.1l0.9-5L6,10c1.5-0.1,2.4-1.2,2.4-1.2L8.8,8l-2-0.2l0.4-1.2l1-1.7c1.1-1.1,2.3-2.4,3.5-3.9c1.3,0.6,3.1,1.2,4.4,1.2
		c0.2,0,0.4,0,0.6,0c1.5,0,5.7,0.5,5.7,2.5v0.1v0.1c0,0.1,2.3,6.6,8.1,6.7c0.3,0.3,1.3,1.1,3,1.1c0.2,0,0.5,0,0.8-0.1l0.3,0.1
		c1,0.4,3.4,1.5,3.5,4.7l-0.2,1.9l0.3,0.1c0.1,0,6.7,2.5,8.8,6l0.1,0.2l0.6,0.1l0.9,0.2l0.6,0.1l0.7,0.2l0.3,0.1l0.7,0.2l0.4,0.1
		l0.4,0.1l0.4,0.1l0.3,0.1l0.3,0.1l0.3,0.2c0.1,0.1,0.2,0.1,0.3,0.2s0.2,0.1,0.3,0.2s0.2,0.1,0.3,0.2s0.2,0.1,0.2,0.2
		c0.1,0.1,0.1,0.1,0.2,0.2c0.1,0.1,0.1,0.1,0.2,0.2c0.1,0.1,0.1,0.1,0.1,0.2s0.1,0.1,0.1,0.2l0.1,0.4v0.1v0.3h0.3l0.3,0.1
		c0.2,0,0.6,0.1,0.9,0.2l0.3,0.1c0.5,0.2,0.9,0.3,1.3,0.5c0.1,0.1,0.2,0.1,0.3,0.2s0.2,0.1,0.3,0.2s0.2,0.1,0.3,0.2l2.1,2.8
		c0,0.1,0.1,0.2,0.1,0.3s0.1,0.3,0.1,0.4v0.1c0,0.1,0,0.2,0,0.3s0,0.3,0,0.4c0,0.1-0.7,3.1,1,6l-2.9,2.5l2.4,5.2
		c0,0.3,0.1,0.5,0.1,0.8l-0.2,2.2l2.7,1.3l2.9,2.4l3.2,4c0.1,0.3,0.3,0.7,0.4,1c0.1,0.2,0.1,0.3,0.1,0.4v0.1c0,0.1,0,0.2,0,0.3v0.3
		L71,62c0,0,0.2,0.1,0.4,0.1l0.1,0.2l1.2,0.1h-0.1c0.2,0.1,0.4,0.1,0.5,0.1c0.2,0,0.4,0.1,0.5,0.1c0.2,0,0.3,0,0.5,0.1h0.1
		c0.2,0,0.3,0,0.5,0l3.9-0.6v0.6l-1,2.4L77,69.2l0.8,3.6l-2,1.5L71.7,77L70,80.1l-1.6,2.1l-1.7,1.9l-1.6,4.3l-1.7,1l-4.3,1.1
		l-3.9,0.2L56.1,89.1z"/>
	<path class="st1" d="M11.8,1.4c1.3,0.6,3,1.1,4.3,1.1c0.2,0,0.4,0,0.6,0C18.5,2.5,22,3,22,4.6v0.1v0.1c0,0.1,0.6,1.8,1.9,3.5
		c1.7,2.2,3.9,3.4,6.4,3.5c0.5,0.4,1.5,1.1,3.1,1.1c0.2,0,0.5,0,0.7,0l0,0c0,0,0.1,0,0.2,0.1c1,0.3,3.2,1.4,3.2,4.4V19l-0.1,0.6
		l0.5,0.2c0.1,0,6.6,2.5,8.6,5.8l0.2,0.3l0.4,0.1h0.3h0.2h0.2H48h0.2l0.3,0.1l0.3,0.1l0.3,0.1l0.3,0.1l0.3,0.1l0.3,0.1l0.3,0.1
		c0.1,0,0.2,0.1,0.3,0.1l0,0l0,0c0.1,0,0.2,0.1,0.3,0.1s0.2,0.1,0.3,0.1l0,0l0,0c0.1,0,0.2,0.1,0.3,0.1l0,0l0,0
		c0.1,0,0.2,0.1,0.3,0.1l0,0l0,0c0.1,0,0.2,0.1,0.3,0.1l0,0l0,0c0.1,0,0.2,0.1,0.3,0.1s0.2,0.1,0.2,0.1l0,0l0,0
		c0.1,0,0.2,0.1,0.3,0.2c0.1,0,0.1,0.1,0.2,0.2c0.1,0,0.1,0.1,0.2,0.2c0.1,0,0.1,0.1,0.2,0.2c0,0,0.1,0.1,0.1,0.2l0.1,0.1l0.1,0.1
		l0,0l0,0l0,0l0.1,0.3v0.1v0.7l0.7,0.1l0,0h0.1l0,0h0.1h0.1c0.2,0,0.5,0.1,0.9,0.2c0.1,0,0.2,0.1,0.3,0.1c0.4,0.1,0.9,0.3,1.3,0.5
		c0.1,0,0.2,0.1,0.3,0.2s0.2,0.1,0.3,0.2l0,0l0,0c0.1,0,0.1,0.1,0.2,0.1l2,2.6c0,0.1,0,0.1,0,0.2l0,0l0,0c0,0.1,0,0.2,0.1,0.4v0.1
		l0,0c0,0.1,0,0.2,0,0.3s0,0.2,0,0.3c-0.1,0.5-0.5,3.3,0.9,6l-2.4,2.1l-0.4,0.4l0.2,0.5l2.3,4.9c0,0.2,0,0.4,0,0.6l-0.2,2l-0.1,0.5
		l0.5,0.2l2.4,1.1l2.8,2.3l3.2,3.9c0.2,0.4,0.3,0.7,0.4,1l0.7-0.2L70.5,61c0,0.1,0.1,0.2,0.1,0.3v0.1c0,0.1,0,0.2,0,0.2v0.5l0.5,0.2
		c0,0,0.1,0,0.3,0.1l0.1,0.3h0.4l0.9,0.1c0.1,0,0.3,0.1,0.4,0.1h0.1c0.2,0,0.3,0.1,0.5,0.1s0.3,0,0.5,0.1h0.1c0.2,0,0.3,0,0.5,0H75
		h0.1l2.8-0.4l0.6-0.1v0.1l-1,2.3v0.1v0.1l-0.8,4.1v0.2v0.2l0.7,3.3l-1.7,1l-4.1,2.7l-0.2,0.1V77l-1.6,2.9L68.2,82l-1.6,1.9L66.5,84
		v0.1L65,88.2l-1.6,0.9l-4.2,1L56,90.3l0.5-0.9c0.6-0.8,0.7-1.7,0.4-2.9c-0.6-2.4-3.1-5-3.2-5.1l0,0l0,0C51.3,79.6,50,77,50,77
		l-0.2-0.4h-0.5l-5.4,0.3l0,0l0,0l-4.5,0.5l-5.6-0.5h-0.2L33.4,77l-3.5,1.6l0,0l0,0L27.5,80l-3.4-2.7c0-0.9,0.3-1.5,0.7-1.8
		c0.3-0.3,0.7-0.3,0.9-0.3l0,0h0.2l0.2-0.1c1.2-0.7,1.7-1.5,1.7-2.4c0-1.5-1.7-2.8-2.7-3.4l2.1-3.9c0.2-0.4,0.3-0.8,0.2-1.3
		c-0.5-1.8-3.9-3.7-4.6-4.1c-2.7-1.2-4.8-5.3-4.8-5.3l-0.1-0.3l-0.3-0.1L10,52.1c-1.2-1.6-0.5-4.5-0.5-4.6L9.6,47l-0.4-0.3
		c-0.5-0.4-1-0.9-1-1.5s0.7-1.1,0.7-1.1l1.2-0.8l-1.3-0.5l-4.3-1.7l0.2-2.3L7,37.2l3.9-1l0.6-0.1v-0.6c0-1.3,0.3-1.8,0.4-2
		c0.1-0.2,0.3-0.2,0.5-0.2c0.1,0,0.1,0,0.2,0c0.5,0.3,1,0.4,1.4,0.4c0.6,0,1.1-0.2,1.4-0.7c1.2-1.6,0.2-5.8-0.1-7
		c0.2-2.9-2.2-4.5-3.5-5h-0.1h-0.1c-1.4,0-3.9-1.9-5.2-3l0,0l0,0c-0.7-0.5-1.4-0.7-2.1-0.7c-0.2,0-0.4,0-0.6,0.1
		C3.8,17,4,16.9,4,16.9l0.4-0.1l0.1-0.4l0.9-4.7l0.8-1.5C7.7,10,8.6,8.9,8.7,8.9l0.9-1.1L8.1,7.5L7.3,7.4l0.2-0.7l1-1.6
		C9.6,4.1,10.7,2.8,11.8,1.4 M1.6,18.8L1,20.6c-0.1-0.1-0.2-0.2-0.3-0.4C1,19.6,1.2,19.2,1.6,18.8 M11.5,0.5c-1,1.4-2.3,2.9-3.7,4.2
		l-1,1.8L6.2,8.1L8,8.3c0,0-0.9,1.1-2.3,1.1l-1.1,2l-0.9,4.9c0,0-2.6,1-3.9,4.1c0.5,0.8,1,1.4,1.5,1.4h0.1L2.3,19
		c0,0,0.6-1.1,1.8-1.1c0.5,0,1,0.2,1.7,0.6c0,0,3.5,3.2,5.7,3.2c0,0,3.2,1.1,3,4.3c0,0,1.9,6.8-0.5,6.8c-0.3,0-0.7-0.1-1.1-0.3
		c0,0-0.2-0.1-0.5-0.1c-0.6,0-1.7,0.4-1.7,3l-4.1,1.1l-2.7,1.9l-0.2,2.9v0.3l4.9,1.9c0,0-2.4,1.6,0.3,3.8c0,0-0.8,3.5,0.8,5.4
		l7.8,2.2c0,0,2.2,4.3,5.1,5.7c0,0,5.1,2.7,4.1,4.3l-2.4,4.6c0,0,5.4,2.7,1.6,4.9c0,0,0,0-0.1,0c-0.5,0-2.3,0.2-2.3,3.2l4.1,3.2
		l2.7-1.6l3.5-1.6l5.7,0.5l4.6-0.5l5.4-0.3c0,0,1.4,2.7,3.8,4.6c0,0,2.4,2.5,3,4.7c0.2,0.8,0.2,1.7-0.3,2.3l-1.1,2.2l4.6-0.3
		l4.3-1.1l1.9-1.1l1.6-4.3l1.6-1.9l1.6-2.2l1.6-3l4.1-2.7l2.2-1.6l-0.8-3.8l0.8-4.1l1.1-2.4v-1.1L78,61.7l-3,0.6c-0.2,0-0.3,0-0.5,0
		h-0.1c-0.2,0-0.3,0-0.5,0l0,0c-0.1,0-0.3,0-0.4-0.1c0,0,0,0-0.1,0s-0.3-0.1-0.4-0.1l0,0L72,62l-0.1-0.2c-0.3-0.1-0.5-0.2-0.5-0.2
		c0-0.1,0-0.2,0-0.4v-0.1c0-0.1-0.1-0.2-0.1-0.4v-0.1c-0.1-0.3-0.3-0.7-0.5-1.1l-3.3-4.1l-3-2.4L62,51.9l0.2-2l0,0l0,0
		c0-0.3,0-0.6-0.1-0.9l0,0l-2.3-5l2.9-2.5c-1.8-2.9-1.1-6.1-1.1-6.1c0-0.2,0-0.3,0-0.5c0-0.1,0-0.2,0-0.3v-0.1c0-0.1,0-0.3-0.1-0.4
		l0,0c0-0.1-0.1-0.3-0.1-0.4l-2.1-2.9c-0.1-0.1-0.2-0.2-0.3-0.2l0,0c-0.1-0.1-0.2-0.1-0.3-0.2l0,0c-0.1-0.1-0.2-0.1-0.3-0.2l0,0
		c-0.5-0.2-0.9-0.4-1.4-0.5l0,0c-0.1,0-0.2-0.1-0.3-0.1l0,0c-0.4-0.1-0.7-0.2-1-0.2l0,0h-0.1l0,0h-0.1l0,0c0,0,0,0-0.1,0l0,0l0,0
		c0-0.1,0-0.2,0-0.2L55,28.6v-0.1l0,0c0-0.1-0.1-0.1-0.1-0.2l0,0c0-0.1-0.1-0.1-0.1-0.2l0,0c-0.1-0.1-0.1-0.1-0.2-0.2l0,0
		c-0.1-0.1-0.1-0.1-0.2-0.2l0,0c-0.1-0.1-0.1-0.1-0.2-0.2l0,0c-0.1-0.1-0.2-0.1-0.2-0.2l0,0c-0.1-0.1-0.2-0.1-0.3-0.2l0,0
		c-0.1,0-0.2-0.1-0.3-0.1l0,0c-0.1,0-0.2-0.1-0.3-0.1l0,0c-0.1,0-0.2-0.1-0.3-0.1l0,0c-0.1,0-0.2-0.1-0.3-0.1l0,0
		c-0.1,0-0.2-0.1-0.3-0.1l0,0c-0.1,0-0.2-0.1-0.3-0.1l0,0c-0.1,0-0.2-0.1-0.3-0.1l0,0c-0.1,0-0.2-0.1-0.3-0.1l0,0
		c-0.1,0-0.2-0.1-0.3-0.1l0,0c-0.1,0-0.2-0.1-0.3-0.1l0,0c-0.1,0-0.2-0.1-0.3-0.1l0,0c-0.1,0-0.2,0-0.3-0.1l0,0
		c-0.1,0-0.2,0-0.3-0.1l0,0c-0.1,0-0.2,0-0.3-0.1l0,0c-0.1,0-0.2,0-0.2,0l0,0c-0.1,0-0.2,0-0.2,0l0,0c-0.1,0-0.1,0-0.2,0l0,0
		c-0.1,0-0.1,0-0.2,0l0,0c-0.1,0-0.1,0-0.2,0l0,0c-0.1,0-0.2,0-0.3,0l0,0c-2.2-3.6-9-6.1-9-6.1l0.1-1.6l0,0l0,0
		c-0.1-3.5-2.7-4.7-3.7-5.1l0,0c-0.1,0-0.1,0-0.2-0.1l0,0c-0.1,0-0.1,0-0.1,0l0,0l0,0c-0.3,0-0.5,0.1-0.8,0.1c-2,0-2.8-1.1-2.8-1.1
		c-5.8,0-7.9-6.5-7.9-6.5c0-2.9-6.1-2.9-6.1-2.9l0,0c-0.2,0-0.3,0-0.5,0C14.6,1.8,12.7,1,11.5,0.5L11.5,0.5z"/>
</g>
</svg>
