<?xml version="1.0" encoding="utf-8"?>
<!-- Generator: Adobe Illustrator 24.2.1, SVG Export Plug-In . SVG Version: 6.00 Build 0)  -->
<svg version="1.1" id="圖層_1" xmlns="http://www.w3.org/2000/svg" xmlns:xlink="http://www.w3.org/1999/xlink" x="0px" y="0px"
	 viewBox="0 0 343 292" style="enable-background:new 0 0 343 292;" xml:space="preserve">
<style type="text/css">
	.st0{fill:url(#SVGID_1_);stroke:#FFFFFF;stroke-width:2;}
	.st1{fill:url(#SVGID_2_);stroke:#FFFFFF;stroke-width:2;}
	.st2{fill:url(#SVGID_3_);stroke:#FFFFFF;stroke-width:2;}
	.st3{fill:url(#SVGID_4_);stroke:#FFFFFF;stroke-width:2;}
</style>
<g>
	<linearGradient id="SVGID_1_" gradientUnits="userSpaceOnUse" x1="143.7385" y1="71.4424" x2="185.9053" y2="157.1362">
		<stop  offset="9.644700e-02" style="stop-color:#00B2D5"/>
		<stop  offset="1" style="stop-color:#7FCCE8"/>
	</linearGradient>
	<path class="st0" d="M84.3,77.6l4.1,6.5l4.1,3.7l5.1,1l9.9,6.5c5.1,0.7,9.9,3.1,9.9,3.1c0.7,4.1,7.5,2,7.5,2c3.1-2,5.8,0.3,5.8,0.3
		c5.8,4.8,6.5-5.1,6.5-5.1c0-4.4,2.4-4.8,2.4-4.8l8.8,0.7l5.4,2l3.1,2.7c0.3,5.1,5.4,3.7,5.4,3.7c1.4-2.7,6.5-5.4,6.5-5.4
		c3.1,1.4,8.2-2.7,8.2-2.7c0.7-2.4,5.8-5.4,5.8-5.4c2.4,1,6.8-2.4,6.8-2.4c0.3-2.7,2.4-4.4,2.4-4.4c3.1-3.7,4.8,0,4.8,0
		c1,1.4,2.4,1.4,2.4,1.4c0-2,3.4-5.4,3.4-5.4c-0.7-2,0.7-4.8,0.7-4.8l3.1-6.6c0,0,0,0,0,0c-0.6-2.3-2.7-4.8-3.5-5.6c0,0,0,0,0,0
		c-0.1-0.1-0.2-0.2-0.2-0.3c0,0,0,0,0,0c0,0,0,0,0,0c-3.1-2.4-4.8-5.8-4.8-5.8l-6.8,0.3l-5.8,0.7l-7.1-0.7l-4.4,2l-3.4,2l-5.1-4.1
		c0-4.4,3.1-4.1,3.1-4.1c4.8-2.7-2-6.1-2-6.1l3.1-5.8c1.4-2-5.1-5.4-5.1-5.4c-3.7-1.7-6.5-7.1-6.5-7.1l-9.9-2.7c-2-2.4-1-6.8-1-6.8
		c-3.4-2.7-0.3-4.8-0.3-4.8l-6.1-2.4l0-0.4l-1.1-0.3l-3.7-2l-5.1-1.2l-3-0.6c-1.7,0.4-3.6,2.2-4.5,7.9c0,0-1.6,3.2-4.5,4.3
		c0,0-1.8,0.9,1.4,4.5c0,0-9.5-1.6-15.2,4.1c0,0-5,5.9-8.8,8.8c0,0-2.9,3.6-3.2,7.9c0,0-2.7,5.7-4.1,7.7c0,0-1.6,4.5-1.8,7.7
		c0,0-1.4,4.3-4.1,6.3L81,65.3l-2,1.1l-1.6,2l-0.7,1.1l3.6,3.3L84.3,77.6z"/>
	<linearGradient id="SVGID_2_" gradientUnits="userSpaceOnUse" x1="133.9254" y1="76.2708" x2="176.0933" y2="161.9671">
		<stop  offset="9.644700e-02" style="stop-color:#00B2D5"/>
		<stop  offset="1" style="stop-color:#7FCCE8"/>
	</linearGradient>
	<path class="st1" d="M240.4,80c-2.4,0-6.8,2.7-6.8,2.7c-4.8,0-8.2-4.4-8.2-4.4c-4.8,0-5.4-3.1-5.4-3.1c0.7-2.7-2-8.5-2-8.5
		l-2.4,1.4l-5.4,1.4l-5.8,0.3l1.4-2.7c0.6-0.8,0.7-1.8,0.4-2.9l-3.1,6.6c0,0-1.4,2.7-0.7,4.8c0,0-3.4,3.4-3.4,5.4c0,0-1.4,0-2.4-1.4
		c0,0-1.7-3.7-4.8,0c0,0-2,1.7-2.4,4.4c0,0-4.4,3.4-6.8,2.4c0,0-5.1,3.1-5.8,5.4c0,0-5.1,4.1-8.2,2.7c0,0-5.1,2.7-6.5,5.4
		c0,0-5.1,1.4-5.4-3.7l-3.1-2.7l-5.4-2l-8.8-0.7c0,0-2.4,0.3-2.4,4.8c0,0-0.7,9.9-6.5,5.1c0,0-2.7-2.4-5.8-0.3c0,0-6.8,2-7.5-2
		c0,0-4.8-2.4-9.9-3.1l-9.9-6.5l-5.1-1l-4.1-3.7l-4.1-6.5l-4.1-4.8l-3.6-3.3l-4,6.1l1.8,3.9l-2-0.7c0,0-1.4-0.9-1.8-0.2
		c0,0-0.5,2-3.4,5.7l-0.7,3.4c0,0-4.5,1.4-2.3,4.8c0,0-2,0.5-1.1,3.2c0,0-1.8,0.2-1.8,4.8c0,0-0.7,5-7.3,4.1c0,0-3.4-1.4-3.4,2.5
		c0,0,10,0,1.6,13.4c0,0-2.5,0.7-1.6,4c1.8,1.4,4.2,3.7,4.7,6.2l5,4.5l1.4,5l5.4,7.7l7.3,5.4v5.9l4.5,9.1l-3.7-7.5
		c0.9-1.2,2.7-2.4,6-0.7c0,0,8.6,6.8,15.9,5.9c0,0,15.4,0.5,16.8-5c0,0,5.4-7.7,0.5-10c0,0,14.1,0.9,16.3-1.8
		c0,0,12.7-10.4,22.2-9.1c0,0,6.8-9.1,15.4-9.5c0,0,2.3-10,14.5-8.6c0,0,2.3-4.1,10.4-3.2c0,0,7.7-7.3,10.9-0.9c0,0,4.1,0.9,3.6-5
		c0,0,3.6-2.7,4.1,1.4c0,0,13.6-3.2,14.1,2.3l0.1,0.2l-0.5-1.6l3.1-4.8l4.1-1.7v-2.7v-4.1l2.7-2.7l5.8-4.8l2-3.7
		c0-3.4,1.4-6.1,1.4-6.1C244.5,81,240.4,80,240.4,80z"/>
	<linearGradient id="SVGID_3_" gradientUnits="userSpaceOnUse" x1="108.2514" y1="88.9073" x2="150.4213" y2="174.6075">
		<stop  offset="9.644700e-02" style="stop-color:#00B2D5"/>
		<stop  offset="1" style="stop-color:#7FCCE8"/>
	</linearGradient>
	<path class="st2" d="M211.7,114.2c-0.5-4.1-4.1-1.4-4.1-1.4c0.5,5.9-3.6,5-3.6,5c-3.2-6.3-10.9,0.9-10.9,0.9
		c-8.2-0.9-10.4,3.2-10.4,3.2c-12.2-1.4-14.5,8.6-14.5,8.6c-8.6,0.5-15.4,9.5-15.4,9.5c-9.5-1.4-22.2,9.1-22.2,9.1
		c-2.3,2.7-16.3,1.8-16.3,1.8c5,2.3-0.5,10-0.5,10c-1.4,5.4-16.8,5-16.8,5c-7.3,0.9-15.9-5.9-15.9-5.9c-3.3-1.6-5.1-0.5-6,0.7
		l3.7,7.5v8.2l6.3,4.1l-4.5,5.4l-0.9,6.3l0.9,5.9c0,0-1.8,1.4-1.8,3.6c0,0,2.3,3.2,2.3,5.9c0,0,7.3-0.5,7.3,3.2c0,0-2.3,4.2-7.6,4.2
		c0.7,1.2,1.5,2.5,2.6,3.5c0,0,4.5,5.4,2.7,9.5c0,0-1.8,1.4-4.1,1.4l-0.5,5c0,0,5,0.9,0,9.5c0,0-0.5,5.4,4.5,8.2l6.3-1.4H97l1.4-3.2
		l3.6,4.5h4.5l2.7,1.8l6.3,0.9c6.8,2.3,3.6,4.5,3.6,4.5c0,2.3-2.3,5-2.3,5l0.5,5c3.2,1.4,2.7,7.3,2.7,7.3c0,7.3,8.6,6.3,8.6,6.3
		c7.7-1.4,15.4,0.9,15.4,0.9l0,0.8c3.3-0.7,6.8-0.7,10,0.6l5.1,4.6l3.3-1l3.1-1.7l2.4-3.4c-5.1-3.4-0.3-5.1-0.3-5.1
		c3.1-2,2-4.4,2-4.4l0.7-2h9.2l4.1-1.4c5.1-2.7,3.1-5.8,3.1-5.8l1.4-4.1l-1.4-2.4c1.4-3.4,5.4-1,5.4-1c1.7-2.4,9.5-6.1,9.5-6.1
		c1.7-2,1.4-7.8,1.4-7.8c-0.3-5.4,2.7-9.2,2.7-9.2c4.1-5.1-2-6.5-2-6.5c0.3-3.4-1.4-7.1-1.4-7.1c-7.1-4.1-0.3-8.2-0.3-8.2
		c1.4-1,0.7-5.4,0.7-5.4l3.1-3.7l1.4-9.2l1.7-3.7l-0.7-4.8l3.4-2.7l-0.7-11.9c0-3.1-1.7-3.7-1.7-3.7c0-3.1,2-5.4,2-5.4
		c0.3-2-0.3-4.4-0.3-4.4l2.7,1.4l0.3-5.4l5.4-3.4l2.4-3.4l1-5.1l-5.4-3.4l-7.1-6.5l1.7-5.8l4.8-3.1l3.4-5.4v2.7l2.4,3.7l3.4,1.4
		l1-5.4l-0.9-3.1l-0.1-0.2C225.3,111.1,211.7,114.2,211.7,114.2z"/>
	<linearGradient id="SVGID_4_" gradientUnits="userSpaceOnUse" x1="18.1084" y1="133.2644" x2="60.2739" y2="218.9557">
		<stop  offset="9.644700e-02" style="stop-color:#00B2D5"/>
		<stop  offset="1" style="stop-color:#7FCCE8"/>
	</linearGradient>
	<path class="st3" d="M81.1,207.6c0-2.7-2.3-5.9-2.3-5.9c0-2.3,1.8-3.6,1.8-3.6l-0.9-5.9l0.9-6.3l4.5-5.4l-6.3-4.1v-8.2l-3.7-7.5
		l-0.8-1.6v-5.9l-7.3-5.4l-5.4-7.7l-1.4-5l-5-4.5c-0.5-2.5-2.9-4.8-4.7-6.2c0.1,0.4,0.3,0.9,0.5,1.5c0,0-3.9,3.2-7.3,6.1
		c0,0-2.5,1.8-2.7,3.9c0,0-2.9,2.3-2.9,5.2c0,0,0.9,3.2-1.4,6.1l4.1,0.2c0,0-7.7,1.8-8.8,7.5c0,0-7.5,0.9-6.1,6.6c0,0-3.6-2-4.5,4.5
		c0,0-1.8,1.1,0,5.2c0,0-0.5,2-2.7,2l0.2,3.2c0,0-2.3,1.1-3.4,3.4c0,0-2.7,3.9-4.8,8.6l-2.9,2.9c0,0,1.1,1.8,2.3,2c0,0-2.5,3.9-5,5
		c0,0-0.9,2.9,1.6,3.9c0,0-1.4,1.4,0.7,2.3c0,0,8.6,2,13.1,1.6c0,0,3.4-2.5,7.5-1.4c0,0,0.4,0.1,0.9,0.2c2.1-1.7,6.8-4.2,15-1.4
		l14.1,2.7l9.4,1.6l1.5,0.2c0,0,5.4-1.8,9.5,0.9c0,0,0.7,3,2.4,6c5.3,0,7.6-4.2,7.6-4.2C88.4,207.2,81.1,207.6,81.1,207.6z"/>
</g>
</svg>
