<?xml version="1.0" encoding="utf-8"?>
<!-- Generator: Adobe Illustrator 24.2.1, SVG Export Plug-In . SVG Version: 6.00 Build 0)  -->
<svg version="1.1" id="圖層_1" xmlns="http://www.w3.org/2000/svg" xmlns:xlink="http://www.w3.org/1999/xlink" x="0px" y="0px"
	 viewBox="0 0 343 292" style="enable-background:new 0 0 343 292;" xml:space="preserve">
<style type="text/css">
	.st0{fill:url(#SVGID_1_);stroke:#FFFFFF;stroke-width:2;}
	.st1{fill:url(#SVGID_2_);stroke:#FFFFFF;stroke-width:2;}
	.st2{fill:url(#SVGID_3_);stroke:#FFFFFF;stroke-width:2;}
	.st3{fill:url(#SVGID_4_);stroke:#FFFFFF;stroke-width:2;}
	.st4{fill:url(#SVGID_5_);stroke:#FFFFFF;stroke-width:2;}
	.st5{fill:url(#SVGID_6_);stroke:#FFFFFF;stroke-width:2;}
</style>
<g>
	<linearGradient id="SVGID_1_" gradientUnits="userSpaceOnUse" x1="10.2882" y1="161.6704" x2="76.2884" y2="243.6707">
		<stop  offset="9.644700e-02" style="stop-color:#E86649"/>
		<stop  offset="1" style="stop-color:#EA7B1C"/>
	</linearGradient>
	<path class="st0" d="M18.7,195.4l1.6,0.4l-0.1,0.6l0.5-6l5-3.5l7.5-2c0-7,4-5.5,4-5.5c7.5,4,3-12,3-12c0.5-6-5.5-8-5.5-8
		c-4,0-10.5-6-10.5-6c-4.5-3-6.5,1-6.5,1l-1.5,5c-0.9,0.2-2-1.1-3-2.6c-0.7,1.8-1.2,3.9-1.2,6.5c0,0,2.3,2-1.3,6.3c0,0,2,6.7-2.7,13
		l-2.3,8l7.5,1.8L18.7,195.4z"/>
	<linearGradient id="SVGID_2_" gradientUnits="userSpaceOnUse" x1="166.6438" y1="35.8189" x2="232.6462" y2="117.8219">
		<stop  offset="9.644700e-02" style="stop-color:#E86649"/>
		<stop  offset="1" style="stop-color:#EA7B1C"/>
	</linearGradient>
	<path class="st1" d="M328.7,91.6c0,0-12.3,3.7-16-4c0,0,2-6.3-3-11.3l-2.3-10.7c0,0-0.7-7-12.7-5.3c0,0-15.3-1-20.7-2.7
		c0,0-7.7-5.7-9.7-6.3l-5.7,0.7l-0.7-2.3l-3.3-1.7c0,0-6-2.7-7.7-2.7c0,0-4.3-4.3-7.3-6.7c0,0,0.3-4.7,3.7-8.3c0,0,1.3-2-4.3,0.7
		c0,0-3.7,3-8,0.7c0,0-7.3-5.7-8-13.7c0,0-5-7-10.7-9l-5-3.7c0,0-8.3-2.3-17.7,4.7l-4-3.3l-4,3.3c0,0-0.7,3.3-6.7,8.7l-3.7,3.7
		c0,0-6.7,9.3-17.7,18c0,0-1,2,0.7,3c0,0,14.3,4.7,16.3,10.7c0,0-2,2.7-4.7-1.3l-6-4c0,0-2.7-2.7-5,0.3c0,0-2.7,0.7-2.3,5
		c0,0-8.7,8.7-23.7,7.3c0,0-4.3,1-7,3.3c0,0-2.2-0.6-5.2-0.9c2.4,0.7,3.4,2.2,3.4,2.2l4,3.3l4,0.7l5.3,4h7.3l6.7,7.3l6.7,2.7l2,7.3
		v8l-4,4.7l-7.3,2l-6.7,5.3l-5.3,6l-1.3,6.7l0.7,4.7l2,5.3l5.3,7.3v5.3v7.3l5.3,2.7l8.7-5.3l5.3,0.7l2.7,5.3l4,4l2.7,4l2.7,4
		l-5.3,5.3l0.7,6.7c0,7.3,8.7,15.3,8.7,15.3c6.7,2.7,4,8,4,8c1.1,1.3,1.3,2.5,1.1,3.5c0,0,0,0,0,0l0.7-0.7c4.5,0,11-6.5,11-6.5
		c6.5,6.5,8.5-6.5,8.5-6.5c4,0,15-6,15-6l-1-19l8.5-3.5l3.5-5l17-3.5c5.5-6.5,12-12,12-12h7.5c0.5-4.5,14-16.5,14-16.5
		c15-1.5,12-6,12-6c1.5-4-4.5-12-4.5-12c2.5,2,9.5-1,9.5-1c9.5-8,22-8.5,22-8.5l6-2l5.7,3.2c0,0,8.3-2.3,8.3-7.3l0.7-4.3
		C336.4,91,332.7,91.6,328.7,91.6z"/>
	<linearGradient id="SVGID_3_" gradientUnits="userSpaceOnUse" x1="169.7709" y1="33.309" x2="235.7729" y2="115.3116">
		<stop  offset="9.644700e-02" style="stop-color:#E86649"/>
		<stop  offset="1" style="stop-color:#EA7B1C"/>
	</linearGradient>
	<path class="st2" d="M179.5,62.8c0,0,1,8.7,9,15.3l-0.7,6.7l-0.7,10l5.3,8l6,2l3.3,8l11.3,2.7l8-1.3l2.7-3.3l-2-6.7l7.3-6l8-4.7
		l-5.3-7.3l-0.7-7.3l-2-2.7l-9.3-4.7l-4-7.3l-0.7-10.7l-2-7.3l-4.7-2l-4-0.7l-6.7,4.7l-9.3,4l-5.3,2L179.5,62.8z"/>
	<linearGradient id="SVGID_4_" gradientUnits="userSpaceOnUse" x1="204.1916" y1="5.5997" x2="270.193" y2="87.6015">
		<stop  offset="9.644700e-02" style="stop-color:#E86649"/>
		<stop  offset="1" style="stop-color:#EA7B1C"/>
	</linearGradient>
	<polygon class="st3" points="226.2,53.4 228.9,59.4 230.2,66.1 234.2,72.1 242.9,72.1 248.2,77.4 256.2,82.1 265.5,78.8 
		266.9,74.8 262.2,71.4 262.2,66.8 264.2,62.8 268.9,58.1 266.2,53.4 260.2,50.1 253.5,48.8 248.9,45.4 244.9,43.4 229.5,48.8 	"/>
	<linearGradient id="SVGID_5_" gradientUnits="userSpaceOnUse" x1="30.3392" y1="145.5377" x2="96.3449" y2="227.5449">
		<stop  offset="9.644700e-02" style="stop-color:#E86649"/>
		<stop  offset="1" style="stop-color:#EA7B1C"/>
	</linearGradient>
	<path class="st4" d="M151.1,234.6c-0.3,0-0.6,0-0.8-0.1c0,0,0,0,0,0c-0.3,0-0.5-0.1-0.8-0.1c0,0-0.1,0-0.1,0
		c-0.3-0.1-0.5-0.1-0.8-0.2c0,0,0,0,0,0l-1.8-0.2l-0.2-0.3c-0.6-0.2-1-0.4-1-0.4c0-0.2,0-0.4-0.1-0.7c0-0.1,0-0.1,0-0.2
		c-0.1-0.2-0.1-0.4-0.2-0.7c0-0.1,0-0.1-0.1-0.2c-0.2-0.6-0.5-1.3-0.9-2.1l-6.1-7.5l-5.5-4.5l-4.5-2.2l0.4-3.7c0,0,0,0,0,0
		c0,0,0,0,0,0c0-0.6-0.1-1.1-0.1-1.6l0,0v0l-4.3-9.3l5.3-4.7c-3.3-5.3-2-11.3-2-11.3c0-0.3,0-0.6,0-0.9c0-0.2,0-0.4-0.1-0.6
		c0-0.1,0-0.1,0-0.2c0-0.3-0.1-0.5-0.1-0.7c0,0,0,0,0,0c-0.1-0.2-0.1-0.5-0.2-0.7l-4-5.3c-0.2-0.1-0.4-0.3-0.6-0.4c0,0,0,0-0.1,0
		c-0.2-0.1-0.4-0.2-0.6-0.3c0,0,0,0-0.1,0c-0.2-0.1-0.4-0.2-0.6-0.3c0,0,0,0,0,0c-0.9-0.4-1.7-0.8-2.5-1c0,0,0,0,0,0
		c-0.2-0.1-0.4-0.1-0.5-0.2c0,0,0,0,0,0c-0.7-0.2-1.3-0.3-1.8-0.4c0,0,0,0,0,0c-0.1,0-0.2,0-0.2,0c0,0,0,0-0.1,0c-0.1,0-0.1,0-0.2,0
		c0,0,0,0,0,0c0,0-0.1,0-0.1,0c0,0,0,0,0,0c0,0,0,0,0,0c0-0.1,0-0.3,0-0.4l-0.2-0.7c0-0.1-0.1-0.1-0.1-0.2c0,0,0,0,0,0
		c-0.1-0.1-0.1-0.3-0.2-0.4c0,0,0,0,0,0c-0.1-0.1-0.2-0.2-0.3-0.4c0,0,0,0,0,0c-0.1-0.1-0.2-0.2-0.3-0.3c0,0,0,0,0,0
		c-0.1-0.1-0.2-0.2-0.4-0.3c0,0,0,0-0.1,0c-0.1-0.1-0.3-0.2-0.4-0.3c0,0,0,0-0.1,0c-0.1-0.1-0.3-0.2-0.4-0.3c0,0,0,0-0.1,0
		c-0.2-0.1-0.3-0.2-0.5-0.3c0,0-0.1,0-0.1,0c-0.2-0.1-0.3-0.2-0.5-0.3c0,0-0.1,0-0.1,0c-0.2-0.1-0.3-0.2-0.5-0.3c0,0-0.1,0-0.1,0
		c-0.2-0.1-0.4-0.2-0.5-0.2c0,0-0.1,0-0.1,0c-0.2-0.1-0.4-0.2-0.6-0.2c0,0-0.1,0-0.1,0c-0.2-0.1-0.4-0.1-0.6-0.2c0,0-0.1,0-0.1,0
		c-0.2-0.1-0.4-0.1-0.6-0.2c0,0-0.1,0-0.1,0c-0.2-0.1-0.4-0.1-0.6-0.2c0,0-0.1,0-0.1,0c-0.2-0.1-0.4-0.1-0.6-0.2c0,0-0.1,0-0.1,0
		c-0.2-0.1-0.4-0.1-0.6-0.2c0,0-0.1,0-0.1,0c-0.2-0.1-0.4-0.1-0.6-0.2c0,0,0,0-0.1,0c-0.2,0-0.4-0.1-0.6-0.1c0,0,0,0-0.1,0
		c-0.2,0-0.4-0.1-0.6-0.1c0,0,0,0,0,0c-0.2,0-0.4-0.1-0.5-0.1c0,0,0,0-0.1,0c-0.2,0-0.3-0.1-0.5-0.1c0,0,0,0-0.1,0
		c-0.2,0-0.3-0.1-0.5-0.1c0,0,0,0,0,0c-0.2,0-0.3-0.1-0.4-0.1c0,0,0,0,0,0c-0.1,0-0.3,0-0.4-0.1c0,0,0,0,0,0c-0.1,0-0.2,0-0.3-0.1
		c0,0,0,0,0,0c-0.1,0-0.2,0-0.3,0c0,0,0,0,0,0c-0.3,0-0.5-0.1-0.5-0.1c0,0,0,0,0,0c-4-6.7-16.7-11.3-16.7-11.3l0.3-3v0c0,0,0,0,0,0
		c-0.1-6.5-5-8.8-6.9-9.4c0,0,0,0,0,0c-0.1,0-0.3-0.1-0.4-0.1c0,0,0,0,0,0c-0.1,0-0.2,0-0.2-0.1c0,0,0,0,0,0c0,0-0.1,0-0.1,0
		c-4.7,0.7-6.7-2-6.7-2c-10.7,0-14.7-12-14.7-12c0-5.3-11.3-5.3-11.3-5.3c-2.7,0.5-6.9-1.2-9.4-2.4c-1.9,2.6-4.2,5.3-6.8,7.7l-2,3.3
		l-1,3l3.3,0.3c0,0-1.7,2-4.3,2l-2,3.7l-1.7,9c0,0-4.9,1.8-7.1,7.5c0.9,1.5,2.1,2.9,3,2.6l1.5-5c0,0,2-4,6.5-1c0,0,6.5,6,10.5,6
		c0,0,6,2,5.5,8c0,0,4.5,16-3,12c0,0-4-1.5-4,5.5l-7.5,2l-5,3.5l-0.4,5.4l-0.1,0.6l9,3.5c0,0-4.5,3,0.5,7c0,0-1.5,6.5,1.5,10l14.5,4
		c0,0,4,8,9.5,10.5c0,0,9.5,5,7.5,8l-4.5,8.5c0,0,10,5,3,9c0,0-4.5-0.5-4.5,6l7.5,6l5-3l6.5-3l10.5,1l8.5-1l10-0.5c0,0,2.5,5,7,8.5
		c0,0,4.5,4.5,5.6,8.7c0.4,1.5,0.3,3.1-0.6,4.3l-2,4l8.5-0.5l8-2l3.5-2l3-8l3-3.5l3-4l3-5.5l7.5-5l4-3l-1.5-7l1.5-7.5l2-4.5v-2
		l-2.8,0.4l-5.2,0.8c-0.3,0-0.6,0-0.9,0C151.3,234.6,151.2,234.6,151.1,234.6z"/>
	<linearGradient id="SVGID_6_" gradientUnits="userSpaceOnUse" x1="90.5048" y1="97.1159" x2="156.504" y2="179.1149">
		<stop  offset="9.644700e-02" style="stop-color:#E86649"/>
		<stop  offset="1" style="stop-color:#EA7B1C"/>
	</linearGradient>
	<path class="st5" d="M178.9,204.6c0,0,2.7-5.3-4-8c0,0-8.7-8-8.7-15.3l-0.7-6.7l5.3-5.3l-2.7-4l-2.7-4l-4-4l-2.7-5.3l-5.3-0.7
		l-8.7,5.3l-5.3-2.7v-7.3v-5.3l-5.3-7.3l-2-5.3l-0.7-4.7l1.3-6.7l5.3-6l6.7-5.3l7.3-2l4-4.7v-8l-2-7.3l-6.7-2.7l-6.7-7.3h-7.3
		l-5.3-4l-4-0.7l-4-3.3c0,0-1-1.5-3.4-2.2c-2-0.2-4.4-0.2-6.7,0.2l-6.7,3.7c0,0-6.1-0.4-10.5,3.2c-1.1,1-2.2,2.4-3.2,4.1
		c0,0-1,1.7-7.3,1.7c0,0-4.7,0.7-8.7,3.7c0,0-8.3,4.7-12,4.7l-0.3,2.3L58.7,88l-2,2.3c0,0-13.3,5.3-15.3,19.7c0,0-1.7,3.2-4.5,7.4
		c-0.6,0.9-1.3,1.9-2,2.8c2.5,1.1,6.7,2.8,9.4,2.4c0,0,11.3,0,11.3,5.3c0,0,4,12,14.7,12c0,0,2,2.7,6.7,2c0,0,0,0,0.1,0c0,0,0,0,0,0
		c0.1,0,0.1,0,0.2,0.1c0,0,0,0,0,0c0.1,0,0.2,0.1,0.4,0.1c0,0,0,0,0,0c1.9,0.6,6.8,2.9,6.9,9.4c0,0,0,0,0,0v0c0,0,0,0,0,0
		c0,0.4,0,0.9-0.1,1.4c0,0,0,0.1,0,0.1c0,0.5-0.1,1-0.2,1.5c0,0,12.7,4.7,16.7,11.3c0,0,0,0,0,0c0.1,0,0.3,0,0.5,0.1c0,0,0,0,0,0
		c0.1,0,0.2,0,0.3,0c0,0,0,0,0,0c0.1,0,0.2,0,0.3,0.1c0,0,0,0,0,0c0.1,0,0.3,0,0.4,0.1c0,0,0,0,0,0c0.1,0,0.3,0.1,0.4,0.1
		c0,0,0,0,0,0c0.1,0,0.3,0.1,0.5,0.1c0,0,0,0,0.1,0c0.2,0,0.3,0.1,0.5,0.1c0,0,0,0,0.1,0c0.2,0,0.4,0.1,0.5,0.1c0,0,0,0,0,0
		c0.2,0,0.4,0.1,0.6,0.1c0,0,0,0,0.1,0c0.2,0,0.4,0.1,0.6,0.1c0,0,0,0,0.1,0c0.2,0,0.4,0.1,0.6,0.2c0,0,0.1,0,0.1,0
		c0.2,0.1,0.4,0.1,0.6,0.2c0,0,0.1,0,0.1,0c0.2,0.1,0.4,0.1,0.6,0.2c0,0,0.1,0,0.1,0c0.2,0.1,0.4,0.1,0.6,0.2c0,0,0.1,0,0.1,0
		c0.2,0.1,0.4,0.1,0.6,0.2c0,0,0.1,0,0.1,0c0.2,0.1,0.4,0.1,0.6,0.2c0,0,0.1,0,0.1,0c0.2,0.1,0.4,0.1,0.6,0.2c0,0,0.1,0,0.1,0
		c0.2,0.1,0.4,0.2,0.5,0.2c0,0,0.1,0,0.1,0c0.2,0.1,0.4,0.2,0.5,0.3c0,0,0.1,0,0.1,0c0.2,0.1,0.3,0.2,0.5,0.3c0,0,0.1,0,0.1,0
		c0.2,0.1,0.3,0.2,0.5,0.3c0,0,0,0,0.1,0c0.2,0.1,0.3,0.2,0.4,0.3c0,0,0,0,0.1,0c0.1,0.1,0.3,0.2,0.4,0.3c0,0,0,0,0.1,0
		c0.1,0.1,0.3,0.2,0.4,0.3c0,0,0,0,0,0c0.1,0.1,0.2,0.2,0.3,0.3c0,0,0,0,0,0c0.1,0.1,0.2,0.2,0.3,0.4c0,0,0,0,0,0
		c0.1,0.1,0.2,0.3,0.2,0.4c0,0,0,0,0,0c0,0.1,0.1,0.1,0.1,0.2c0,0,0,0,0,0c0,0.1,0.1,0.1,0.1,0.2c0,0,0,0,0,0c0,0.1,0.1,0.3,0.1,0.4
		l6.7,2.1l0.9,1.2c0.4,0.3,0.8,0.6,1.2,1c0,0,0,0,0,0c0.2,0.2,0.4,0.3,0.5,0.5c0,0,0,0,0.1,0.1c0.2,0.2,0.3,0.4,0.5,0.5
		c0,0,0,0,0.1,0.1c0.2,0.2,0.3,0.4,0.5,0.6c0,0,0,0,0,0c0.5,0.7,0.8,1.5,1.1,2.4l1.1,1.5v7.5l1.3,5.5c0,0-2,4.7-5.3,4.7
		c0,0,0,0,0,0.1c0,0,0,0,0.1,0.1c0,0,0,0,0.1,0.1c0,0,0.1,0.1,0.1,0.2c0,0,0,0,0,0.1c0.8,1,2.9,4,3.7,7.8c0,0.1,0,0.1,0,0.2
		c0.1,0.3,0.1,0.6,0.2,0.9v0v0l0.2,0.5l-0.1,1.1c0,0,0,0,0,0c0,0,0,0,0,0c0,0.5,0,0.9,0,1.4c0,0.2,0,0.4,0,0.6c0,0.2,0,0.3-0.1,0.5
		c-0.1,0.4-0.1,0.8-0.2,1.2l7.3,3.3l5.3,4.7c0,0,0,0.1,0.1,0.1c0,0,0,0,0,0c0.4,0.7,2.1,3.4,3.3,6l0.4,0.5l1.8,3.7
		c0.1,0,0.3,0.1,0.4,0.1c0,0,0,0,0,0c0.1,0,0.3,0.1,0.4,0.1c0,0,0,0,0.1,0c0.1,0,0.3,0.1,0.5,0.1c0,0,0,0,0.1,0
		c0.2,0,0.3,0.1,0.5,0.1c0,0,0,0,0,0l3.7,0.4l5.9-1.8l2.7-0.8l13.3-0.7c0,0,6.7-8.7,4-15.3c0,0-3.3-4.7,0.7-5.3c0,0,1-1,1.1-2.5
		C180.1,207.1,179.9,205.9,178.9,204.6z"/>
</g>
</svg>
