<?xml version="1.0" encoding="utf-8"?>
<!-- Generator: Adobe Illustrator 24.3.0, SVG Export Plug-In . SVG Version: 6.00 Build 0)  -->
<svg version="1.1" id="圖層_1" xmlns="http://www.w3.org/2000/svg" xmlns:xlink="http://www.w3.org/1999/xlink" x="0px" y="0px"
	 viewBox="0 0 155 83" style="enable-background:new 0 0 155 83;" xml:space="preserve">
<style type="text/css">
	.st0{fill:#F2AD11;}
	.st1{fill:#FFFFFF;}
</style>
<g>
	<path class="st0" d="M36.5,81.2c-5.3,0-11.2-4.6-11.3-4.7c-1-0.5-1.8-0.7-2.6-0.7c-0.9,0-1.7,0.3-2.3,0.9L20,76v-4.8l-5.9-4.4
		l-4.3-6l-1.1-4l-4-3.6c-0.5-2-2.3-3.7-3.7-4.9c-0.5-2.1,0.9-2.5,1.1-2.6h0.1l0.1-0.1c2.6-4.1,3.3-7.2,2.2-9.2
		c-0.9-1.6-2.6-1.9-3.4-2c0.1-1,0.5-1.4,1.3-1.4c0.5,0,0.9,0.2,0.9,0.2c0.5,0.1,0.9,0.1,1.3,0.1c4.4,0,4.9-3.6,4.9-3.7
		c0-3.2,1.1-3.5,1.1-3.5L11,26v-0.5c-0.2-0.6-0.2-1.2,0-1.5c0.2-0.4,0.6-0.5,0.6-0.5l0.5-0.1L11.8,23c-0.4-0.6-0.5-1.2-0.4-1.7
		c0.3-0.9,1.5-1.4,2-1.5l0.2-0.1l0.6-2.8c2-2.5,2.6-4.1,2.7-4.5c0,0,0,0,0.1,0c0.3,0,0.7,0.2,0.8,0.3l1.7,0.6l0.8,0.3l-1.7-3.7
		l2.8-4.3L24,7.8l3.2,3.8l3.2,5.1l3.4,3.1l4.1,0.8l7.8,5.1h0.1c3.5,0.5,6.8,2,7.6,2.3c0.2,1,1.1,2.1,3.5,2.1c1.5,0,2.8-0.4,2.9-0.4
		h0.1l0,0c0.6-0.4,1.2-0.6,1.9-0.6c1.3,0,2.3,0.8,2.3,0.8c0.9,0.7,1.7,1.1,2.5,1.1c2.9,0,3.2-5.2,3.3-5.4c0-3.1,1.5-3.4,1.6-3.4
		l6.9,0.5l4.2,1.6l2.3,2c0.3,2.9,2.3,3.3,3.5,3.3c0.7,0,1.2-0.1,1.2-0.1h0.2l0.1-0.2c0.9-1.8,4.1-3.7,4.8-4.1
		c0.3,0.1,0.7,0.2,1.1,0.2c2.5,0,5.5-2.4,5.6-2.5l0.1-0.1v-0.1c0.4-1.4,3.1-3.3,4.3-4c0.2,0.1,0.5,0.1,0.8,0.1c2,0,4.7-2,4.8-2.1
		l0.1-0.1v-0.2c0.2-2,1.7-3.3,1.8-3.3c0.7-0.8,1.3-1.2,1.8-1.2c0.9,0,1.4,1.1,1.4,1.1c1,1.3,2.2,1.3,2.2,1.3h0.4V14
		c0-1.2,1.9-3.3,2.6-4.1l0.2-0.2l-0.1-0.2C121.3,8,122.3,6,122.3,6l0.3-0.6l5.1-0.3l4.4-1.1l1.6-0.9c0.5,1.1,1.8,4.5,1.4,6.1v0.1
		v0.1c0,0.1,0.6,2.6,4.5,2.7c0.6,0.7,3.1,3.5,6.7,3.5h0.1l0.1-0.1c0,0,3.4-2.1,5.2-2.1c0,0,2.8,0.7,2.9,3.1
		c-0.2,0.4-1.1,2.4-1.1,4.9l-1.5,2.8l-4.5,3.7l-2.3,2.3v5.3l-3.1,1.3l-2.3,3.6c-0.7-0.7-2.2-1.2-4.7-1.2c-2.4,0-4.8,0.5-5.8,0.7
		c-0.3-1.5-1.2-1.7-1.7-1.7c-1,0-2,0.7-2,0.8l-0.2,0.1v0.2c0.1,1.4-0.1,2.4-0.7,3c-0.4,0.5-1,0.6-1.4,0.6c-0.1,0-0.1,0-0.2,0
		c-0.8-1.4-1.9-2.1-3.3-2.1c-2.5,0-5.1,2.2-5.7,2.8c-0.6-0.1-1.1-0.1-1.7-0.1c-4.4,0-6.2,1.9-6.7,2.6c-0.5-0.1-1.1-0.1-1.6-0.1
		c-7.4,0-9.6,5.6-10.1,7c-6.3,0.5-11.2,6.4-12.1,7.5c-0.4,0-0.8-0.1-1.2-0.1c-7.4,0-16.1,7.1-16.5,7.4c-0.8,1-4,1.5-8.7,1.5
		c-2.2,0-4-0.1-4-0.1l-0.2,0.7c0.7,0.3,1.2,0.8,1.4,1.5c0.6,2.3-1.8,5.8-1.9,5.9v0.1v0.1c-0.7,2.7-6.8,3.7-12.3,3.7
		c-0.4,0-0.7,0-0.7,0C37.2,81.1,36.9,81.2,36.5,81.2z"/>
	<path class="st1" d="M133.4,3.7c0.6,1.5,1.6,4.2,1.2,5.5v0.2v0.2c0,0.1,0.7,2.9,4.7,3c0.8,0.9,3.4,3.5,6.8,3.5h0.2l0.2-0.1
		c0.9-0.6,3.5-2,4.9-2c0.5,0.1,2.5,0.8,2.6,2.6c-0.3,0.6-1,2.5-1.1,4.8l-1.5,2.7l-4.5,3.7l0,0l0,0l-2.2,2.2l-0.2,0.2v0.3v3.2v1.7
		l-2.8,1.2l-0.2,0.1l-0.1,0.2l-2,3.1c-0.9-0.6-2.3-1.1-4.6-1.1c-2.2,0-4.4,0.4-5.5,0.6c-0.4-1.5-1.5-1.6-2-1.6
		c-1.1,0-2.1,0.8-2.3,0.9l-0.3,0.2v0.4c0.1,1.3-0.1,2.2-0.6,2.7c-0.3,0.4-0.8,0.4-1.1,0.4c-1-1.7-2.4-2.1-3.5-2.1
		c-2.5,0-5.1,2.1-5.9,2.8c-0.5,0-1.1-0.1-1.6-0.1c-4.2,0-6.2,1.8-6.8,2.6c-0.5,0-1-0.1-1.4-0.1c-7.3,0-9.7,5.3-10.3,7
		c-6.1,0.6-10.8,6-12,7.5c-0.4,0-0.7-0.1-1.1-0.1c-7.5,0-16.3,7.2-16.7,7.5h-0.1v0.1C63.4,68,62.1,69,55.4,69c-2.2,0-4-0.1-4-0.1
		L51,70.3c0.6,0.3,1,0.7,1.1,1.3c0.5,1.8-1.1,4.6-1.8,5.5l-0.1,0.1v0.1c-0.6,2.5-6.8,3.4-11.9,3.4c-0.4,0-0.7,0-0.7,0h-0.1h-0.1
		c-0.3,0-0.7,0.1-1,0.1c-5.2,0-11-4.5-11.1-4.6h-0.1h-0.1c-1-0.5-1.9-0.7-2.7-0.7c-0.8,0-1.6,0.2-2.2,0.7L20.1,76v-4.5V71L20,70.8
		l-5.7-4.3l-4.2-5.9l-1-3.8L9,56.6l-0.2-0.1L5.1,53c-0.5-2-2.3-3.7-3.7-4.9c-0.3-1.6,0.7-2,0.8-2L2.5,46l0.2-0.2
		c2.7-4.2,3.4-7.4,2.3-9.5c-0.8-1.5-2.4-2-3.3-2.2c0.2-0.7,0.6-0.7,0.9-0.7c0.4,0,0.7,0.1,0.7,0.1l0,0h0.1h0.1
		c0.5,0.1,0.9,0.1,1.3,0.1c3.8,0,5.1-2.6,5.3-4v-0.1v-0.1c0-2.2,0.6-2.9,0.8-3l0.9-0.1l-0.3-0.9c-0.2-0.5-0.2-1,0-1.2
		c0.1-0.3,0.4-0.3,0.4-0.3l0,0l1.1-0.2l-0.6-0.9c-0.4-0.5-0.5-1-0.3-1.3c0.3-0.7,1.3-1.2,1.7-1.3l0.4-0.1l0.1-0.4l0.5-2.5
		c1.7-2.1,2.3-3.6,2.6-4.2c0.1,0,0.3,0.1,0.4,0.2l0.1,0.1H18l1.6,0.5l1.7,0.6l-0.7-1.6l-1.3-2.7l2.5-3.8l2.1,2l3.2,3.7l3.2,5.1
		l0.1,0.1l0.1,0.1l3.2,3l0.2,0.1h0.2l3.9,0.8l7.7,5.1l0.1,0.1H46c3.2,0.4,6.3,1.8,7.3,2.2c0.3,1,1.2,2.3,3.8,2.3
		c1.5,0,2.9-0.4,3-0.4h0.1l0.1-0.1c0.5-0.4,1.1-0.5,1.6-0.5c1.2,0,2,0.7,2.1,0.8c1,0.8,1.9,1.2,2.7,1.2c3.1,0,3.6-5.2,3.6-5.8l0,0
		l0,0c0-2.5,1-2.9,1.2-3l6.8,0.5l4.1,1.5l2.1,1.9c0.3,2.2,1.7,3.5,3.9,3.5c0.7,0,1.3-0.1,1.3-0.2l0.3-0.1l0.2-0.3
		c0.7-1.5,3.3-3.1,4.5-3.8c0.3,0.1,0.7,0.1,1.1,0.1c2.6,0,5.7-2.4,5.8-2.5l0.2-0.1l0.1-0.2c0.3-1.1,2.5-2.8,4-3.7
		c0.2,0.1,0.5,0.1,0.7,0.1c2.1,0,4.8-2,5.1-2.2l0.2-0.2v-0.3c0.2-1.8,1.6-3,1.6-3h0.1V14c0.6-0.7,1.1-1,1.5-1c0.6,0,1,0.9,1,0.9V14
		v0.1c0.8,1.1,2,1.4,2.5,1.4h0.8V14c0-0.9,1.5-2.8,2.5-3.8l0.3-0.3L122,9.4c-0.4-1.1,0.2-2.7,0.5-3.2l0.2-0.4h0.3l4.6-0.3h0.1h0.1
		l4.3-1.1h0.1l0.1-0.1L133.4,3.7 M124.3,0.6l-2.5,5.3c0,0-1.1,2.2-0.5,3.8c0,0-2.7,2.7-2.7,4.3c0,0-1.1,0-1.9-1.1
		c0,0-0.6-1.3-1.7-1.3c-0.6,0-1.3,0.3-2.1,1.3c0,0-1.6,1.4-1.9,3.5c0,0-2.7,2-4.6,2c-0.3,0-0.6,0-0.8-0.2c0,0-4.1,2.4-4.6,4.3
		c0,0-3,2.4-5.4,2.4c-0.4,0-0.8-0.1-1.1-0.2c0,0-4.1,2.2-5.1,4.3c0,0-0.5,0.1-1.1,0.1c-1.2,0-3-0.5-3.2-3.1l-2.4-2l-4.3-1.6l-7-0.5
		c0,0-1.9,0.3-1.9,3.8c0,0-0.4,5.1-2.9,5.1c-0.6,0-1.4-0.3-2.2-1c0,0-1.1-0.9-2.5-0.9c-0.6,0-1.3,0.2-2.1,0.7c0,0-1.4,0.4-2.8,0.4
		s-2.9-0.4-3.2-2c0,0-3.8-1.9-7.8-2.4l-7.8-5.1L34,19.4l-3.2-3l-3.2-5.1l-3.2-3.8l-2.8-2.6l-3.2,4.9l1.4,3.1l-1.6-0.5
		c0,0-0.6-0.4-1-0.4c-0.2,0-0.3,0.1-0.4,0.2c0,0-0.4,1.6-2.7,4.5l-0.5,2.7c0,0-3.6,1.1-1.8,3.8c0,0-1.6,0.4-0.9,2.5
		c0,0-1.4,0.2-1.4,3.8c0,0-0.5,3.3-4.6,3.3c-0.4,0-0.8,0-1.2-0.1c0,0-0.5-0.2-1-0.2c-0.8,0-1.7,0.4-1.7,2.2c0,0,7.9,0,1.3,10.6
		c0,0-2,0.6-1.3,3.2c1.4,1.1,3.3,3,3.7,4.9l4,3.6l1.1,4l4.3,6.1l5.8,4.3v4.7l3.6,7.2l-3-5.9c0.5-0.6,1.2-1.2,2.4-1.2
		c0.6,0,1.4,0.2,2.4,0.6c0,0,6,4.8,11.5,4.8c0.4,0,0.7,0,1.1-0.1c0,0,0.3,0,0.7,0c2.6,0,11.7-0.3,12.7-4c0,0,4.3-6.1,0.4-7.9
		c0,0,1.8,0.1,4,0.1c3.4,0,7.8-0.3,8.9-1.6c0,0,8.9-7.3,16.2-7.3c0.5,0,1,0,1.4,0.1c0,0,5.4-7.2,12.3-7.6c0,0,1.6-6.9,9.8-6.9
		c0.6,0,1.1,0,1.8,0.1c0,0,1.5-2.6,6.5-2.6c0.6,0,1.2,0,1.8,0.1c0,0,3-2.8,5.6-2.8c1.2,0,2.3,0.5,3,2.1c0,0,0.2,0,0.4,0
		c0.9,0,2.7-0.4,2.4-4c0,0,0.9-0.7,1.8-0.7c0.7,0,1.3,0.4,1.4,1.8c0,0,3.1-0.7,6.1-0.7c2.5,0,4.9,0.5,5.1,2.5l0.1,0.1l-0.4-1.3
		l2.4-3.8l3.2-1.4v-2.2v-3.2l2.2-2.2l4.6-3.8l1.6-3c0-2.7,1.1-4.9,1.1-4.9c0-2.7-3.2-3.5-3.2-3.5c-1.9,0-5.4,2.2-5.4,2.2
		c-3.8,0-6.5-3.5-6.5-3.5c-3.8,0-4.3-2.4-4.3-2.4c0.5-2.2-1.6-6.8-1.6-6.8l-1.9,1.1l-4.3,1.1L123.2,5l1.1-2.2
		C124.5,2.3,124.5,1.5,124.3,0.6L124.3,0.6z"/>
</g>
</svg>
