<?xml version="1.0" encoding="utf-8"?>
<!-- Generator: Adobe Illustrator 24.3.0, SVG Export Plug-In . SVG Version: 6.00 Build 0)  -->
<svg version="1.1" id="圖層_1" xmlns="http://www.w3.org/2000/svg" xmlns:xlink="http://www.w3.org/1999/xlink" x="0px" y="0px"
	 viewBox="0 0 143 176" style="enable-background:new 0 0 143 176;" xml:space="preserve">
<style type="text/css">
	.st0{fill:#F2AD11;}
	.st1{fill:#FFFFFF;}
	.st2{fill:url(#SVGID_1_);}
	.st3{fill:url(#SVGID_2_);}
	.st4{fill:url(#SVGID_3_);}
</style>
<g>
	<g>
		<path class="st0" d="M38.7,175.4c-0.6,0-1.2-0.5-1.4-0.7l-7.6-5.1l-8.9-10.2c-3.3-3.8-3.6-5.6-3.6-6.1l0.3-0.3
			c-1.2-1.8-2.7-4.1-3.8-5.1c-0.1-0.6-0.3-2.8-0.3-4.4c0.6-1.8,1.5-6.2-1.5-10.3c0.1-0.2,0.4-0.6,0.8-1l0.1-0.2l-0.1-0.2
			c-1.9-4.3-4.9-9.1-5.5-10c0.4-1.3-0.3-5-0.6-6.2v-0.1v-0.1c-1.7-2.8-1.9-7-1.9-7v-0.2l-0.2-0.1c-2-1-2.7-4.6-2.7-4.6
			c-0.3-1.2-0.8-3.4-1.1-4.8L2.2,99l4.6-0.7l5.3,2.5l3.4,1.9l3.3-2.2l4.9,1.8l6-0.4l3-3l3.5-2.1l2.9-0.4l0.1-0.1
			c0.2-0.2,4.6-5.4,4.1-9.8l2-1l0.1-0.1c0.1-0.1,7.1-8.9,11.2-8.9h0.6l-0.3-0.6c0,0-0.2-0.4,0-1.1c0.3-0.9,1.4-2.4,4.9-4.2h0.1
			l0.1-0.1c0.3-0.4,6.8-10.4,8.7-16.2l7.8-6.3l-2.2-1.9l2.4-3.4L78,38.6l-0.4-2.9l-1-3.5c0.6-0.6,1.9-1.9,2.8-1.9c0,0,0.4,0,0.8,0
			c2.7,0,4.4,0.6,4.5,1.5h0.7c0,0,0.7-3.3,2.9-3.3h0.2l6.9-6.9l4.6-2.5c0.2-0.1,5.2-2.6,7-6.7c0-0.1,1-3.7,3.2-5.5l0,0l0,0
			c0,0,0,0,0.1-0.1h0.2V6.6l0.1-0.1c0.1-0.1,0.2-0.1,0.3-0.2c0.1-0.1,0.2-0.1,0.3-0.2c0.1-0.1,0.2-0.1,0.3-0.1c0,0,0.2-0.1,0.3-0.1
			l0.3-0.1c0.1,0,0.2,0,0.3,0h0.1l0.3-0.3l0.5-0.4l1.2-0.8l0.9-0.6c0.2-0.1,0.7-0.4,0.7-0.4l0.6-0.3c0.2-0.1,0.6-0.4,0.6-0.4
			l0.7-0.4l0.6-0.3c0.2-0.1,0.8-0.4,0.8-0.4l0.6-0.3c0.3-0.1,0.5-0.2,0.7-0.3c0,0,0.5-0.2,0.7-0.3l1-0.3c0.2-0.1,0.5-0.2,0.7-0.2
			h0.2c0.3-0.1,0.4-0.1,0.6-0.2l0.2-0.1c0.2-0.1,0.5-0.1,0.7-0.2c1.2-0.2,2.3-0.4,3.3-0.4c1.5,0,3,0.3,4.3,0.8l3.8,3.5l0.1,0.1
			l2.1,3.1l-0.5,3.9c-1.3,0.2-6,1.3-6,5.7v0.1v0.1c0.1,0.1,1.5,3.1,6.9,3.2l2.4,3.4l1.3,0.7l-1.1,1.8c-0.4,0.3-3,2.2-4.5,3.4
			l-3.8,0.3l-0.1,0.1c-0.1,0.1-3.5,2.5-4.9,5.5l-7,4.3l0,0c-0.1,0.1-1.7,2-1.7,4l-0.9,2.9l0.2,0.2c0,0,0.8,0.5,0.8,1.2
			c-0.1,0.6-0.9,1.3-2.3,1.9l-0.2,0.1l-0.5,3l-3.2,1.6l0.7,0.3c0.1,0,1.4,0.8,1.4,2.9v5.1l-0.5,3.6c-0.5,0.4-1.9,1.8-1.4,5.7v0.1
			v0.1c0,0,1,2,0,3.4l-0.1,0.1l-0.3,4.3h-2.3l-0.1,0.2c0,0-2.7,4-4.5,5.9l0,0c0,0-2.5,1.8-0.7,4.9c-0.4,0.8-1.5,3.8,0.8,6.3
			c-0.2,0.7-0.4,2.5,2.4,4.8c0,0,2.8,2.1,2.3,5.1l0,0c0,0,0,0.2-0.1,0.5l-4-2.5h-0.1c-0.2,0-0.4-0.1-0.6-0.1c-2.6,0-3.6,2.7-3.8,4.1
			c-0.6,1.3-1.2,1.9-2,1.9c-0.9,0-1.7-0.9-1.9-1.1c-0.4-2.9-6.2-4.5-7.2-4.8c-1.1-1.2-2.1-1.9-3-1.9c-1.4,0-1.9,1.5-1.9,1.6
			c-0.8,1.3-2,2-3.5,2c-1.1,0-2-0.4-2.3-0.5c-0.4-0.9-1.3-1.9-3.6-1.9c-2.4,0-5.2,1.1-5.7,1.3c-6.7,0.3-7.5,4.8-7.6,5.8
			c-2.2,1.5-7.3,1.8-10.1,1.8c-1.3,0-2.2,0-2.2,0c-0.2,0-0.5-0.1-0.8-0.1c-0.9,0-1.7,0.3-2.3,0.9c-1.6,1.6-1.4,4.8-1.4,4.9l-1.6,8.1
			v0.1c1.5,3.8-0.2,6.7-0.2,6.7v0.1l-1.1,4.3c-2.7,2.3-1.3,6.7-0.9,7.7c-2.3,3.2,0.5,10.7,0.6,11c0.8,1.6-0.8,5.5-1.6,6.9l-3.6,3
			l-0.6,3.3l2.7,3.9l0,0l-1.1-0.4l-0.1,0.4C39.7,174.9,39.3,175.4,38.7,175.4z"/>
		<path class="st1" d="M128.5-0.2c1.5,0,2.8,0.2,4.1,0.7l3.7,3.3l0.1,0.1l2,3v0.3l-0.4,3.2c-2.4,0.4-6,2-6,6.1v0.2l0.1,0.1
			c0.1,0.1,1.5,3.3,7,3.4l2.2,3.2l0.1,0.2l0.2,0.1l0.9,0.4l-0.8,1.3c-0.6,0.4-2.9,2.1-4.3,3.3l-3.5,0.3h-0.2l-0.2,0.1
			c-0.1,0.1-3.5,2.5-5,5.5l-6.8,4.2l-0.1,0.1l-0.1,0.1c-0.1,0.1-1.7,2.1-1.8,4.2l-0.8,2.6l-0.2,0.5l0.5,0.3c0.1,0.1,0.6,0.5,0.6,0.9
			c0,0.2-0.2,0.8-2.1,1.6l-0.4,0.2l-0.1,0.4l-0.5,2.6l-2.4,1.2l-1.3,0.7l1.3,0.7c0,0,1.2,0.7,1.2,2.6v5.1L115,66
			c-0.6,0.6-1.9,2.2-1.4,5.9V72l0.1,0.1c0,0,0.9,1.8,0,3l-0.1,0.2v0.2l-0.2,3.9h-1.7h-0.4l-0.2,0.3c0,0-2.6,3.9-4.5,5.8
			c-1,0.7-2.3,2.6-0.9,5.2c-0.6,1.5-1.1,4.2,0.8,6.4c-0.2,0.9-0.1,2.8,2.6,5c0,0,2.6,1.9,2.1,4.6l0,0l-3.5-2.1l-0.1-0.1h-0.1
			c-0.2,0-0.5-0.1-0.7-0.1c-2.8,0-4,2.8-4.2,4.4c-0.3,0.8-0.9,1.6-1.6,1.6c-0.6,0-1.3-0.6-1.6-0.9c-0.6-3-6-4.6-7.3-4.9
			c-1.1-1.3-2.2-1.9-3.2-1.9c-1.3,0-2,1-2.2,1.7c-0.8,1.2-1.9,1.8-3.2,1.8c-0.9,0-1.7-0.3-2-0.4c-0.5-1-1.5-2-3.9-2s-5.1,1-5.7,1.3
			c-5.8,0.3-7.7,3.8-7.9,6c-1.7,1-5.2,1.6-9.7,1.6c-1.1,0-1.9,0-2.1,0c-0.3-0.1-0.6-0.1-0.8-0.1c-1,0-1.9,0.4-2.5,1.1
			c-1.5,1.6-1.6,4.5-1.5,5.1l-1.6,8v0.2l0.1,0.2c1.4,3.6-0.1,6.2-0.2,6.3l-0.1,0.1v0.1l-1,4.1c-2.6,2.4-1.4,6.6-1,7.9
			c-2.2,3.4,0.4,10.4,0.7,11.2l0,0l0,0c0.6,1.3-0.6,4.6-1.5,6.5l-3.4,2.9l-0.2,0.2v0.3l-0.5,3l-0.1,0.3l0.2,0.3l2,2.9l-0.5-0.2
			l-0.2,0.8c-0.1,0.6-0.4,1.3-0.8,1.3c-0.4,0-1-0.4-1.2-0.6l0,0H38l-7.5-5L21,159.2c-3.8-4.3-3.5-5.9-3.4-5.9v0.1l-0.2-0.1l0.4-0.4
			c-1.6-2.5-2.9-4.2-3.8-5.1c-0.1-0.7-0.3-2.7-0.3-4.1c0.6-1.8,1.4-6.2-1.4-10.4c0.1-0.2,0.3-0.5,0.6-0.8l0.3-0.4l-0.2-0.4
			c-1.9-4.2-4.7-8.7-5.5-9.9c0.3-1.4-0.3-4.4-0.6-6.2v-0.1l-0.1-0.1c-1.7-2.7-1.9-6.8-1.9-6.8v-0.4L4.5,108
			c-1.5-0.7-2.3-3.4-2.5-4.3l0,0l0,0c-0.3-1.1-0.7-2.9-1-4.2l1,0.1h0.1h0.1l4.5-0.7l5.2,2.4l3.2,1.8l0.4,0.2l0.4-0.3l2.9-2l4.7,1.7
			l0.1,0.1h0.2l5.8-0.4h0.3l0.2-0.2l2.8-2.8l3.4-2l2.7-0.3h0.3l0.2-0.2c0.2-0.2,4.5-5.3,4.2-9.8l1.7-0.8l0.1-0.1l0.1-0.1
			c1.9-2.4,7.7-8.7,10.9-8.7h1.3l-0.6-1.1c0,0-0.8-2,4.7-4.7l0.2-0.1l0.1-0.2c0.3-0.4,6.8-10.4,8.7-16.2l7.4-6l0.7-0.6l-0.7-0.6
			l-1.6-1.4l2.1-3l0.2-0.3l-0.1-0.3l-0.3-1.7L78.2,39l-0.4-2.9V36v-0.1l-1-3.2c0.7-0.7,1.8-1.6,2.5-1.6c0,0,0.3,0,0.8,0
			c2.4,0,4.1,0.5,4.2,1.2h1.5c0,0,0.6-3,2.5-3h0.3l0.2-0.2l2.9-2.9l3.9-3.9l4.6-2.5c0.2-0.1,5.3-2.7,7.2-6.8v-0.1v-0.1
			c0,0,1-3.5,3-5.3l0,0l0,0l0,0l0,0l0.2-0.2c0.1,0,0.1-0.1,0.2-0.1l0,0l0,0c0.1-0.1,0.2-0.1,0.2-0.1l0,0l0,0c0.1,0,0.2-0.1,0.2-0.1
			l0,0l0,0c0.1,0,0.1-0.1,0.2-0.1h0.1c0.1,0,0.1,0,0.2-0.1h0.1h0.1h0.1h0.1c0.1,0,0.2,0,0.3,0h0.2l0.2-0.2l0,0l0,0h0.1l0,0l0,0
			l0.1-0.1l0,0l0,0l0.2-0.1l0,0l0,0l0.1-0.1l0,0l0,0l0,0l0,0l0,0l0.3-0.2l0,0l0,0l0.1-0.1l0.2-0.1l0.1-0.1h0.1l0.3-0.2l0.1-0.1
			l0.2-0.2h0.1h0.1l0,0h0.1l0.2-0.1h0.1l0.1-0.1l0.1-0.1c0.2-0.1,0.3-0.2,0.5-0.3l0.1-0.1h0.1l0.3-0.2h0.1l0.2-0.1
			c0.2-0.1,0.4-0.2,0.5-0.3l0,0l0,0h0.1h0.1c0.1-0.1,0.3-0.2,0.4-0.2l0.1-0.1h0.1c0.1-0.1,0.3-0.2,0.4-0.2h0.1h0.1
			c0.2-0.1,0.4-0.2,0.6-0.3l0.2-0.1c0.1-0.1,0.3-0.1,0.4-0.2l-0.3-0.7l0.4,0.6l0,0h0.1c0.2-0.1,0.4-0.2,0.7-0.3h0.1h0.1
			c0.2-0.1,0.3-0.1,0.5-0.2l0.2-0.1h0.1c0.2-0.1,0.4-0.1,0.5-0.2h0.1h0.1c0.2-0.1,0.5-0.1,0.7-0.2l0.2-0.1c0.2,0,0.3-0.1,0.5-0.1
			l0.2-0.1c0.2-0.1,0.5-0.1,0.7-0.2C126.4-0.1,127.5-0.2,128.5-0.2 M128.5-1c-1.1,0-2.3,0.1-3.4,0.4c-0.3,0.1-0.5,0.1-0.7,0.2
			c-0.1,0-0.2,0-0.3,0.1c-0.2,0-0.4,0.1-0.5,0.1s-0.2,0-0.2,0.1c-0.2,0.1-0.5,0.1-0.7,0.2c-0.1,0-0.1,0-0.2,0.1
			c-0.2,0.1-0.4,0.1-0.5,0.2c-0.1,0-0.2,0.1-0.3,0.1c-0.2,0.1-0.4,0.1-0.5,0.2c-0.1,0-0.1,0-0.2,0.1c-0.2,0.1-0.5,0.2-0.7,0.3
			c-0.1,0-0.1,0-0.2,0.1H120c-0.2,0.1-0.3,0.1-0.4,0.2c-0.1,0-0.2,0.1-0.2,0.1c-0.2,0.1-0.4,0.2-0.6,0.3c-0.1,0-0.1,0.1-0.2,0.1
			c-0.3,0-0.4,0.1-0.6,0.1c-0.1,0-0.2,0.1-0.2,0.1c-0.1,0.1-0.3,0.2-0.4,0.2l-0.1,0.1l0,0c-0.2,0.1-0.4,0.2-0.5,0.3
			c-0.1,0-0.1,0.1-0.2,0.1c-0.1,0.1-0.3,0.1-0.4,0.2l0,0c-0.1,0-0.1,0.1-0.2,0.1c-0.2,0.1-0.3,0.2-0.5,0.3c-0.1,0-0.1,0.1-0.2,0.1
			c-0.1,0.1-0.2,0.1-0.3,0.2c0,0,0,0-0.1,0c0,0-0.1,0-0.1,0.1c-0.1,0.1-0.2,0.1-0.3,0.2l0,0c0,0-0.1,0-0.1,0.1
			c-0.1,0.1-0.2,0.2-0.3,0.2c-0.1,0-0.1,0.1-0.2,0.1s-0.1,0.1-0.2,0.1l-0.1,0.1l0,0c-0.1,0.1-0.2,0.1-0.3,0.2l0,0c0,0,0,0-0.1,0.1
			c-0.1,0-0.1,0.1-0.2,0.1l0,0c0,0,0,0-0.1,0s-0.1,0.1-0.2,0.1l0,0c-0.1,0-0.1,0.1-0.1,0.1l0,0l0,0c0,0,0,0-0.1,0.1l0,0l0,0
			c-0.1,0-0.2,0-0.4,0.1c-0.1,0-0.1,0-0.2,0s-0.1,0-0.2,0s-0.2,0.1-0.2,0.1h-0.1c-0.1,0-0.2,0.1-0.3,0.1c0,0,0,0-0.1,0
			s-0.2,0.1-0.3,0.1l0,0c-0.1,0.1-0.2,0.1-0.3,0.2l0,0c-0.1,0.1-0.2,0.1-0.3,0.2l0,0c-0.1,0.1-0.2,0.1-0.3,0.2l0,0
			c-2.2,2-3.2,5.7-3.2,5.7c-1.8,4-6.8,6.5-6.8,6.5L95.1,21l-4,4l-2.9,2.9c-2.5,0-3.2,3.6-3.2,3.6c-0.3-1.6-3.4-1.8-4.9-1.8
			c-0.5,0-0.8,0-0.8,0c-1.4,0-3.2,2.2-3.2,2.2l1.1,3.6l0.4,2.9l0.4,2.3l0.3,1.7L75.8,46l2.2,1.8l-7.6,6.1
			c-1.8,5.8-8.6,16.2-8.6,16.2c-6.5,3.2-5,5.8-5,5.8c-4.3,0-11.5,9-11.5,9L43.1,86c0.7,4.3-4,9.7-4,9.7L36,96.4l-3.6,2.2l-2.9,2.9
			l-5.8,0.4l-5-1.8l-3.2,2.2l-3.2-1.8L6.9,98l-4.7,0.7l-2-0.3c0.3,1.4,0.9,3.9,1.2,5.3c0,0,0.7,3.8,2.9,4.9c0,0,0.2,4.3,2,7.2
			c0,0,1.1,5.2,0.5,6.1c0,0,3.5,5.3,5.6,10.1c-0.6,0.7-0.9,1.3-0.9,1.3c3.1,4.2,2,8.7,1.5,10.3c0,1.9,0.3,4.6,0.3,4.6
			c1,0.9,2.7,3.4,3.8,5.1c-0.2-0.1-0.3-0.2-0.3-0.2s-0.7,1.8,3.6,6.7l9,10.3l7.6,5c0,0,0.8,0.8,1.7,0.8c0.6,0,1.2-0.4,1.6-1.9l1,0.3
			l0.2-0.6l-2.7-3.9l0.5-3l3.5-3c0,0,2.7-5.1,1.6-7.3c0,0-3-7.8-0.5-10.8c0,0-2.2-5.1,0.8-7.6l1.1-4.3c0,0,1.9-3,0.3-7l1.6-8.1
			c0,0-0.2-5.5,3.3-5.5c0.2,0,0.5,0,0.7,0.1c0,0,0.9,0.1,2.2,0.1c3,0,8.2-0.3,10.5-1.9c0,0,0-5.4,7.3-5.7c0,0,3-1.3,5.6-1.3
			c1.5,0,2.8,0.4,3.3,1.8c0,0,1.2,0.6,2.6,0.6c1.3,0,2.8-0.5,3.9-2.2c0,0,0.4-1.3,1.6-1.3c0.7,0,1.6,0.4,2.8,1.8c0,0,6.8,1.6,7,4.6
			c0,0,1,1.3,2.3,1.3c0.8,0,1.6-0.5,2.3-2.2c0,0,0.5-3.8,3.5-3.8c0.2,0,0.4,0,0.6,0l4.5,2.8c0-0.7,0.1-1.1,0.1-1.1
			c0.5-3.2-2.4-5.4-2.4-5.4c-3.2-2.7-2.2-4.6-2.2-4.6c-2.7-2.7-0.8-6.2-0.8-6.2c-1.9-3,0.5-4.6,0.5-4.6c1.9-1.9,4.6-5.9,4.6-5.9h2.4
			l0.3-4.6c1.1-1.6,0-3.8,0-3.8c-0.5-4.3,1.4-5.4,1.4-5.4l0.5-3.8v-5.1c0-2.4-1.6-3.2-1.6-3.2l2.7-1.4l0.5-3
			c4.6-1.9,1.6-3.8,1.6-3.8l0.8-2.7c0-1.9,1.6-3.8,1.6-3.8l7-4.3c1.4-3,4.9-5.4,4.9-5.4l3.8-0.3C139,28.1,142,26,142,26l1.4-2.2
			l-1.6-0.8l-2.4-3.5c-5.4,0-6.8-3-6.8-3c0-4.9,5.9-5.4,5.9-5.4l0.5-3.7l0.1-0.6l-2.2-3.2h0.1l-4-3.7C131.5-0.7,130-1,128.5-1
			L128.5-1z M111.7,107.9L111.7,107.9L111.7,107.9L111.7,107.9z"/>
	</g>
	<g>
		
			<linearGradient id="SVGID_1_" gradientUnits="userSpaceOnUse" x1="12.8029" y1="32.7" x2="13.0731" y2="32.7" gradientTransform="matrix(1 0 0 -1 0 176)">
			<stop  offset="0" style="stop-color:#976091"/>
			<stop  offset="1" style="stop-color:#EE8DAB"/>
		</linearGradient>
		<path class="st2" d="M12.8,144.1c0,0,0.1-0.2,0.2-0.5c0-0.4,0-0.8,0.1-1.1C13,143.1,12.8,144.1,12.8,144.1z"/>
		<path class="st1" d="M13.1,142.5c-0.1,0.6-0.3,1.6-0.3,1.6s0.1-0.2,0.2-0.5C13,143.1,13,142.7,13.1,142.5L13.1,142.5z"/>
	</g>
	<g>
		
			<linearGradient id="SVGID_2_" gradientUnits="userSpaceOnUse" x1="13.1183" y1="33.8947" x2="13.1478" y2="33.8947" gradientTransform="matrix(1 0 0 -1 0 176)">
			<stop  offset="0" style="stop-color:#976091"/>
			<stop  offset="1" style="stop-color:#EE8DAB"/>
		</linearGradient>
		<path class="st3" d="M13.1,142.2C13.2,141.9,13.2,142,13.1,142.2L13.1,142.2z"/>
		<path class="st1" d="M13.1,142c0,0,0,0.1,0,0.2C13.1,142.1,13.1,142,13.1,142L13.1,142z"/>
	</g>
	<g>
		
			<linearGradient id="SVGID_3_" gradientUnits="userSpaceOnUse" x1="13.1" y1="33.65" x2="13.1" y2="33.65" gradientTransform="matrix(1 0 0 -1 0 176)">
			<stop  offset="0" style="stop-color:#976091"/>
			<stop  offset="1" style="stop-color:#EE8DAB"/>
		</linearGradient>
		<path class="st4" d="M13.1,142.5L13.1,142.5c0-0.1,0-0.2,0-0.3C13.1,142.3,13.1,142.3,13.1,142.5z"/>
		<path class="st1" d="M13.1,142.2c0,0.1,0,0.1,0,0.2C13.1,142.3,13.1,142.2,13.1,142.2L13.1,142.2z M13.1,142.4L13.1,142.4
			C13.1,142.5,13.1,142.5,13.1,142.4L13.1,142.4L13.1,142.4z M13.1,142.5L13.1,142.5L13.1,142.5L13.1,142.5z"/>
	</g>
</g>
</svg>
