<?xml version="1.0" encoding="utf-8"?>
<!-- Generator: Adobe Illustrator 24.3.0, SVG Export Plug-In . SVG Version: 6.00 Build 0)  -->
<svg version="1.1" id="圖層_1" xmlns="http://www.w3.org/2000/svg" xmlns:xlink="http://www.w3.org/1999/xlink" x="0px" y="0px"
	 viewBox="0 0 23.4 14.4" style="enable-background:new 0 0 23.4 14.4;" xml:space="preserve">
<style type="text/css">
	.st0{fill:#F2AD11;}
	.st1{fill:#FFFFFF;}
</style>
<g>
	<polygon class="st0" points="5.8,12.7 4.1,8.4 1.1,5.3 1.4,3.3 1.4,2.6 5.8,2 14.5,2 18.7,1.3 21.9,1.9 22.4,4.4 22.4,6.2 13.5,11 
		11.2,13.3 	"/>
	<path class="st1" d="M18.7,2.3L21,2.7l0.4,1.7v1.1L13.1,10l-0.3,0.1l-0.2,0.2l-1.8,1.8l-4.3-0.5L5.1,8.2L5,7.8L4.7,7.5L2.1,5
		l0.2-1.5L5.9,3h5.3h3.2h0.2h0.2L18.7,2.3 M18.7,0.3L14.4,1h-3.2H5.8L0.4,1.7v1.4L0,5.7l3.2,3.2L5,13.6l6.5,0.7l2.5-2.5l9.4-5V4.3
		L22.7,1L18.7,0.3L18.7,0.3z"/>
</g>
</svg>
