<?xml version="1.0" encoding="utf-8"?>
<!-- Generator: Adobe Illustrator 24.3.0, SVG Export Plug-In . SVG Version: 6.00 Build 0)  -->
<svg version="1.1" id="圖層_1" xmlns="http://www.w3.org/2000/svg" xmlns:xlink="http://www.w3.org/1999/xlink" x="0px" y="0px"
	 viewBox="0 0 66 72" style="enable-background:new 0 0 66 72;" xml:space="preserve">
<style type="text/css">
	.st0{fill:#F2AD11;}
	.st1{fill:#FFFFFF;}
</style>
<g>
	<path class="st0" d="M60.2,72c-1.2-2.3-1.7-4.4-1.8-4.5v-0.1l-0.1-0.1C57,66.5,55.5,66,53.7,66c-1.6,0-2.9,0.4-3.3,0.5l-8.6-1.4
		l-11.2-2.2c-2-0.7-3.9-1-5.7-1c-3.2,0-5.2,1.1-6.5,2.1c-0.3-0.1-0.6-0.1-0.6-0.1c-0.6-0.2-1.2-0.2-1.8-0.2c-2.2,0-3.9,1.1-4.3,1.3
		c-0.3,0-0.7,0-1,0c-3.6,0-9.1-1.3-9.2-1.3c-0.2-0.1-0.5-0.3-0.6-0.6s0.2-0.6,0.2-0.6l0.4-0.4L1,61.9c-1.4-0.5-1.2-2-1.1-2.4
		c2-1,3.9-3.9,4-4L4.2,55l-0.5-0.1c-0.5-0.1-1-0.7-1.4-1.2l2.2-2.2v-0.1c1.6-3.7,3.7-6.7,3.7-6.8c1-1.7,2.7-2.6,2.8-2.6l0.2-0.1
		L11,39.5c1.4-0.2,2-1.3,2.1-1.9v-0.1L13,37.4c-1.3-2.9-0.1-3.7-0.1-3.7l0.1-0.1v-0.2c0.3-2.3,1.1-3.5,2.2-3.5
		c0.4,0,0.8,0.2,0.8,0.2l0.7,0.4l-0.2-0.8c-0.2-1-0.1-1.9,0.4-2.6C18.1,25.4,21,25,21,25h0.3l0.1-0.3c0.8-4.2,6.7-5.6,6.7-5.7
		L28,18.3l-2.6-0.1c1.3-2.1,0.9-4.2,0.8-4.6c0-2.1,2.2-3.8,2.2-3.8l0.1-0.1V9.5c0.2-1.4,2-2.8,2-2.8c2.7-2.3,5.8-4.9,5.8-4.9
		l0.2-0.2l0,0c1.4,1,2.5,2.4,2.8,3.7v0.1l4,3.6l1.1,3.9l4.4,6.2l5.7,4.2v4.6l3.6,7.2v6.6l4.9,3.1l-3.4,4.1l-0.7,5.2l0.7,4.5
		c-0.4,0.4-1.4,1.4-1.4,3V62l0.1,0.1c0,0,1.7,2.5,1.7,4.5V67h0.4c0,0,0.2,0,0.6,0c1.1,0,4.7,0.2,4.8,2.1
		C65.3,69.4,63.6,71.9,60.2,72z"/>
	<path class="st1" d="M36.8,2.1C38,3.3,38.7,4.4,39,5.4v0.3l0.2,0.2L43,9.3l1,3.8v0.1l0.1,0.1l4.3,6.1l0.1,0.1l0.1,0.1l5.5,4.1V28
		v0.2l0.1,0.2l0.6,1.3l2.9,5.8v6.3v0.4l0.3,0.2l4.3,2.8l-3.1,3.7l-0.1,0.2v0.2l-0.7,5v0.1v0.1l0.7,4.3c-0.5,0.5-1.4,1.6-1.4,3.2v0.2
		l0.1,0.2c0,0,1.7,2.4,1.7,4.2v0.8h0.8c0,0,0.2,0,0.6,0c0.7,0,4.1,0.1,4.4,1.6c-0.4,0.6-1.9,2.6-4.8,2.7c-1.1-2.1-1.6-4.1-1.6-4.2
		l-0.1-0.3L58.5,67c-1.3-0.9-2.9-1.3-4.8-1.3c-1.5,0-2.8,0.3-3.3,0.5l-1-0.2L42,64.7l-11.1-2.2c-2-0.7-4-1.1-5.8-1.1
		c-3.1,0-5.3,1.1-6.5,2.1c-0.2,0-0.3-0.1-0.4-0.1c-0.6-0.2-1.3-0.3-1.9-0.3c-2.2,0-3.9,1-4.5,1.3c-0.3,0-0.6,0-0.9,0
		c-3.4,0-8.4-1.1-9-1.3C1.5,63.2,1.5,63,1.5,63s0.1-0.2,0.1-0.3l0.8-0.8l-1.1-0.4c-1-0.4-0.9-1.3-0.9-1.8c2-1.1,3.9-3.9,3.9-4.1
		L5,54.7l-1.1-0.2c-0.3-0.1-0.7-0.4-1-0.8l1.9-1.9l0.1-0.1L5,51.5c1.6-3.7,3.7-6.7,3.7-6.7l0,0v-0.1c0.8-1.5,2.4-2.4,2.4-2.4
		l0.4-0.2v-0.5l-0.1-1.8c1.3-0.3,2-1.5,2.1-2.1l0.1-0.2l-0.1-0.2c-1.1-2.5-0.3-3.2-0.3-3.2l0,0l0.3-0.2v-0.3
		c0.2-1.2,0.6-3.2,1.9-3.2c0.3,0,0.6,0.1,0.6,0.1l0,0l1.5,0.8l-0.4-1.7c-0.2-0.9-0.1-1.7,0.3-2.3c1.1-1.6,3.9-2,3.9-2l0.5-0.1
		l0.1-0.5c0.8-4,6.4-5.3,6.5-5.4l-0.1-1.5l-2-0.1c1-2,0.6-3.8,0.5-4.3c0.1-1.9,2-3.4,2-3.5l0.3-0.2V9.4C29.3,8.5,30.6,7.3,31,7l0,0
		l0,0C33.6,4.7,36.5,2.4,36.8,2.1 M36,0.3c0.1,0.4,0.2,0.7,0.4,1.2c0,0-3.1,2.5-5.8,4.9c0,0-2,1.4-2.2,3.1c0,0-2.3,1.8-2.3,4.1
		c0,0,0.7,2.5-1.1,4.9l3.2,0.2c0,0-6.1,1.4-7,5.9c0,0-5.9,0.7-4.9,5.2c0,0-0.4-0.2-1-0.2c-0.9,0-2.2,0.6-2.6,3.8c0,0-1.4,0.9,0,4.1
		c0,0-0.4,1.6-2.2,1.6l0.2,2.5c0,0-1.8,0.9-2.7,2.7c0,0-2.2,3.1-3.8,6.8L2,53.6c0,0,0.9,1.4,1.8,1.6c0,0-2,3.1-4,4
		c0,0-0.7,2.3,1.3,3.1c0,0-1.1,1.1,0.5,1.8c0,0,5.5,1.3,9.3,1.3c0.4,0,0.8,0,1.2-0.1c0,0,1.8-1.3,4.2-1.3c0.5,0,1.1,0.1,1.7,0.2
		c0,0,0.3,0.1,0.7,0.2c1.1-0.9,3.1-2.1,6.4-2.1c1.6,0,3.4,0.3,5.6,1l11.2,2.2l7.5,1.2l1.2,0.2c0,0,1.4-0.5,3.2-0.5
		c1.4,0,3,0.3,4.3,1.2c0,0,0.5,2.4,1.9,4.8l0,0c4.2,0,6-3.3,6-3.3c0-2.3-3.7-2.5-5.2-2.5c-0.4,0-0.6,0-0.6,0c0-2.2-1.8-4.7-1.8-4.7
		c0-1.8,1.4-2.9,1.4-2.9l-0.7-4.7l0.7-5l3.6-4.3l-5-3.2v-6.5l-3-5.9L54.8,28v-4.7L49.1,19l-4.3-6.1l-1.1-4l-4-3.6
		C39.3,3.3,37.4,1.5,36,0.3L36,0.3z"/>
</g>
</svg>
