<?xml version="1.0" encoding="utf-8"?>
<!-- Generator: Adobe Illustrator 24.3.0, SVG Export Plug-In . SVG Version: 6.00 Build 0)  -->
<svg version="1.1" id="圖層_1" xmlns="http://www.w3.org/2000/svg" xmlns:xlink="http://www.w3.org/1999/xlink" x="0px" y="0px"
	 viewBox="0 0 122 216" style="enable-background:new 0 0 122 216;" xml:space="preserve">
<style type="text/css">
	.st0{fill:#F2AD11;}
	.st1{fill:#FFFFFF;}
</style>
<g>
	<path class="st0" d="M22.6,215.5c-0.3,0-0.6,0-0.8-0.1c-0.1-1.8-1.3-2.9-3.3-2.9c-0.6,0-1,0.1-1,0.1c-1.1,0-3.1-1.7-3.7-2.3
		l-0.4-0.4l-0.2,0.5c-0.2,0.5-0.5,0.7-0.9,0.7c-0.1,0-0.2,0-0.2,0c-0.1-1.1-0.6-2.3-0.8-2.7c0.4-1.1,0.5-1.8,0.2-2.3
		c-0.2-0.3-0.6-0.4-0.7-0.5c-1.8-1.1-2.7-2.2-2.7-3.2c0-1.1,1.4-1.8,1.4-1.8l0.1-0.1l0.1-0.1c0.8-1.7,0.9-3,0.3-4
		c-0.7-1.1-2.2-1.2-2.3-1.2c-2.2,0-3.8-1.7-3.8-1.8l0,0H3.8c-1.6-0.9-0.9-2.4-0.9-2.5c0.7-1.2,0.5-4.3,0.3-5.5
		c1.7-0.2,5.2-1.6,5.4-1.6l0.2-0.1v-0.2c0.3-2.8-3.2-6.9-3.3-7c-2.5-2.5-1.1-5.7-1-5.8v-0.1v-0.1c0-2.7-2.1-9-2.2-9.3
		c-2.8-4.4,0.3-8.7,0.5-8.8c1.3-2.3,1-5.3,0.9-6c2.9-3.2,5.6-7.7,5.6-7.8c0.8-1.7,0.5-3.4,0.2-4.3l4.3,0.5l0.1-0.3
		c0.7-1.7,3.5-2.2,3.5-2.2h0.1l2.2-2.2l6.2-1.4v-0.3c-0.2-2.7,0.9-4,1-4l0.1-0.1l-0.3-3.6l1.3-3.5v-0.1c0-3.8-4.9-5.2-5.8-5.5
		c-1.2-1.6-2-3.3-2.3-5v-0.4c0-0.1,0-0.2,0-0.4c0-0.2,0-0.3,0-0.4v-0.3v-0.4c0-0.2,0-0.3,0-0.4c0.6-3.5-2.4-5.7-2.6-5.8
		c-2.9-2.4-2.1-4-2.1-4.1l0.1-0.2L15.1,94c-2.5-2.5-0.8-5.6-0.7-5.8l0.1-0.2l0,0c-1.7-2.6,0.3-4,0.4-4.1c1.8-1.7,4-5.1,4.6-5.9h2.6
		l0.3-4.8c1-1.6,0.2-3.6,0-4c-0.5-3.9,1.2-5,1.2-5l0.2-0.1v-0.2l0.5-3.8v-5.2c0-1.7-0.7-2.7-1.3-3.2l2.3-1.2l0.5-3
		c1.6-0.7,2.5-1.5,2.6-2.4c0.1-0.8-0.5-1.5-0.9-1.7l0.8-2.5v-0.1c0-1.6,1.3-3.2,1.5-3.5l7.1-4.4v-0.1c1.2-2.6,4.1-4.8,4.7-5.2
		l3.8-0.3l0.1-0.1c1.3-1.1,3.5-2.7,4.3-3.3c0.7,0.9,3.2,4.1,3.2,8.7l0,0c0,0-0.3,1.4,0.7,2.7c0.8,1.1,2.2,1.8,4.3,2
		c1.6,0.4,6.2,1.9,7.3,3.6l1.6,1.9l0.3-0.1c0,0,2.6-1.3,5.1-1.3c0.5,0.4,3,2.7,3,5.8v0.2l0.1,0.1c0.8,0.6,2.7,2.6,2.3,3.9l-0.1,0.3
		l3.2,1.8l3.3,1.9h0.1c0,0,0.5,0,0.8,0.3c0.2,0.2,0.3,0.6,0.2,1.1V57l0.1,0.1c0,0,1.5,1.5,1,3.1l-0.2,0.6l0.6-0.1
		c0.2,0,4.2-0.8,5.1-3c0,0,0.1,0,0.2,0c1.4,0,4.8-0.2,4.8-2.5l-1.1-4.9l0,0c0,0-0.2-2.7,1.7-4.2c0.4-0.2,2.1-1.1,2.1-5.2
		c0.1-0.9,0.8-3.3,2.2-3.7l0.3-0.1v-3l0,0c0,0,0.6-2,2.5-3.2l0.2-0.1v-0.3c0-0.1-1-5.2,1.2-6.6l0.2-0.1v-0.2c0,0-0.5-3.3,1.7-4.5
		h0.1l3.7-4l-1.2-2.4l-1.8-3.1l1.3-2.8l1.1-1.9l0.5-2l4.9-2.3l5.8,0.8l1.4,1c-1,2.5-2.1,4.2-2.1,4.2l-0.1,0.1v0.1
		c-0.3,8-1.4,9.9-1.4,9.9v0.1v0.1c-0.5,6.1-1.8,6.5-1.8,6.5h-0.1l-0.1,0.1c-5.3,3.7-6.4,10.4-6.5,10.7c0.3,4.1-0.4,5.5-0.9,6
		c-0.3,0.3-0.6,0.4-0.7,0.4h-0.3l-0.1,0.3c-1.1,3,0,4.8,0,4.8c2,3.6-0.6,6.4-0.7,6.6l-0.1,0.1v0.2c0.2,2.8,2.3,4,2.8,4.2
		c0.6,1.1-1.7,3.6-3.4,5.1c-0.3,0-0.5-0.1-0.8-0.1c-7.6,0-11.9,18.5-12.1,19.3c-0.2,1.5-0.5,3.1-0.7,3.6c-2.7,1.3-5.7,6.9-5.8,7.1
		c-2,5.2-6.1,9-6.5,9.4c-3.3,1.6-5.3,3.5-6.1,5.8c-0.8,2.5,0.2,4.5,0.2,4.6c1.1,3.7-2.2,5.4-2.4,5.4l-0.2,0.1l0.2,2.7
		c-1.8,4.3-10.2,10-10.3,10c-13.3,5.2-15.7,14.4-15.8,14.8c-0.7,4.7-2.3,7.2-2.3,7.3c-3.8,4.8-7.3,16.5-7.4,17
		c-0.7,2.1-2.5,8.9-2.5,9.2c-0.7,1.4-2.1,6.8-2.2,7c-1.1,3-3.9,9.1-3.9,9.1c-1.4,1.9-1.3,7.7-1.3,8.4c-1.4,4.5-0.7,6.7-0.7,6.8
		c0.1,0.6,0.2,1.2,0.3,1.7c0.2,1,0.3,1.9,0.4,2.8l-3.2,0.9h-0.1C24.2,215.3,23.4,215.5,22.6,215.5z"/>
	<path class="st1" d="M116.2,1.1l5.6,0.8l1.1,0.7c-1,2.3-1.9,3.8-1.9,3.8l-0.1,0.2v0.2c-0.3,7.8-1.3,9.7-1.3,9.7l-0.1,0.2v0.2
		c-0.4,5-1.3,6-1.5,6.2h-0.1l-0.2,0.1c-5.4,3.7-6.6,10.7-6.6,11v0.1v0.1c0.3,4-0.4,5.3-0.8,5.6c-0.2,0.2-0.4,0.2-0.4,0.2l-0.6-0.2
		l-0.2,0.6c-1.1,3-0.1,4.8,0.1,5.1c1.8,3.4-0.5,6-0.6,6.1l-0.2,0.2v0.3c0.2,2.8,2.2,4.1,2.9,4.5c0.2,0.8-1.4,2.9-3.3,4.4
		c-0.2,0-0.5,0-0.7,0c-3.4,0-6.5,3.4-9.3,10c-2,4.8-3.1,9.4-3.1,9.6l0,0l0,0c-0.1,1.3-0.5,2.7-0.6,3.3c-2.8,1.4-5.5,6.6-5.8,7.2l0,0
		l0,0c-1.9,5-5.8,8.7-6.4,9.2c-3.4,1.6-5.5,3.6-6.3,6s0,4.4,0.2,4.8c1,3.4-2,4.9-2.1,5l-0.5,0.2v0.5l0.2,2.3c-1.7,4-9.3,9.2-10,9.7
		c-13.5,5.3-16,14.7-16.1,15.1l0,0l0,0c-0.6,4.4-2.1,6.8-2.2,7.1c-3.8,4.9-7.3,16.7-7.5,17.1c-0.7,2.1-2.3,8.4-2.5,9.2
		c-0.7,1.5-2,6.6-2.2,7.1c-1,2.8-3.6,8.4-3.9,9c-1.4,2.1-1.4,7.5-1.4,8.6c-1.4,4.3-0.8,6.6-0.7,7c0.1,0.5,0.2,1.1,0.3,1.7
		c0.1,0.8,0.3,1.6,0.3,2.4l-2.9,0.8h-0.1l-0.1,0.1c-0.5,0.4-1.2,0.5-1.9,0.5c-0.2,0-0.3,0-0.4,0c-0.2-1.8-1.5-2.9-3.6-2.9
		c-0.4,0-0.8,0.1-1,0.1c-1-0.1-2.6-1.4-3.5-2.2l-0.8-0.8L13,210c-0.1,0.3-0.3,0.4-0.5,0.4c-0.1-0.9-0.5-1.9-0.7-2.3
		c0.4-1.1,0.5-1.9,0.1-2.5c-0.2-0.4-0.6-0.6-0.9-0.6c-1.6-1-2.5-2-2.4-2.8c0-0.9,1.2-1.5,1.2-1.5l0.2-0.1l0.1-0.2
		c0.9-1.8,1-3.3,0.3-4.3C9.5,195,7.8,195,7.7,195c-2,0-3.5-1.6-3.5-1.6l-0.1-0.1L4,193.2c-1.2-0.7-0.9-1.7-0.8-2
		c0.7-1.2,0.5-3.9,0.4-5.3c1.8-0.3,4.7-1.4,5.1-1.6l0.4-0.2v-0.5c0.3-2.9-3-6.9-3.4-7.3l0,0l0,0c-2.3-2.3-1-5.2-0.9-5.4l0.1-0.1
		v-0.2c0-2.8-2.1-9.2-2.2-9.4v-0.1L2.6,161c-2.6-4.1,0.4-8.2,0.5-8.3l0,0l0,0c1.2-2.2,1-5.1,0.9-6.1c2.9-3.2,5.4-7.5,5.5-7.7l0,0
		l0,0c0.7-1.5,0.6-3,0.4-4.1l3.5,0.4l0.6,0.1l0.2-0.5c0.5-1.2,2.5-1.9,3.2-2h0.2l0.2-0.2l2-2l5.7-1.3l0.6-0.1l-0.1-0.7
		c-0.2-2.5,0.8-3.7,0.9-3.7l0.2-0.2v-0.3l-0.3-3.3l1.3-3.4l0.1-0.1v-0.1c0-3.9-4.8-5.5-6-5.8c-1.2-1.5-1.9-3.1-2.1-4.7v-0.1
		c0-0.1,0-0.2,0-0.2v-0.1l0,0c0-0.1,0-0.2,0-0.3c0-0.1,0-0.2,0-0.3l0,0l0,0l0,0v-0.1v-0.1v-0.1c0-0.1,0-0.1,0-0.2v-0.1l0,0l0,0
		c0-0.2,0-0.3,0-0.3v-0.1l0,0c0.6-3.7-2.6-6-2.7-6.1c-2.6-2.2-2-3.6-2-3.6l0.3-0.5l-0.4-0.4C13,92,14.6,89.1,14.6,89l0.2-0.4
		l-0.2-0.4c-1.4-2.3,0.1-3.4,0.3-3.6H15l0.1-0.1c1.6-1.6,3.8-4.7,4.5-5.7h2h0.7v-0.7l0.3-4.4c1-1.7,0.2-3.7,0-4.2
		c-0.4-3.6,1-4.5,1-4.5l0,0l0.3-0.2l0.1-0.4l0.5-3.8v-0.1v-0.1v-5.1c0-1.5-0.5-2.5-1-3.1l1.7-0.9l0.3-0.2l0.1-0.4l0.5-2.6
		c1.7-0.8,2.6-1.6,2.6-2.7c0.1-0.9-0.4-1.5-0.8-1.9l0.7-2.2v-0.1v-0.1c0-1.4,1.1-2.8,1.4-3.2l6.9-4.3l0.2-0.1l0.1-0.2
		c1.1-2.4,3.8-4.5,4.4-5l3.6-0.3h0.2l0.2-0.2c1.2-1,3.1-2.4,4-3.1c0.9,1.1,2.9,4,2.9,8.1c-0.1,0.4-0.2,1.7,0.7,3
		c0.9,1.2,2.4,1.9,4.5,2.1c2.3,0.6,6.2,2.1,7.1,3.4l0,0l0,0l1.4,1.6l0.4,0.5l0.5-0.3c0,0,2.4-1.2,4.8-1.3c0.6,0.6,2.8,2.6,2.8,5.5
		v0.4L75,48c0.8,0.7,2.5,2.5,2.2,3.5L77,52.1l0.5,0.3l3,1.6l3.2,1.9L84,56h0.2c0,0,0.3,0,0.5,0.2s0.2,0.6,0.1,0.8l-0.1,0.4l0.3,0.3
		c0,0,1.3,1.3,0.9,2.8l-0.3,1.2l1.2-0.2c0.5-0.1,4.2-0.8,5.2-3c3.2,0,5.1-1.1,5.1-2.9v-0.1v-0.1L96,50.5c0-0.3-0.1-2.6,1.5-3.8
		c0.6-0.2,2.3-1.3,2.3-5.5c0.1-0.8,0.8-3.1,1.9-3.4l0.5-0.2V37v-2.6c0.1-0.4,0.7-2,2.4-3l0.4-0.3l-0.1-0.5c-0.3-1.4-0.6-5.2,1-6.3
		l0.4-0.3l-0.1-0.5c0,0-0.4-3,1.5-4.1l0.1-0.1l0.1-0.1l3.5-3.8l0.4-0.4l-0.2-0.5l-1.1-2.2l-1.7-2.9l1.2-2.6l1.1-1.9l0.1-0.1V4.7
		l0.5-1.8L116.2,1.1 M116.1,0.4L111,2.8L110.5,5l-1.1,1.9l-1.4,3l1.9,3.2l1.1,2.2l-3.5,3.8c-2.4,1.4-1.9,4.9-1.9,4.9
		c-2.4,1.6-1.4,7-1.4,7c-2.2,1.4-2.7,3.5-2.7,3.5v2.7c-1.9,0.5-2.4,4.1-2.4,4.1c0,4.3-1.9,4.9-1.9,4.9c-2.2,1.6-1.9,4.6-1.9,4.6
		l1.1,4.9c0,2-3.3,2.2-4.4,2.2c-0.3,0-0.4,0-0.4,0c-0.5,2.2-4.9,3-4.9,3c0.5-1.9-1.1-3.5-1.1-3.5c0.3-1.9-1.4-1.9-1.4-1.9L81,53.6
		L78,52c0.5-1.9-2.4-4.3-2.4-4.3c0-3.8-3.2-6.2-3.2-6.2c-2.7,0-5.4,1.4-5.4,1.4l-1.4-1.6c-1.4-2.2-7.6-3.8-7.6-3.8
		c-5.4-0.5-4.6-4.3-4.6-4.3c0-5.7-3.5-9.2-3.5-9.2s-3,2.2-4.6,3.5l-3.8,0.3c0,0-3.5,2.4-4.9,5.4l-7,4.3c0,0-1.6,1.9-1.6,3.8L27.2,44
		c0,0,3,1.9-1.6,3.8l-0.5,3l-2.7,1.4c0,0,1.6,0.8,1.6,3.2v5.1l-0.5,3.8c0,0-1.9,1.1-1.4,5.4c0,0,1.1,2.2,0,3.8l-0.3,4.6h-2.4
		c0,0-2.7,4.1-4.6,5.9c0,0-2.4,1.6-0.5,4.6c0,0-1.9,3.5,0.8,6.2c0,0-1.1,1.9,2.2,4.6c0,0,3,2.2,2.4,5.4c0,0,0,0,0,0.1s0,0.2-0.1,0.4
		l0,0c0,0.1,0,0.1,0,0.2s0,0.1,0,0.2v0.1v0.1l0,0l0,0l0,0c0,0.1,0,0.2,0,0.3c0,0,0,0,0,0.1s0,0.2,0,0.4l0,0l0,0c0,0.1,0,0.2,0,0.3
		v0.1l0,0c0.2,1.4,0.8,3.2,2.4,5.2c0,0,5.7,1.4,5.7,5.1l-1.4,3.5l0.3,3.5c0,0-1.4,1.4-1.1,4.3l-5.9,1.4l-2.2,2.2c0,0-3,0.5-3.8,2.4
		L9,133.9c0,0,1.1,2.4,0,4.6c0,0-2.7,4.6-5.7,7.8c0,0,0.5,3.5-0.8,5.9c0,0-3.5,4.6-0.5,9.2c0,0,2.2,6.5,2.2,9.2c0,0-1.6,3.5,1.1,6.2
		c0,0,3.5,4.1,3.2,6.8c0,0-4.3,1.6-5.7,1.6c0,0,0.5,4.3-0.3,5.7c0,0-0.8,1.9,1.1,3c0,0,1.6,1.9,4.1,1.9c0,0,3.8,0,1.6,4.6
		c0,0-4.3,2.2,1.4,5.7c0,0,1.4,0,0.3,2.4c0,0,0.8,1.6,0.8,3c0,0,0.3,0.1,0.6,0.1c0.4,0,1-0.2,1.3-0.9c0,0,2.4,2.4,4.1,2.4
		c0,0,0.4-0.1,0.9-0.1c1.1,0,2.9,0.4,2.9,2.8c0,0,0.5,0.1,1.1,0.1c0.7,0,1.6-0.1,2.4-0.7l3.5-0.9c-0.1-1-0.2-2-0.4-3.1
		c-0.1-0.6-0.2-1.2-0.4-1.8c0,0-0.7-2.2,0.7-6.7c0,0-0.2-6.3,1.3-8.3c0,0,2.9-6.1,4-9.2c0,0,1.4-5.6,2.2-7c0,0,1.8-7,2.5-9.2
		c0,0,3.6-12.1,7.4-16.9c0,0,1.6-2.5,2.3-7.4c0,0,2.3-9.4,15.7-14.6c0,0,8.6-5.8,10.4-10.3l-0.2-2.5c0,0,3.8-1.8,2.5-5.9
		c0,0-3.1-5.8,5.8-9.9c0,0,4.5-4,6.7-9.5c0,0,3.1-5.9,5.8-7c0,0,0.5-2,0.7-3.8c0,0,4.3-19,11.7-19c0.3,0,0.6,0,0.9,0.1
		c0,0,4.9-4,3.6-5.8c0,0-2.5-1.1-2.7-4c0,0,2.9-3.1,0.7-7c0,0-1.1-1.6,0-4.5c0,0,0,0,0.1,0c0.4,0,2.4-0.3,1.9-6.7
		c0,0,1.1-6.8,6.3-10.4c0,0,1.6,0,2.2-6.8c0,0,1.1-1.8,1.4-10.1c0,0,1.1-1.8,2.2-4.5L122,1.2L116.1,0.4L116.1,0.4z"/>
</g>
</svg>
