<?xml version="1.0" encoding="utf-8"?>
<!-- Generator: Adobe Illustrator 24.3.0, SVG Export Plug-In . SVG Version: 6.00 Build 0)  -->
<svg version="1.1" id="圖層_1" xmlns="http://www.w3.org/2000/svg" xmlns:xlink="http://www.w3.org/1999/xlink" x="0px" y="0px"
	 viewBox="0 0 79 92" style="enable-background:new 0 0 79 92;" xml:space="preserve">
<style type="text/css">
	.st0{fill:#F2AD11;}
	.st1{fill:#FFFFFF;}
</style>
<g>
	<path class="st0" d="M61.4,91.4l-0.5-0.1l-0.3-0.1l-0.9-1.8L59.4,89c-0.6-1.4-1.6-2.9-1.8-3.2l-0.1-0.2L54.6,83l-3.7-1.7
		c0-0.1,0-0.3,0.1-0.4c0-0.1,0-0.2,0-0.3c0-0.1,0-0.2,0-0.3c0-0.3,0-0.5,0-0.8l0.1-0.6l-0.2-0.3c0-0.2-0.1-0.3-0.1-0.5
		c-0.4-2-1.3-3.5-1.9-4.2c1.6-0.5,2.5-2.5,2.5-2.6v-0.1l-0.8-3.1V64L50,63.1c-0.2-0.5-0.4-0.9-0.6-1.3c-0.1-0.1-0.2-0.3-0.3-0.4
		c-0.1-0.2-0.2-0.3-0.3-0.4c-0.1-0.1-0.2-0.2-0.3-0.3c-0.2-0.2-0.4-0.4-0.7-0.5l-0.5-0.7l-3.5-1.1l-0.1-0.2c0-0.1,0-0.1-0.1-0.2
		c-0.1-0.1-0.1-0.2-0.2-0.3c-0.1-0.1-0.1-0.2-0.2-0.3c-0.1-0.1-0.2-0.2-0.2-0.2c-0.1-0.1-0.2-0.2-0.2-0.2c-0.1-0.1-0.2-0.2-0.3-0.2
		c-0.1-0.1-0.2-0.1-0.3-0.2c-0.1-0.1-0.2-0.1-0.3-0.2c-0.1-0.1-0.2-0.1-0.3-0.2L41.3,56L41,55.9l-0.4-0.1l-0.4-0.1l-0.4-0.1
		l-0.4-0.1l-0.7-0.2L38.1,55l-0.7-0.1l-0.8-0.2l-0.8-0.1c-2-3.2-7.5-5.5-8.8-6c0-0.2,0-0.4,0.1-0.5c0-0.4,0-0.6,0-0.9
		c-0.1-3.8-3.1-5.1-4-5.4L23,41.6l-0.2-0.1h-0.1c-0.3,0-0.5,0.1-0.7,0.1c-1.7,0-2.5-1-2.5-1l-0.1-0.1h-0.2c-5.2,0-7.3-5.6-7.6-6.2
		c-0.1-3.2-6.2-3.2-6.5-3.2c-0.2,0-0.4,0-0.5,0c-1.2,0-2.9-0.6-4-1.1c0.3-0.4,0.6-0.8,0.8-1.2c1.5-2.3,2.5-4,2.5-4.1v-0.1v-0.1
		c1-7.4,8-10.3,8.1-10.3h0.1l1.1-1.2l1.6-0.4l0.2-1.2c2-0.1,6-2.3,6.1-2.4c2.1-1.6,4.6-2,4.6-2l0,0c3.4,0,4.1-0.9,4.2-1.1
		c0.5-0.9,1-1.6,1.7-2.2c1.9-1.5,4.4-1.6,5.1-1.6c0.2,0,0.3,0,0.3,0h0.1l3.7-2c0.6-0.1,1.3-0.2,2-0.2c0.5,0,1,0,1.4,0.1
		c1.1,0.3,1.5,1,1.6,1l0,0l2.3,2l2.2,0.4l2.9,2.2h3.9l3.6,3.9l3.5,1.4l1,3.8v4.1l-2,2.3l-3.9,1.1l-3.7,2.9l-3,3.4l-0.8,3.8l0.4,2.6
		l1.1,3l2.8,3.9v7l3.3,1.6l4.8-2.9l2.6,0.3l1.4,2.8l2.2,2.2l2.7,4l-2.8,2.8l0.4,3.8c0,4,4.6,8.3,4.8,8.5h0.1h0.1
		c1.1,0.4,1.8,1,2.1,1.8c0.4,1-0.1,2-0.1,2l-0.1,0.2l0.1,0.2c0.4,0.5,0.6,1.1,0.5,1.6s-0.3,0.9-0.4,1c-0.7,0.2-1,0.5-1.1,0.8
		c-0.4,1,0.6,2.4,0.7,2.6c1.2,3-1.5,6.9-2.1,7.7l-7,0.4l-1.6,0.5l-3.1,1L61.4,91.4z"/>
	<path class="st1" d="M42.8,0.4c0.4,0,0.9,0,1.3,0.1c0.9,0.3,1.3,0.8,1.4,0.9l0.1,0.1l0.1,0.1l2.2,1.8l0.2,0.1h0.2l2,0.3L53,5.9l0,0
		h0.3h3.6l3.4,3.7l0.1,0.1l0.2,0.1l3.3,1.3l1,3.5v3.9L63,20.7l-3.7,1h-0.1L59,21.9l-3.6,2.9l0,0l0,0L52.5,28l-0.1,0.2v0.2L51.7,32
		v0.1v0.1l0.4,2.5v0.1v0.1l1.1,2.9v0.1l0.1,0.1l2.7,3.8v2.6v4v0.5l0.4,0.2l2.9,1.4l0.4,0.2l0.4-0.2l4.5-2.7l2.2,0.3l1.3,2.5l0.1,0.1
		l0.1,0.1l2.1,2.1l1.4,2.1l1.3,1.8L70.9,59l-0.3,0.6l0.1,0.3l0.4,3.6c-0.6,4.1,4.1,8.5,4.3,8.7l0.1,0.1l0.1,0.1
		c1,0.4,1.7,0.2,1.9,0.9c0.3,0.9,0.1,2.4,0.1,2.4l0.3,0.8h-0.5c0.4,0.5,0.5,0.9,0.5,1.3c0,0.3-0.2,0.6-0.3,0.8
		c-0.8,0.2-0.4,0.8-0.6,1.1c-0.5,1.1,0.6,2.1,0.9,2.5c1,2.7-2.1,6.5-2.8,7.5L68,89.8h-0.1h-0.1l-1.5,0.5l-3.1,0.9L61.4,91
		c-0.1,0-0.2,0-0.2-0.1l0,0l0,0c-0.1,0-0.2,0-0.3-0.1h-0.1L60,89.2v-0.1L59.9,89l-0.2-0.2c-0.7-1.4-1.6-2.9-1.8-3.2l0,0l0,0v-0.1
		l-0.1-0.1l-0.1-0.1l-2.9-2.5l-0.1-0.1h-0.1l-3.4-1.6V81c0-0.1,0-0.2,0-0.3c0-0.1,0-0.2,0-0.3c0-0.3,0-0.5,0-0.8l0.1-0.5v-0.2
		l-0.1-0.2l-0.1-0.2c0-0.1,0-0.3-0.1-0.4V78c-0.4-1.7-1.1-3-1.7-3.9c1.5-0.7,2.3-2.6,2.3-2.7l0.1-0.2l0.2-0.2l-0.7-2.9v-4v-0.3
		L51,63.7L50.5,63c-0.2-0.5-0.4-0.9-0.7-1.4c-0.1-0.1-0.2-0.3-0.3-0.4l0,0l0,0c-0.1-0.1-0.2-0.2-0.3-0.3l-0.1-0.1
		c-0.1-0.1-0.2-0.2-0.3-0.3l0,0l0,0c-0.2-0.2-0.4-0.4-0.6-0.5l-0.4-0.6l-0.1-0.2l-0.2-0.1l-3.2-1c0,0,0,0,0-0.1s0-0.1-0.1-0.1l0,0
		l0,0c0-0.1-0.1-0.2-0.2-0.3l0,0l0,0c-0.1-0.1-0.1-0.2-0.2-0.2l0,0l0,0c-0.1-0.1-0.1-0.2-0.3-0.3c-0.1-0.1-0.2-0.1-0.2-0.2l0,0l0,0
		c-0.1-0.1-0.2-0.1-0.3-0.2c-0.1-0.1-0.2-0.1-0.3-0.2c-0.1-0.1-0.2-0.1-0.3-0.2l0,0l0,0C42.1,56,42,56,41.9,55.9l0,0l0,0
		c-0.1-0.1-0.2-0.1-0.3-0.1l0,0l0,0c-0.1,0-0.2-0.1-0.3-0.1l0,0l0,0c-0.1,0-0.2-0.1-0.4-0.1c-0.1,0-0.2-0.1-0.3-0.1l0,0l0,0
		c-0.1,0-0.2-0.1-0.3-0.1l0,0l0,0c-0.1,0-0.2-0.1-0.4-0.1c-0.1,0-0.2-0.1-0.4-0.1c-0.1,0-0.2-0.1-0.4-0.1L38.8,55l0,0l0,0l-0.3-0.1
		l-0.3-0.1l-0.3-0.1l-0.3-0.1h-0.2l0,0l0,0h-0.2H37h-0.2h-0.1c-2.1-3-6.9-5.2-8.6-5.9c0-0.1,0-0.2,0-0.3v-0.1l0,0c0-0.3,0-0.6,0-0.8
		c-0.1-4.1-3.3-5.5-4.3-5.8c-0.1,0-0.2-0.1-0.2-0.1h-0.2l0,0l0,0h-0.1h-0.1c-0.2,0-0.5,0.1-0.7,0.1c-1.5,0-2.2-0.8-2.2-0.8l-0.2-0.3
		h-0.4c-4.8,0-6.9-5.1-7.2-5.9c-0.2-3.4-6.2-3.5-6.9-3.5H4.9H4.8c-0.1,0-0.3,0-0.4,0c-0.8,0-2-0.3-3.4-0.9c0.2-0.3,0.4-0.5,0.6-0.8
		c1.6-2.3,2.5-4,2.5-4.1l0.1-0.1v-0.1c1-7.2,7.8-10,7.8-10l0.2-0.1l0.1-0.1l0.9-1.1l1.2-0.3L15,13l0.1-0.5l0.1-0.7
		c2.2-0.4,5.8-2.3,6.2-2.6l0,0l0,0c1.8-1.4,4-1.8,4.3-1.8c3.4,0,4.3-0.9,4.6-1.3c0.5-0.8,1-1.5,1.6-2c1.8-1.4,4.2-1.6,4.9-1.6
		c0.2,0,0.2,0,0.3,0h0.2l0.2-0.1L41,0.5C41.5,0.4,42.1,0.4,42.8,0.4L42.8,0.4 M42.8-0.4c-0.7,0-1.4,0.1-2.2,0.2l-3.6,2
		c0,0-0.1,0-0.3,0c-0.9,0-3.4,0.1-5.4,1.7c-0.6,0.6-1.2,1.3-1.7,2.2c0,0-0.5,0.9-4,0.9c0,0-2.5,0.4-4.7,2c0,0-4.5,2.5-6.5,2.5
		l-0.2,1.3l-1.4,0.4l-1,1.2c0,0-7.2,2.9-8.3,10.6c0,0-0.9,1.7-2.5,4c-0.3,0.5-0.7,1-1.1,1.5c1.2,0.5,3.1,1.3,4.6,1.3
		c0.2,0,0.4,0,0.5,0l0,0c0,0,6.1,0,6.1,2.9c0,0,2.2,6.5,7.9,6.5c0,0,0.9,1.1,2.8,1.1c0.2,0,0.5,0,0.8-0.1l0,0l0,0h0.1l0,0
		c0.1,0,0.1,0,0.2,0.1l0,0c1,0.3,3.7,1.6,3.7,5.1l0,0l0,0l0,0c0,0.2,0,0.5,0,0.8v0.1c0,0.3-0.1,0.5-0.1,0.8c0,0,6.8,2.5,9,6.1l0,0
		c0,0,0.1,0,0.3,0l0,0c0,0,0.1,0,0.2,0l0,0c0.1,0,0.1,0,0.2,0l0,0c0.1,0,0.1,0,0.2,0l0,0c0.1,0,0.2,0,0.2,0l0,0c0.1,0,0.2,0,0.2,0
		l0,0c0.1,0,0.2,0,0.3,0.1l0,0c0.1,0,0.2,0,0.3,0.1l0,0c0.1,0,0.2,0,0.3,0.1l0,0c0.1,0,0.2,0,0.3,0.1l0,0c0.1,0,0.2,0.1,0.3,0.1l0,0
		c0.1,0,0.2,0.1,0.3,0.1l0,0c0.1,0,0.2,0.1,0.3,0.1l0,0c0.1,0,0.2,0.1,0.3,0.1l0,0c0.1,0,0.2,0.1,0.3,0.1l0,0c0.1,0,0.2,0.1,0.3,0.1
		l0,0c0.1,0,0.2,0.1,0.3,0.1l0,0c0.1,0,0.2,0.1,0.3,0.1l0,0c0.1,0,0.2,0.1,0.3,0.1l0,0c0.1,0,0.2,0.1,0.3,0.1l0,0
		c0.1,0,0.2,0.1,0.3,0.2l0,0c0.1,0.1,0.2,0.1,0.2,0.2l0,0c0.1,0.1,0.1,0.1,0.2,0.2l0,0c0.1,0.1,0.1,0.1,0.2,0.2l0,0
		c0.1,0.1,0.1,0.1,0.2,0.2l0,0c0.1,0.1,0.1,0.1,0.1,0.2l0,0c0,0.1,0.1,0.1,0.1,0.2l0,0v0.1l0,0v0.1l0,0c0,0.1,0,0.2,0.1,0.2l3.6,1.1
		l0.5,0.7c0.2,0.2,0.5,0.3,0.7,0.5l0,0c0.1,0.1,0.2,0.2,0.3,0.3l0,0c0.1,0.1,0.2,0.2,0.3,0.3l0,0c0.1,0.1,0.2,0.2,0.2,0.3l0,0
		c0.3,0.4,0.5,0.8,0.6,1.3l0.6,0.8v4.1l0.7,3c0,0-1.1,2.5-2.9,2.5l0,0l0,0l0,0c0,0,0,0.1,0.1,0.1l0,0c0.4,0.6,1.6,2.1,2,4.2v0.1
		c0,0.2,0.1,0.3,0.1,0.5l0,0l0,0l0.1,0.3l-0.1,0.6l0,0l0,0c0,0.2,0,0.5,0,0.8c0,0.1,0,0.2,0,0.3c0,0.1,0,0.2,0,0.3
		c0,0.2-0.1,0.4-0.1,0.7l4,1.8l2.9,2.5c0,0,0,0,0,0.1l0,0c0.2,0.4,1.1,1.9,1.8,3.2l0.2,0.3l1,2c0.1,0,0.1,0,0.2,0.1l0,0
		c0.1,0,0.1,0,0.2,0.1l0,0c0.1,0,0.2,0,0.3,0.1l0,0c0.1,0,0.2,0,0.3,0.1l0,0l3.6,0.6l2.5-0.8l2.6-0.3L74,89c0,0,3.5-4.3,2.1-7.9
		c0,0-1.8-2.5,0.4-2.9c0,0,0.5-0.5,0.6-1.3c0.1-0.5,0-1.2-0.6-1.9c0,0,1.4-2.9-2.2-4.3c0,0-4.7-4.3-4.7-8.3l-0.4-3.6l2.9-2.9
		L72,54.6l-1.4-2.2l-2.2-2.2L67,47.4L64.1,47l-4.7,2.9l-2.9-1.4v-4v-2.9l-2.9-4l-1.1-2.9l-0.4-2.5l0.7-3.6l2.9-3.2l3.6-2.9l4-1.1
		l2.2-2.5v-4.3l-1.1-4l-3.6-1.4l-3.6-4h-4L50.4,3l-2.2-0.4L46,0.8c0,0-0.5-0.8-1.8-1.2C43.8-0.3,43.3-0.4,42.8-0.4L42.8-0.4z"/>
</g>
</svg>
