<?xml version="1.0" encoding="utf-8"?>
<!-- Generator: Adobe Illustrator 24.3.0, SVG Export Plug-In . SVG Version: 6.00 Build 0)  -->
<svg version="1.1" id="圖層_1" xmlns="http://www.w3.org/2000/svg" xmlns:xlink="http://www.w3.org/1999/xlink" x="0px" y="0px"
	 viewBox="0 0 103 79" style="enable-background:new 0 0 103 79;" xml:space="preserve">
<style type="text/css">
	.st0{fill:#F2AD11;}
	.st1{fill:#FFFFFF;}
</style>
<g>
	<path class="st0" d="M45,78.5c-0.6,0-1.2-0.3-2-0.9c0,0-1.2-1-2.8-1c-0.8,0-1.5,0.2-2.2,0.7c-0.3,0.1-1.4,0.4-2.6,0.4l0,0
		c-1.7,0-2.6-0.6-2.8-1.7v-0.2l-0.2-0.1c-0.2-0.1-3.8-1.9-7.9-2.5L16.6,68l-4-0.8l-3.2-2.9l-3.2-5.1L3,55.5L0.4,53l0.4-0.6L2,50.9
		L3.7,50l1.1-2.4c2.2-1.7,3.3-5,3.3-5.2c0.2-2.5,1.4-6.1,1.4-6.1c1-1.5,3.1-5.9,3.2-6.1v-0.1V30c0.2-3.3,2.4-6.1,2.4-6.1
		c3-2.3,6.9-6.8,7-7c2.7-2.7,6.6-3.3,9.4-3.3c1.4,0,2.4,0.2,2.4,0.2l1,0.2l-0.7-0.8c-1.3-1.5-1.4-2.3-1.4-2.7c0-0.3,0.2-0.3,0.2-0.4
		c2.4-0.9,3.7-3.5,3.8-3.6V6.4V6.3c0.6-3.5,1.7-5.5,3.2-5.9L42.4,1l4,1l2.9,1.6l0.6,0.2v0.3l4.6,1.8c-0.3,0.3-0.6,0.9-0.7,1.5
		c0,0.8,0.4,1.6,1.2,2.3c-0.2,0.8-0.6,3.8,0.9,5.5l0.1,0.1l7.8,2.1c0.4,0.8,2.5,4.4,5.2,5.7c1,0.5,3.7,2.2,4,3.3
		c0,0.2,0,0.3-0.1,0.5l-2.6,5l0.3,0.2c0.8,0.4,2.7,1.6,2.8,2.8c0,0.5-0.3,1-1.1,1.4l0,0c-0.4,0-2.7,0.2-2.7,3.6v0.2l4.4,3.5l2.9-1.8
		l3.4-1.6l5.6,0.5l4.7-0.5l5.1-0.3c0.4,0.7,1.7,2.9,3.8,4.5l0.2,0.2c0.6,0.6,2.1,2.4,2.6,4.1l-2.4,5.2c0,0.1-1,2.1-0.6,3.8
		c-0.6,0.6-2.3,2.5-2.6,4c-0.3-0.1-0.8-0.3-1.3-0.9l0,0c0,0-0.7-1.5-2-1.5c-0.8,0-1.6,0.5-2.4,1.5c0,0-1.6,1.4-2,3.5
		c-0.5,0.4-2.7,1.9-4.2,1.9c-0.3,0-0.5,0-0.7-0.1l-0.1,0l-0.2,0.1c-0.2,0.1-4,2.4-4.7,4.4c-0.5,0.4-3,2.2-5,2.2
		c-0.4,0-0.7-0.1-1-0.2H73l-0.2,0.1c-0.2,0.1-4,2.1-5.2,4.3c-0.2,0-0.5,0.1-0.9,0.1c-1.7,0-2.7-0.9-2.8-2.8v-0.2l-2.6-2.3l-4.4-1.7
		l-7.1-0.5c-0.2,0-2.3,0.4-2.3,4.2C47.4,75.1,46.8,78.5,45,78.5z"/>
	<path class="st1" d="M40.1,0.9l2.2,0.5l4,0.9l2.9,1.6h0.1h0.1L49.5,4v0.3L50,4.5L53.8,6c-0.2,0.4-0.4,0.8-0.4,1.3
		c0,0.9,0.4,1.7,1.2,2.5c-0.2,1.1-0.4,3.9,1.1,5.6l0.1,0.2l0.2,0.1l7.5,2.1c0.6,1,2.6,4.5,5.3,5.7c1.4,0.8,3.6,2.2,3.8,3.1
		c0,0.1,0,0.1,0,0.2l0,0l0,0l-2.4,4.6L69.8,32l0.7,0.3c1,0.5,2.5,1.6,2.6,2.4c0,0.4-0.4,0.7-0.8,1c-1.4,0-3,1.1-3,4v0.4l0.3,0.2
		l4.1,3.2l0.4,0.3l0.4-0.3l2.7-1.6l3.3-1.5l5.5,0.5h0.1h0.1l4.6-0.5l4.9-0.2c0.5,0.9,1.8,2.9,3.7,4.4l0,0l0,0c0,0,0.1,0.1,0.2,0.2
		l0,0c0.5,0.5,2,2.3,2.5,3.9l-2.4,5c0,0.1-1,2.1-0.7,3.9c-0.7,0.7-2,2.2-2.5,3.6c-0.2-0.1-0.4-0.3-0.7-0.6C95.5,60,94.6,59,93.4,59
		c-0.9,0-1.7,0.5-2.6,1.5c-0.3,0.3-1.7,1.6-2,3.6c-0.8,0.6-2.7,1.7-3.9,1.7c-0.2,0-0.4,0-0.5-0.1H84l-0.3,0.2
		c-0.4,0.3-4,2.5-4.8,4.5c-0.9,0.7-3.1,2.1-4.7,2.1c-0.3,0-0.6-0.1-0.8-0.2L73,72.2l-0.3,0.2c-0.2,0.1-3.9,2.1-5.3,4.3
		c-0.2,0-0.4,0.1-0.7,0.1c-1.5,0-2.3-0.8-2.4-2.4v-0.3L64,73.8l-2.4-2.2l-0.1-0.1h-0.1L57,69.9h-0.1h-0.1l-7-0.5h-0.1h-0.1
		c-0.1,0-2.5,0.4-2.5,4.5c-0.1,1.4-0.8,4.4-2.1,4.4c-0.5,0-1.1-0.3-1.8-0.8c-0.1,0-1.3-1.1-3-1.1c-0.8,0-1.6,0.2-2.4,0.7
		c-0.3,0.1-1.4,0.3-2.5,0.3c-2.2,0-2.4-1.1-2.4-1.4l-0.1-0.4l-0.3-0.2c-0.2-0.1-3.8-1.9-7.9-2.5l-7.7-5l-0.1-0.1h-0.1L12.9,67
		l-3-2.8l-3.2-5.1l0,0l0,0l-3.2-3.8l0,0l0,0L0.9,53l0.2-0.3l1.1-1.5l1.5-0.8l0.2-0.1L4,50l1-2.2c2.2-1.8,3.3-5.2,3.4-5.3v-0.1v-0.1
		c0.2-2.2,1.2-5.3,1.4-5.8c1.1-1.7,3.2-6,3.2-6.1l0.1-0.1v-0.1c0.2-2.9,2-5.4,2.3-5.8c3-2.3,6.7-6.6,7-7.1c2.6-2.6,6.4-3.2,9.1-3.2
		c1.4,0,2.3,0.2,2.3,0.2l2.1,0.3L34.5,13c-1.4-1.6-1.4-2.3-1.3-2.5c2.5-1,3.8-3.6,3.9-3.7l0.1-0.1V6.6C37.8,3.3,38.8,1.3,40.1,0.9
		 M40.1,0.2c-1.3,0.3-2.8,1.7-3.6,6.3c0,0-1.3,2.5-3.6,3.4c0,0-1.4,0.7,1.1,3.6c0,0-1-0.2-2.4-0.2c-2.6,0-6.8,0.5-9.6,3.4
		c0,0-4,4.7-7,7c0,0-2.3,2.9-2.5,6.3c0,0-2.2,4.5-3.2,6.1c0,0-1.3,3.6-1.4,6.1c0,0-1.1,3.4-3.2,5l-1.1,2.3L2,50.4L0.7,52l-0.6,0.9
		l2.8,2.6l3.1,4l3.2,5.1l3.2,3l4.1,0.8l7.8,5.1c4.1,0.5,7.8,2.4,7.8,2.4c0.3,1.6,1.8,2,3.2,2s2.8-0.4,2.8-0.4
		c0.7-0.5,1.4-0.7,2.1-0.7c1.5,0,2.5,0.9,2.5,0.9c0.9,0.7,1.6,1,2.2,1c2.5,0,2.9-5.1,2.9-5.1c0-3.5,1.9-3.8,1.9-3.8l7,0.5l4.3,1.6
		l2.4,2.2c0.2,2.6,2,3.1,3.2,3.1c0.7,0,1.1-0.1,1.1-0.1C68.9,75.2,73,73,73,73c0.3,0.2,0.7,0.2,1.1,0.2c2.4,0,5.4-2.4,5.4-2.4
		c0.5-1.9,4.6-4.3,4.6-4.3c0.2,0.1,0.5,0.2,0.8,0.2c1.9,0,4.6-2,4.6-2c0.3-2.2,1.9-3.5,1.9-3.5c0.8-1,1.5-1.3,2.1-1.3
		c1.1,0,1.7,1.3,1.7,1.3c0.8,1.1,1.9,1.1,1.9,1.1c0-1.6,2.7-4.3,2.7-4.3c-0.5-1.6,0.5-3.8,0.5-3.8l2.5-5.3l0,0
		c-0.5-1.8-2.2-3.8-2.8-4.5l0,0c-0.1-0.1-0.2-0.2-0.2-0.2l0,0l0,0c-2.4-1.9-3.8-4.6-3.8-4.6l-5.4,0.3L86,40.3l-5.7-0.5l-3.5,1.6
		L74.1,43L70,39.7c0-3,1.8-3.2,2.3-3.2c0.1,0,0.1,0,0.1,0c3.8-2.2-1.6-4.9-1.6-4.9l2.4-4.6c1.1-1.6-4.1-4.3-4.1-4.3
		C66.1,21.3,64,17,64,17l-7.8-2.2c-1.6-1.9-0.8-5.4-0.8-5.4c-2.7-2.2-0.3-3.8-0.3-3.8l-4.9-1.9V3.4l-0.8-0.2l-3-1.6l-4.1-1L40.1,0.2
		L40.1,0.2z"/>
</g>
</svg>
