<?xml version="1.0" encoding="utf-8"?>
<!-- Generator: Adobe Illustrator 24.3.0, SVG Export Plug-In . SVG Version: 6.00 Build 0)  -->
<svg version="1.1" id="圖層_1" xmlns="http://www.w3.org/2000/svg" xmlns:xlink="http://www.w3.org/1999/xlink" x="0px" y="0px"
	 viewBox="0 0 134 73" style="enable-background:new 0 0 134 73;" xml:space="preserve">
<style type="text/css">
	.st0{fill:#F2AD11;}
	.st1{fill:#FFFFFF;}
</style>
<g>
	<path class="st0" d="M72.1,72.9c-0.5,0-0.9-0.1-0.9-0.1l-3.4-1.4c-1.5-1.9-0.3-4.5-0.3-4.6l0.1-0.2L65.5,62c0.6-1.9,0.4-3,0.3-3.3
		c0-3.1,1.7-3.2,1.8-3.2h0.3l0.1-0.3c0.4-1.5,0.2-2.7-0.4-3.5c-0.5-0.6-1.3-1-2.3-1c-0.2,0-0.3,0-0.4,0c-1.3-1.5-3.8-6.6-4.1-7.3
		c-0.2-2-6.3-3.3-7.5-3.5L42,40.4c-0.1,0-0.4,0-0.6,0c-3.2,0-9.7,2.1-9.9,2.2l-0.3,0.1l0.4,1.5l-3,1.3l-6.1,6.8L18,52.7V53
		c0,1.6-2.6,5.1-3.8,6.5c-0.3,0-0.6,0.1-0.9,0.1c-2.2,0-4.5-0.8-4.5-0.8l-4.3-2.1L2.9,56c0.3-0.1,0.5-0.2,0.6-0.4
		c0.3-0.5-0.1-1-0.2-1.1l-0.1-0.1H3.1c-1.6-0.7-2.6-1.5-2.8-2.3s0.3-1.4,0.4-1.4l0.2-0.2l-0.1-0.2c-0.4-0.7-0.6-1.3-0.4-1.6
		c0.1-0.3,0.5-0.3,0.5-0.3h0.3l0.1-0.3c0.1-0.3,0.2-0.7,0.3-1c-0.2,1.9,0,3.4,0.7,4.3c0.8,1.1,1.9,1.1,2.1,1.1
		c0.4,0,0.8,0.1,1.1,0.1c0.9,0,1.4-0.2,1.7-0.6c0.2-0.3,0.2-0.6,0.1-0.7l-0.1-0.2H7c-1-0.1-1.7-0.5-2.1-1.2c-1.2-2,0.6-6,0.6-6v-0.1
		v-0.1c0-2.6-0.8-3.6-1.2-3.9c0.3-1.3-0.8-2.8-1.2-3.2c-0.3-1.9,1.1-3.2,1.2-3.2l0.6-0.5l-0.7-0.2c-1.1-0.2-1.7-0.6-1.9-1.2
		C2,30.6,2.7,29.6,3,29.2c0.3-0.1,0.6-0.3,0.9-0.4c2-1.4,1-4.1,0.9-4.2l-0.1-0.2H4.5C3.7,24.2,3.1,24,3,23.6s0.2-0.8,0.2-0.8
		c0.1-0.1,0.2-0.2,0.3-0.3l7.4,0.2h7.4l2.9-3.2h3.2l3-3.4l1.3-3.4l3.3,0.7l1.1-5.5l4.1-0.7h0.1c8-4.4,12.7-5,14.8-5
		c0.6,0,1,0.1,1,0.1h0.1h0.1c2.5-1.1,4.7-1.7,6.4-1.7c2,0,2.7,0.8,2.8,1.1c0.1,4.6,5.7,4.9,6.4,5l4.3,1.8l4.9,1.1l5.1-2.9
		c0.3,0,0.5,0.1,0.6,0.3c0.2,0.4-0.1,1.3-0.3,1.7l-0.2,0.4l3.7,1.2h7.2l3.5,1.2l2.6-8h3.2l2.1,1.4l5.1,0.7c2.6,0.9,3.1,1.7,3.1,2.1
		c0.1,0.5-0.4,0.9-0.4,0.9l-0.2,0.1v0.2c0,1.6-1.7,3.7-1.7,3.7l-0.1,0.1l0.4,4.3l0.2,0.1c2.2,1,1.9,5.3,1.9,5.4
		c0,2.1,0.9,3.7,2.6,4.6c1.4,0.7,3,0.9,3.9,0.9c0.5,0,0.8,0,0.8,0c1.3-0.2,2.7-0.3,4.1-0.3c3.7,0,6.8,0.7,7.7,1l0,0
		c-6.2,1.4-11.6,5.5-12.4,6.2c-0.9,0.1-1.8,0.5-2.6,1.3c-2.3,2-3.3,5.7-3.4,5.9c-1.7,3.7-6.6,6.2-6.7,6.3l-4.7,2.6l-6.8,6.8
		c-1.9,0.1-2.8,1.9-3.2,3c-1-1-3.3-1.2-4.8-1.2c-0.5,0-0.9,0-0.9,0l0,0c-1.5,0-3.3,2.1-3.5,2.3l-0.1,0.2l1.1,3.8l0.3,2.8l0.4,2.1
		c-0.9,1.1-1.8,1.7-2.8,1.7c-1.7,0-3-1.6-3-1.6c-0.6-1.1-1.5-1.4-2.1-1.4c-1.2,0-2.3,0.9-2.4,1l-0.1,0.1v0.2
		C75.5,72.4,73.6,72.9,72.1,72.9z"/>
	<path class="st1" d="M59.7,0.9c1.7,0,2.3,0.6,2.5,0.8c0.1,4,4.3,5.2,6.7,5.2L73,8.7h0.1h0.1l4.7,1.1l0.3,0.1l0.3-0.1L83.4,7h0.1
		c0.1,0.2-0.1,0.8-0.3,1.3l-0.5,0.8l0.9,0.3l3.2,1.1h0.1H87h7.1l3.1,1l0.7,0.2l0.2-0.7l2.4-7.4h2.8l2,1.3l0.1,0.1h0.2l5,0.7
		c2.6,0.9,2.9,1.6,2.9,1.8S113.2,8,113.2,8l0,0l-0.3,0.2v0.4c0,1.2-1.2,2.9-1.6,3.5l-0.2,0.2v0.3l0.4,4V17l0.4,0.2
		c1.7,0.7,1.8,3.9,1.7,5l0,0l0,0c0,3.6,2.6,5.8,6.9,5.8c0.5,0,0.8,0,0.8,0l0,0l0,0c1.3-0.2,2.6-0.3,4-0.3c2.5,0,4.8,0.4,6.2,0.6
		c-5.5,1.6-10.1,5.1-11,5.8c-1,0.1-1.9,0.6-2.7,1.3c-2.2,2-3.3,5.4-3.5,6c-1.7,3.6-6.4,6.1-6.5,6.1l-4.7,2.5l-0.1,0.1l-0.1,0.1l-4,4
		L96.4,57c-1.7,0.2-2.7,1.6-3.2,2.7c-1.1-0.8-3-1-4.7-1c-0.5,0-0.9,0-0.9,0c-1.7,0-3.6,2.2-3.8,2.4l-0.3,0.3l0.1,0.4l1.1,3.5
		l0.4,2.9l0.4,1.9c-0.8,1-1.6,1.4-2.4,1.4c-1.4,0-2.5-1.2-2.7-1.4c-0.8-1.3-1.8-1.5-2.5-1.5c-1.3,0-2.5,0.9-2.6,1L75.1,70v0.3
		c0,1.5-1,2.2-3,2.2c-0.3,0-0.6,0-0.7,0L68,71.1c-1.3-1.7-0.2-4.1-0.2-4.1l0.2-0.3l-0.2-0.3l-2-4.4c0.5-1.8,0.4-2.9,0.3-3.3
		c0-2.6,1.3-2.8,1.4-2.8h0.6l0.1-0.6c0.4-1.7,0.2-2.9-0.5-3.8c-0.6-0.7-1.5-1.1-2.6-1.1c-0.1,0-0.2,0-0.2,0c-1.1-1.4-3.1-5.3-3.9-7
		c-0.3-2-5-3.2-7.8-3.8h-0.1H53L42,40c-0.2,0-0.4,0-0.7,0c-3.3,0-9.8,2.1-10.1,2.2l-0.7,0.2l0.2,0.7l0.2,0.8l-2.7,1.2l-0.1,0.1
		L28,45.3l-5.9,6.6l-4,0.3l-0.7,0.1V53c0,1.3-2.1,4.4-3.6,6.1c-0.2,0-0.5,0-0.7,0c-1.9,0-4-0.6-4.4-0.7l-4.3-2.1l-0.8-0.4
		c0-0.1,0.1-0.1,0.1-0.2c0.4-0.7-0.1-1.4-0.2-1.5L3.4,54l-0.1,0c-1.5-0.6-2.4-1.4-2.5-2.1c-0.1-0.6,0.3-1,0.3-1.1l0.4-0.4l-0.3-0.5
		c-0.5-0.7-0.5-1.1-0.4-1.3c0-0.1,0.2-0.1,0.2-0.1h0.2c0,1.2,0.3,2.2,0.9,2.9c0.9,1.2,2.1,1.3,2.4,1.3c0.4,0,0.8,0.1,1.1,0.1
		c1,0,1.7-0.2,2-0.7c0.3-0.4,0.3-0.8,0.2-1.1l-0.2-0.5l-0.6,0c-0.9-0.1-1.5-0.4-1.8-1c-0.9-1.6,0.1-4.6,0.6-5.7l0.1-0.1v-0.2
		c0-2.4-0.7-3.6-1.2-4.1c0.1-1.3-0.8-2.7-1.2-3.3c-0.2-1.6,1-2.7,1-2.7l1.1-1l-1.4-0.3c-0.9-0.2-1.5-0.5-1.6-0.9
		c-0.2-0.5,0.3-1.3,0.6-1.7c0.3-0.1,0.6-0.3,0.8-0.4c2.2-1.5,1.1-4.5,1-4.6v-0.4L4.6,24c-0.9-0.2-1.1-0.4-1.2-0.5
		c0-0.1,0.1-0.3,0.1-0.4C3.6,23,3.7,23,3.7,22.9l7.3,0.2h7.2h0.3l0.2-0.3l2.7-3h2.9h0.3l0.2-0.3l2.9-3.2l0.1-0.1v-0.1l1.2-3l2.6,0.6
		l0.7,0.2l0.2-0.8l1-4.9l3.8-0.6h0.1l0.1-0.1c8-4.5,12.8-5,14.4-5c0.6,0,0.9,0.1,0.9,0.1l0,0L53,2.7l0.2-0.1C56,1.5,58,0.9,59.7,0.9
		 M59.7,0.2c-1.5,0-3.5,0.4-6.5,1.7c0,0-0.3-0.1-1-0.1c-2,0-6.8,0.6-14.8,5.1L33,7.6L31.9,13l-3.2-0.7l-1.4,3.6l-2.9,3.2h-3.2
		l-2.9,3.2H11L3.4,22c-0.1,0.1-0.2,0.3-0.4,0.5c0,0-1.4,1.6,1.4,2.2c0,0,1,2.5-0.8,3.7c-0.2,0.2-0.5,0.3-0.9,0.4c0,0-2.9,3.1,1.3,4
		c0,0-1.6,1.4-1.3,3.6c0,0,1.6,2,1.1,3.2c0,0,1.3,0.5,1.3,3.8c0,0-3.2,7.2,1.8,7.7c0,0,0.3,0.8-1.5,0.8c-0.3,0-0.6,0-1-0.1l0,0
		c-0.3,0-4-0.2-2-7.6c0,0-1.3,2-1.6,3.4c0,0-1.8,0.2-0.4,2.5c0,0-2.2,2.3,2.5,4.3c0,0,0.7,1-0.4,1c-0.3,0-0.7-0.1-1.4-0.3
		c0,0,0,0.1-0.1,0.2L4.1,57l4.3,2.2c0,0,2.4,0.8,4.7,0.8c0.4,0,0.8,0,1.1-0.1c0,0,4-4.7,4-6.8l4.3-0.4l6.1-6.8l3.2-1.4l-0.4-1.4
		c0,0,6.6-2.2,9.8-2.2c0.2,0,0.4,0,0.6,0L53,40.5c0,0,7.2,1.4,7.2,3.2c0,0,2.9,6.1,4.3,7.6c0,0,0.2,0,0.5,0c1,0,3.2,0.4,2.3,4
		c0,0-2.2,0-2.2,3.6c0,0,0.4,1.1-0.4,3.2l2.2,4.7c0,0-1.4,2.9,0.4,5l3.6,1.4c0,0,0.4,0.1,0.9,0.1c1.4,0,3.8-0.4,3.8-2.9
		c0,0,1-0.9,2.1-0.9c0.6,0,1.3,0.3,1.9,1.2c0,0,1.4,1.7,3.3,1.7c1,0,2.1-0.5,3.2-2L86,68.2l-0.4-2.9l-1.1-3.6c0,0,1.8-2.2,3.2-2.2
		c0,0,0.3,0,0.8,0c1.5,0,4.6,0.2,4.9,1.8c0,0,0.7-3.6,3.2-3.6l2.9-2.9l4-4l4.7-2.5c0,0,5-2.5,6.8-6.5c0,0,1-3.7,3.2-5.7
		c0.7-0.6,1.6-1.1,2.5-1.2c0,0,5.9-4.8,12.6-6.2v-0.6c0,0-3.6-1.1-8.1-1.1c-1.3,0-2.8,0.1-4.2,0.3c0,0-0.3,0-0.7,0
		c-1.8,0-6.1-0.5-6.1-5.1c0,0,0.4-4.7-2.2-5.8l-0.4-4c0,0,1.8-2.2,1.8-4c0,0,2.5-1.8-2.9-3.6l-5-0.7l-2.2-1.4H100l-2.5,7.9l-3.2-1.1
		H87l-3.2-1.1c0,0,1.4-2.5-0.7-2.5l-5,2.9L73.3,8L69,6.2c0,0-6.1,0-6.1-4.7C62.9,1.5,62.3,0.2,59.7,0.2L59.7,0.2z"/>
</g>
</svg>
