<?xml version="1.0" encoding="utf-8"?>
<!-- Generator: Adobe Illustrator 24.3.0, SVG Export Plug-In . SVG Version: 6.00 Build 0)  -->
<svg version="1.1" id="圖層_1" xmlns="http://www.w3.org/2000/svg" xmlns:xlink="http://www.w3.org/1999/xlink" x="0px" y="0px"
	 viewBox="0 0 119 110" style="enable-background:new 0 0 119 110;" xml:space="preserve">
<style type="text/css">
	.st0{fill:#009696;}
	.st1{fill:#FFFFFF;}
</style>
<g>
	<path class="st0" d="M34.3,110.1c-0.1-0.4-0.3-0.8-0.5-1.2c0.2-0.4,0.4-1.4,0-2.4c-0.4-0.9-1.2-1.7-2.4-2.2c-0.5-0.5-4.5-4.4-4.5-8
		l-0.3-3.5l3-3l-3.1-4.6L24.3,83l-1.5-3l-3.2-0.4L15,82.5l-2.5-1.2v-6.7l-2.9-4l-1.1-2.8l-0.3-2.4L8.9,62l2.8-3.2l3.5-2.8l4-1.1
		l2.3-2.7v-4.5l-1.1-4.2L16.7,42L13,38H9l-2.9-2.1L4,35.4l-2-1.7c0-0.1-0.1-0.2-0.2-0.3c0.5,0.1,0.9,0.2,0.9,0.2l0.2,0.1l0.2-0.1
		c1.2-1.1,3.2-1.6,3.6-1.7c0.6,0,1.1,0.1,1.7,0.1c7.1,0,11.2-4,11.4-4.1l0.1-0.1v-0.2c-0.2-2,0.9-2.3,1-2.3H21l0.1-0.1
		c0.3-0.4,0.7-0.6,1.1-0.6c0.6,0,1.1,0.5,1.1,0.5l3.2,2.2c0.6,0.9,1.2,1.3,1.9,1.3c0.8,0,1.2-0.6,1.2-0.6l0.1-0.2l-0.1-0.2
		c-1.1-3.4-8.7-5.9-9.1-6c-0.4-0.3-0.3-0.8-0.2-1c5.9-4.6,9.5-9.7,9.6-9.7L31.8,9c2.8-2.5,3.5-4.2,3.7-4.7l1.8-1.5l2.1,1.8L39.5,4
		c2.9-2.2,5.6-2.6,7.4-2.6c0.9,0,1.6,0.1,1.7,0.2l2.7,2h0.1c2.7,0.9,5.1,4.1,5.5,4.6c0.4,4.4,4.3,7.4,4.5,7.5
		c0.7,0.4,1.4,0.6,2.1,0.6c1.6,0,2.7-0.9,2.7-0.9c0.8-0.4,1.3-0.5,1.6-0.6c-1.6,2-1.8,4.3-1.8,4.4v0.2l0.2,0.1
		c1.6,1.2,3.9,3.5,3.9,3.6l0.1,0.1h0.2c0.6,0,2.8,0.9,4,1.4l1.6,0.8l0.4,1.4l3.3-0.4c0.9,0.4,3.9,2.5,5,3.3h0.1h0.1
		c2.9,0.9,10.9,1.4,11.3,1.5c0.7-0.1,1.3-0.1,1.9-0.1c4.3,0,4.6,2.6,4.6,2.7l1.3,5.9l0.1,0.1c2.5,2.5,1.6,5.6,1.5,5.7v0.1l0.1,0.1
		c0.9,1.9,2.8,2.8,5.5,2.8c1.7,0,3.2-0.4,3.5-0.5c1.5,0,2.9-0.2,3.6-0.3l-0.3,1.8c0,2.2-3.3,3.4-4.1,3.6l-3.1-1.7l-3.4,1.1
		c-0.7,0-7,0.5-12,4.6c-0.3,0.1-2.2,0.9-3.6,0.9c-0.5,0-0.9-0.1-1.1-0.3L90,58.5c0.9,1.2,3,4.5,2.4,6.1l-0.1,0.2l0.1,0.2
		c0,0,0.2,0.3,0,0.6c-0.3,0.6-1.5,1.6-6.2,2h-0.1L86,67.7c-0.7,0.6-6.9,6.2-7.6,8.8h-3.9l-0.1,0.1c0,0-3.5,3-6.4,6.4l-9.3,2
		l-1.9,2.7l-4.7,2l0.5,10.3c-1.1,0.6-5.9,3.1-7.7,3.1h-0.3v0.3c-0.2,1.2-1,4.2-2.4,4.2c-0.5,0-1-0.3-1.6-0.9l-0.3-0.3l-0.3,0.3
		C40,106.7,36.6,110.1,34.3,110.1L34.3,110.1z"/>
	<path class="st1" d="M46.9,1.7c0.8,0,1.4,0.1,1.6,0.1l2.5,2l0.1,0.1h0.1c2.5,0.9,4.8,3.7,5.3,4.4c0.5,4.5,4.4,7.6,4.6,7.7l0,0h0.1
		c0.7,0.4,1.4,0.6,2.2,0.6c1.5,0,2.6-0.7,2.9-0.9c0.2-0.1,0.3-0.1,0.4-0.2c-1.1,1.8-1.2,3.5-1.2,3.6v0.4l0.3,0.2
		c1.6,1.2,3.9,3.5,3.9,3.5l0.2,0.2h0.3c0.5,0,2.3,0.7,3.8,1.4l1.5,0.8l0.3,0.9l0.2,0.6l0.6-0.1l2.9-0.3c0.9,0.4,3.4,2.2,4.9,3.3
		l0.1,0.1h0.1c2.9,0.9,11,1.5,11.3,1.5H96h0.1c0.6-0.1,1.2-0.1,1.8-0.1c3.9,0,4.2,2.3,4.2,2.3l0,0l0,0l1.3,5.8v0.2l0.2,0.2
		c2.3,2.3,1.5,5.2,1.4,5.4l-0.1,0.3L105,46c1,2,3,3.1,5.9,3.1c1.7,0,3.2-0.4,3.6-0.5c1.2,0,2.4-0.1,3.1-0.2l-0.2,1.3v0.1v0.1
		c0,1.6-2.4,2.7-3.7,3.2l-2.8-1.6l-0.3-0.2l-0.3,0.1l-3.1,1c-0.9,0.1-7.2,0.6-12.1,4.7c-0.4,0.2-2.1,0.8-3.4,0.8
		c-0.4,0-0.7-0.1-0.9-0.2l-1.1,1c1.2,1.5,2.8,4.5,2.3,5.8l-0.1,0.4l0.2,0.3c0,0,0,0.1,0,0.2c-0.1,0.3-1,1.3-5.9,1.8H86l-0.2,0.2
		c-1.2,1-6.6,5.9-7.6,8.7h-3.5h-0.3l-0.2,0.2c-0.1,0.1-3.5,2.9-6.4,6.4l-8.9,1.8l-0.3,0.1l-0.2,0.2l-1.8,2.5l-4.4,1.8l-0.5,0.2v0.5
		l0.5,9.8c-1.9,1-5.8,2.9-7.3,2.9h-0.6l-0.1,0.6c-0.2,1.6-1,3.9-2,3.9c-0.3,0-0.8-0.3-1.3-0.8l-0.5-0.5l-0.5,0.5
		c-0.9,0.9-3.4,3.1-5.1,3.3c-0.1-0.3-0.2-0.6-0.4-0.9c0.2-0.5,0.3-1.5,0-2.5c-0.4-1-1.3-1.8-2.6-2.4c-0.6-0.6-4.3-4.4-4.3-7.6l0,0
		l0,0L26.9,93l2.6-2.6l0.4-0.4l-0.3-0.5l-1.4-2.2l-1.4-2.2V85l-0.1-0.1l-2.1-2.1L23.2,80L23,79.6h-0.4l-2.9-0.4h-0.3l-0.2,0.1
		L15,82.1l-2.1-1v-3.5v-2.9v-0.2l-0.1-0.2L10,70.4l-1-2.7l-0.3-2.3L9.2,62l2.7-3l3.4-2.7l3.8-1l0.2-0.1l0.1-0.2l2.2-2.5l0.2-0.2V52
		v-4.3v-0.1v-0.1l-1.1-4l-0.1-0.4L20.3,43l-3.4-1.4l-3.5-3.8l-0.2-0.2h-0.3H9.1l-2.7-2l-0.1-0.1H6.1l-2-0.3l-1.2-1L3.1,34
		c1.1-1,2.9-1.5,3.4-1.6c0.5,0,1.1,0.1,1.6,0.1c7.3,0,11.5-4.1,11.6-4.3l0.2-0.2v-0.3c-0.1-1.6,0.6-1.9,0.7-1.9l0.3-0.1l0.2-0.2
		c0.4-0.5,0.7-0.5,0.8-0.5c0.4,0,0.7,0.3,0.8,0.4l0.1,0.1h0.1l3.1,2.1c0.7,0.9,1.4,1.4,2.1,1.4c0.9,0,1.5-0.7,1.5-0.8l0.2-0.3
		l-0.1-0.4c-1.1-3.4-8-5.8-9.2-6.2c-0.1-0.1-0.1-0.3-0.1-0.5c5.6-4.5,9.1-9.1,9.5-9.7l1.9-1.9c2.7-2.4,3.5-4.1,3.8-4.8l1.5-1.3
		l1.7,1.4l0.5,0.4l0.5-0.4C42.5,2.2,45.2,1.7,46.9,1.7 M46.9,1c-1.8,0-4.6,0.5-7.6,2.7l-2.2-1.8l-2.2,1.8c0,0-0.4,1.8-3.6,4.7l-2,2
		c0,0-3.6,5-9.5,9.7c0,0-0.5,1.1,0.4,1.6c0,0,7.7,2.5,8.8,5.8c0,0-0.4,0.5-0.9,0.5c-0.4,0-1-0.3-1.6-1.2l-3.2-2.2
		c0,0-0.6-0.6-1.3-0.6c-0.4,0-0.9,0.2-1.4,0.8c0,0-1.4,0.4-1.3,2.7c0,0-4,4-11.1,4c-0.5,0-1.1,0-1.7-0.1c0,0-2.3,0.5-3.8,1.8
		c0,0-1.2-0.3-2.8-0.5c1.3,0.4,1.8,1.2,1.8,1.2l2.2,1.8L6,36.1l2.9,2.2h4l3.6,4l3.6,1.4l1.1,4V52L19,54.5l-4,1.1l-3.6,2.9l-2.9,3.2
		l-0.7,3.6l0.4,2.5l1.1,2.9l2.9,4v2.9v4L15,83l4.7-2.9l2.9,0.4l1.4,2.9l2.2,2.2l1.4,2.2L29,90l-2.9,2.9l0.4,3.6c0,4,4.7,8.3,4.7,8.3
		c3.6,1.4,2.2,4.3,2.2,4.3c0.6,0.7,0.7,1.4,0.6,1.9l0.4-0.4c2.4,0,5.9-3.5,5.9-3.5c0.7,0.7,1.3,1,1.8,1c2.1,0,2.8-4.5,2.8-4.5
		c2.2,0,8.1-3.2,8.1-3.2l-0.5-10.3l4.6-1.9l1.9-2.7l9.2-1.9c3-3.5,6.5-6.5,6.5-6.5h4.1c0.3-2.4,7.6-8.9,7.6-8.9
		c8.1-0.8,6.5-3.2,6.5-3.2c0.8-2.2-2.4-6.5-2.4-6.5c0.3,0.3,0.8,0.4,1.4,0.4c1.6,0,3.8-0.9,3.8-0.9c5.1-4.3,11.9-4.6,11.9-4.6
		l3.2-1.1l3.1,1.7c0,0,4.5-1.3,4.5-4l0.4-2.3c0,0-2,0.4-4.1,0.4c0,0-1.6,0.5-3.5,0.5S107,48.1,106,46c0,0,1.1-3.4-1.6-6.1l-1.3-5.8
		c0,0-0.3-3-5-3c-0.6,0-1.2,0-1.9,0.1c0,0-8.3-0.5-11.2-1.4c0,0-4.1-3.1-5.2-3.4l-3.1,0.4l-0.4-1.3l-1.8-0.9c0,0-3.2-1.4-4.1-1.4
		c0,0-2.3-2.3-4-3.6c0,0,0.2-2.5,2-4.5c0,0,0.3-0.4-0.2-0.4c-0.3,0-0.9,0.2-2.1,0.7c0,0-1,0.8-2.5,0.8c-0.6,0-1.2-0.1-1.8-0.5
		c0,0-4-3.1-4.3-7.4c0,0-2.7-3.8-5.8-4.9l-2.7-2C48.8,1.2,48.1,1,46.9,1L46.9,1z M34,110.8L34,110.8L34,110.8L34,110.8L34,110.8z"/>
</g>
</svg>
