<?xml version="1.0" encoding="utf-8"?>
<!-- Generator: Adobe Illustrator 24.3.0, SVG Export Plug-In . SVG Version: 6.00 Build 0)  -->
<svg version="1.1" id="圖層_1" xmlns="http://www.w3.org/2000/svg" xmlns:xlink="http://www.w3.org/1999/xlink" x="0px" y="0px"
	 viewBox="0 0 83 174" style="enable-background:new 0 0 83 174;" xml:space="preserve">
<style type="text/css">
	.st0{fill:#F2AD11;}
	.st1{fill:#FFFFFF;}
</style>
<g>
	<path class="st0" d="M75.9,174.1c-1.2,0-1.6-1.3-1.6-1.4v-0.1v-0.1c-4.6-6.3-13.3-7.1-14.3-7.2c-0.8-0.4-1.4-0.5-2-0.5
		c-1.8,0-2.5,1.6-2.6,2.5v0.1v0.1c0.3,1.1,0.3,1.8,0,2.2c-0.2,0.2-0.5,0.4-1,0.4c-0.9,0-2-0.5-2.1-0.5c-1.4-0.8-2.3-1.9-2.5-3.1
		c-0.5-2.3,1.2-4.6,1.2-4.6l0.1-0.1v-0.1c0-3.4-2.3-5.5-2.9-6l-0.4-2.5v-0.1c-0.7-1.2-1-2.2-0.8-2.9c0.2-0.6,0.8-0.9,0.8-0.9
		l0.2-0.1l0.7-2.8c0.2,0,0.4,0,0.5,0c2.2,0,2.3-1.5,2.3-1.5v-0.2l-0.1-0.1c-2.2-1.9-2.3-3-2.1-3.3c1.7-2.3,1-5.2,1-5.4
		c-2.8-5.7-3.6-10.5-3.6-10.6c-0.2-2.9-1.9-7.8-2-8v-0.1l-0.1-0.1c-5.3-4.8-4.6-7.7-4.6-7.7l0,0v-0.1c0-5.8-4.2-10.3-4.4-10.5
		c-3-3.7-11.1-12.3-11.2-12.4l-0.1-0.1h-0.1c-4.1-0.5-5.5-2.4-5.5-2.4c-2.8-2.2-7.5-4-7.7-4.1c-1.4-0.5-2.2-1.1-2.3-1.7
		S9.1,77,9.1,77l0.6-0.6l-0.8-0.1c-0.8-0.1-1.2-0.4-1.5-0.6c0.1,0,0.3,0,0.4,0c1.1,0,1.8-0.3,2-0.8c0.4-0.9-0.8-2-1-2.2l-1.4-1
		l-1.7,0.2l-2.3-0.8l-3.1-4.5l0.5-2.7L4,61.1V61c0.1-0.2,2.8-5.3,1.6-7.6c0,0-2.9-7.6-0.6-10.4l0.1-0.2L5,42.6c0,0-2-4.9,0.7-7.1
		l0.1-0.1L7,31c0.3-0.4,1.8-3.3,0.3-7.2l1.6-8c0-0.1-0.1-3.1,1.2-4.5c0.5-0.5,1-0.7,1.7-0.7c0.2,0,0.4,0,0.7,0.1c0,0,1,0.1,2.3,0.1
		c3,0,8.4-0.3,10.7-2l0.1-0.1V8.5c0-0.2,0.1-5,6.9-5.3h0.1h0.1c0,0,3-1.3,5.4-1.3c1.6,0,2.6,0.5,3,1.6v0.1l0.1,0.1
		c0.1,0,1.3,0.7,2.8,0.7c1.7,0,3.2-0.8,4.2-2.4c0.1-0.1,0.4-1.1,1.3-1.1c0.5,0,1.3,0.3,2.5,1.7l0.1,0.1h0.1c1.8,0.4,6.5,2,6.7,4.3
		L59,7l0.1,0.1c0,0.1,1.2,1.5,2.6,1.5c1.1,0,2-0.8,2.7-2.4l0,0V6.1c0-0.1,0.5-3.5,3.1-3.5c0.1,0,0.3,0,0.5,0l4.3,2.6
		c0,0.2,0,0.4,0,0.6c0,0.1,0.1,0.4,0.1,0.4c0,0.1,0,0.3,0.1,0.4v0.2c0,0.1,0.1,0.5,0.1,0.5c0,0.2,0.1,0.4,0.2,0.6V8
		c0.1,0.2,0.1,0.4,0.2,0.6c0.1,0.3,0.2,0.5,0.3,0.7l0.1,0.1c0.1,0.2,0.2,0.4,0.3,0.6c0.2,0.3,0.3,0.5,0.5,0.7l0.1,0.2
		c0.2,0.2,0.3,0.5,0.5,0.7l0.1,0.1H75c0.1,0,5.3,1.3,5.4,4.7L79,20l0.3,3.4c-0.3,0.4-1.2,1.8-1.1,4.2l-5.7,1.3l-2.2,2.2
		c-0.6,0.1-2.9,0.7-3.8,2.4l-5-0.6l0.3,0.6c0,0,1,2.3,0,4.3c0,0-2.7,4.6-5.6,7.8H56v0.2c0,0,0.5,3.4-0.8,5.7c0,0-3.6,4.8-0.5,9.6
		l0,0c0,0,2.1,6.3,2.1,8.9c-0.2,0.6-1.4,3.9,1.2,6.6c0,0,3.2,3.7,3.1,6.2c-1.3,0.5-4.3,1.5-5.3,1.5h-0.4l0.1,0.4
		c0.1,1.2,0.4,4.4-0.2,5.4c-0.3,0.8-0.5,2.5,1.2,3.5c0.3,0.3,1.9,2,4.3,2c0,0,1.2,0,1.7,0.8c0.4,0.7,0.3,1.7-0.3,3.1
		c-0.4,0.2-1.6,1-1.7,2.4c-0.1,1.3,1,2.6,3.1,3.9l0.1,0.1h0.1c0,0,0.2,0,0.2,0.1c0.1,0.1,0.2,0.6-0.3,1.8l-0.1,0.2l0.1,0.2
		c0,0,0.8,1.6,0.8,2.8v0.3l0.2,0.1c0,0,0.3,0.1,0.8,0.1c0.6,0,1.1-0.2,1.4-0.7c0.8,0.7,2.6,2.2,4,2.2c0.1,0,0.4-0.1,0.9-0.1
		c1.7,0,2.5,0.8,2.5,2.4v0.3l0.3,0.1c0,0,0.5,0.2,1.3,0.2c0.9,0,1.8-0.2,2.5-0.7l3-0.8c0.4,5-0.4,8.2-0.4,8.2
		c-0.5,8.3,0.1,12.1,0.2,12.2c2.9,6.3,0.6,9.6,0.6,9.6l-0.1,0.2l0.1,0.2c2.2,5.1-0.5,7.4-0.6,7.5l0,0v0.1c-2.4,3.9-6.5,4.5-6.6,4.5
		h-0.2l-0.1,0.1c-3.7,5.5,0.5,12.7,0.7,13c1.8,1.9,2.2,3.4,2.3,3.9C76.5,174,76.2,174.1,75.9,174.1L75.9,174.1z"/>
	<path class="st1" d="M49.6,1.2c0.3,0,1,0.2,2.2,1.6L52,3l0.2,0c2.4,0.6,6.3,2.2,6.5,3.9v0.2l0.1,0.2c0.1,0.2,1.3,1.6,2.9,1.6
		c1.2,0,2.3-0.9,3-2.6V6.2V6.1C64.7,6,65.2,3,67.4,3c0.1,0,0.2,0,0.3,0l4,2.5c0,0.1,0,0.3,0,0.4s0,0.2,0,0.3c0,0.1,0,0.1,0,0.2
		s0,0.3,0.1,0.5v0.2c0,0.1,0,0.2,0.1,0.3v0.1v0.1v0.1C72,7.9,72,8.1,72.1,8.3v0.1c0.1,0.2,0.1,0.4,0.2,0.6v0.1l0,0
		c0.1,0.2,0.2,0.4,0.3,0.7L73,9.7c0.1,0.2,0.2,0.4,0.4,0.7c0.1,0.2,0.3,0.5,0.4,0.7l0.1,0.2c0.2,0.2,0.3,0.5,0.5,0.7l0.2,0.2
		l0.2,0.1c0.1,0,5,1.2,5.1,4.3L78.6,20l0,0v0.2l0.2,3.2c-0.4,0.5-1.1,1.8-1.1,4l-5.3,1.2h-0.2L72,28.8l-2,2
		c-0.7,0.2-2.8,0.8-3.8,2.3l-4.1-0.5l-1.3-0.2l0.5,1.2c0,0,0.9,2.1,0,3.9c-0.2,0.3-2.8,4.7-5.6,7.7l-0.2,0.3l0.1,0.4
		c0,0,0.5,3.3-0.7,5.4c-0.4,0.6-3.5,5.2-0.6,9.9c0.2,0.8,2,6.3,2.1,8.7c-0.3,0.8-1.4,4.2,1.3,6.9c0.9,1,2.9,3.8,3.1,5.7
		c-1.7,0.6-4.1,1.4-4.9,1.4H55l0.1,0.8c0.2,1.7,0.3,4.4-0.2,5.2l0,0l0,0c-0.4,0.9-0.6,2.7,1.3,3.9c0.4,0.4,2.1,2.1,4.5,2.1
		c0,0,1,0,1.3,0.6c0.3,0.5,0.2,1.5-0.3,2.7c-0.5,0.3-1.7,1.2-1.7,2.6c-0.1,1.4,1,2.9,3.3,4.2l0.2,0.1h0.1c0,0.1,0.1,0.5-0.3,1.4
		l-0.1,0.3l0.2,0.3c0,0,0.7,1.5,0.7,2.6v0.5l0.5,0.2c0.1,0,0.4,0.2,0.9,0.2s1-0.2,1.4-0.5c0.9,0.8,2.6,2,3.9,2h0.1H71
		c0,0,0.3-0.1,0.7-0.1c1.9,0,2.1,1.2,2.1,2v0.6l0.5,0.2c0.1,0,0.6,0.2,1.4,0.2c1,0,1.9-0.3,2.7-0.7l2.5-0.7c0.3,4.6-0.4,7.6-0.5,7.6
		v0.1v0.1c-0.5,8.3,0.2,12.1,0.2,12.3v0.1v0.1c2.8,5.9,0.7,9,0.6,9.1l-0.3,0.3l0.2,0.4c2.1,4.8-0.4,7-0.5,7.1l-0.1,0.1l-0.1,0.1
		c-2.3,3.8-6.3,4.3-6.3,4.3h-0.3l-0.2,0.3c-3.8,5.7,0.5,13.1,0.7,13.4v0.1l0.1,0.1c1.4,1.5,1.9,2.7,2.1,3.4
		c-0.2,0.1-0.4,0.1-0.6,0.1c-0.9,0-1.2-1.1-1.2-1.1v-0.1l-0.1-0.1c-4.6-6.3-13.2-7.2-14.5-7.3c-0.8-0.4-1.5-0.5-2.1-0.5
		c-2.1,0-2.8,1.8-2.9,2.8v0.1v0.1c0.3,1.3,0.1,1.8,0,1.9c-0.1,0.1-0.3,0.2-0.7,0.2c-0.8,0-1.7-0.4-1.9-0.5c-1.3-0.8-2.1-1.7-2.4-2.9
		c-0.4-2.1,1.2-4.3,1.2-4.3l0.2-0.2v-0.3c0-3.3-2.2-5.5-2.9-6.2l-0.3-2.2v-0.2L48,153c-0.7-1.1-0.9-2-0.7-2.6
		c0.1-0.5,0.6-0.7,0.6-0.7l0.4-0.1l0.1-0.4l0.6-2.3c0.1,0,0.2,0,0.2,0c2.1,0,2.6-1.2,2.6-1.9v-0.3l-0.3-0.2c-2.1-1.8-2-2.7-2-2.8
		c1.8-2.4,1-5.5,1-5.6V136v-0.1c-2.7-5.4-3.5-10-3.5-10.4c-0.2-3-1.9-7.9-2-8.1l-0.1-0.2l-0.1-0.1c-5.1-4.6-4.5-7.3-4.5-7.3v-0.1
		v-0.1c0-5.8-4.1-10.4-4.5-10.8C32.7,95,24.6,86.4,24.5,86.4l-0.2-0.2H24c-3.9-0.5-5.2-2.2-5.3-2.2l-0.1-0.1l-0.1-0.1
		c-2.8-2.2-7.6-4-7.8-4.1c-1.7-0.6-2-1.2-2-1.4C8.6,77.9,9,77.5,9,77.5l0,0l1.2-1.1l-1.7-0.2l0,0c0.5-0.1,1-0.4,1.2-0.9
		c0.4-1.1-0.7-2.3-1.1-2.7l0,0l0,0l-1.3-0.9l-0.2-0.2H6.8l-1.5,0.2L3.4,71l-2.9-4.3l0.4-2.4l3.3-2.8l0.1-0.1l0.1-0.1
		c0.3-0.6,2.8-5.5,1.6-7.9c-0.8-2.1-2.4-7.9-0.6-10l0.3-0.3l-0.2-0.4c0,0-1.9-4.6,0.6-6.7l0.2-0.2l0.1-0.2l1.1-4.2
		c0.3-0.6,1.8-3.5,0.3-7.4l1.6-7.9V16v-0.1c0-0.8,0.1-3,1.1-4.1c0.4-0.4,0.9-0.6,1.4-0.6c0.2,0,0.4,0,0.6,0.1l0,0l0,0
		c0,0,0.9,0.1,2.3,0.1c3.7,0,8.6-0.4,10.9-2.1L26,9.1V8.7c0-0.2,0.1-4.7,6.6-4.9h0.1l0.1-0.1c0,0,2.9-1.2,5.3-1.2
		c2.2,0,2.5,1,2.6,1.3l0.1,0.3L41.2,4c0.1,0,1.3,0.7,3,0.7c1.3,0,3.1-0.4,4.5-2.6V2V1.9C48.7,1.9,49,1.2,49.6,1.2 M49.6,0.4
		c-1.1,0-1.6,1.3-1.6,1.3C46.9,3.5,45.4,4,44.1,4c-1.4,0-2.6-0.6-2.6-0.6C41,2,39.7,1.6,38.2,1.6c-2.6,0-5.6,1.3-5.6,1.3
		c-7.3,0.3-7.3,5.7-7.3,5.7c-2.2,1.7-7.5,1.9-10.5,1.9c-1.3,0-2.2-0.1-2.2-0.1c-0.3,0-0.5-0.1-0.7-0.1c-3.5,0-3.3,5.5-3.3,5.5
		L7,23.9c1.6,4.1-0.3,7-0.3,7l-1.1,4.3c-3,2.4-0.8,7.6-0.8,7.6c-2.4,3,0.5,10.8,0.5,10.8c1.1,2.2-1.6,7.3-1.6,7.3l-3.5,3l-0.5,3
		L3,71.7l2.5,0.8L7,72.3l1.3,0.9c0,0,2.6,2.4-0.7,2.4c-0.3,0-0.7,0-1.1-0.1c0,0,0.4,1.3,2.2,1.4c0,0-2.2,2,2,3.4c0,0,4.9,1.8,7.6,4
		c0,0,1.4,2,5.8,2.5c0,0,8.1,8.6,11.2,12.4c0,0,4.3,4.5,4.3,10.3c0,0-0.9,3.1,4.7,8.1c0,0,1.8,5,2,7.9c0,0,0.7,4.9,3.6,10.6
		c0,0,0.7,2.9-0.9,5c0,0-0.9,1.1,2.2,3.8c0,0,0,1.1-1.9,1.1c-0.2,0-0.5,0-0.8-0.1l-0.7,2.9c0,0-2.3,0.9-0.2,4.3l0.4,2.5
		c0,0,2.9,2.2,2.9,5.8c0,0-4,5.2,1.4,8.3c0,0,1.2,0.6,2.2,0.6c1.1,0,2-0.6,1.4-3.1c0,0,0.2-2.1,2.2-2.1c0.5,0,1.2,0.1,1.9,0.5
		c0,0,9.4,0.5,14.1,7c0,0,0.4,1.7,2,1.7c0.4,0,0.9-0.1,1.5-0.4c0,0,0-1.8-2.3-4.3c0,0-4.3-7.2-0.7-12.6c0,0,4.3-0.5,6.8-4.7
		c0,0,3.1-2.5,0.7-7.9c0,0,2.5-3.4-0.5-9.9c0,0-0.7-3.8-0.2-12.1c0,0,0.9-3.4,0.4-8.8l-3.5,0.9c-0.8,0.5-1.7,0.7-2.4,0.7
		c-0.7,0-1.1-0.1-1.1-0.1c0-2.4-1.8-2.8-2.9-2.8c-0.5,0-0.9,0.1-0.9,0.1c-1.6,0-4.1-2.4-4.1-2.4c-0.3,0.8-0.9,0.9-1.3,0.9
		c-0.3,0-0.6-0.1-0.6-0.1c0-1.4-0.8-3-0.8-3c1.1-2.4-0.3-2.4-0.3-2.4c-5.7-3.5-1.4-5.7-1.4-5.7c2.2-4.6-1.6-4.6-1.6-4.6
		c-2.4,0-4.1-1.9-4.1-1.9c-1.9-1.1-1.1-3-1.1-3c0.8-1.4,0.3-5.7,0.3-5.7c1.4,0,5.7-1.6,5.7-1.6c0.3-2.7-3.2-6.8-3.2-6.8
		c-2.7-2.7-1.1-6.2-1.1-6.2c0-2.7-2.2-9.2-2.2-9.2c-3-4.6,0.5-9.2,0.5-9.2c1.4-2.4,0.8-5.9,0.8-5.9c3-3.2,5.7-7.8,5.7-7.8
		c1.1-2.2,0-4.6,0-4.6l4.6,0.5c0.8-1.9,3.8-2.4,3.8-2.4l2.2-2.2l5.9-1.4c-0.3-3,1.1-4.3,1.1-4.3l-0.3-3.5l1.4-3.5
		c0-3.8-5.7-5.1-5.7-5.1c-0.2-0.2-0.3-0.5-0.5-0.7c0-0.1-0.1-0.1-0.1-0.2c-0.1-0.2-0.3-0.4-0.4-0.7l0,0c-0.1-0.2-0.2-0.4-0.3-0.6
		c0,0,0-0.1-0.1-0.1c-0.1-0.2-0.2-0.4-0.3-0.6c0,0,0,0,0-0.1c-0.1-0.2-0.1-0.4-0.2-0.5V7.7c-0.1-0.2-0.1-0.4-0.2-0.5V7.1V7
		c0-0.1,0-0.2-0.1-0.3c0-0.1,0-0.1,0-0.2s-0.1-0.3-0.1-0.4s0-0.1,0-0.2s0-0.2,0-0.2c0-0.3,0-0.5,0-0.8l0,0L68,2.3
		c-0.2,0-0.4,0-0.6,0C64.5,2.2,64,6,64,6c-0.7,1.6-1.6,2.2-2.3,2.2c-1.2,0-2.3-1.3-2.3-1.3c-0.3-3-7-4.6-7-4.6
		C51.2,0.9,50.3,0.4,49.6,0.4L49.6,0.4z"/>
</g>
</svg>
