<?xml version="1.0" encoding="utf-8"?>
<!-- Generator: Adobe Illustrator 24.3.0, SVG Export Plug-In . SVG Version: 6.00 Build 0)  -->
<svg version="1.1" id="圖層_1" xmlns="http://www.w3.org/2000/svg" xmlns:xlink="http://www.w3.org/1999/xlink" x="0px" y="0px"
	 viewBox="0 0 121 141" style="enable-background:new 0 0 121 141;" xml:space="preserve">
<style type="text/css">
	.st0{fill:#009696;}
	.st1{fill:#FFFFFF;}
</style>
<g>
	<path class="st0" d="M63.4,138L63.4,138c-1.5-0.6-3-0.9-4.7-0.9c-1,0-2,0.1-3.1,0.3v-0.5l-0.3-0.1c-0.2,0-3.7-1.1-8.2-1.1
		c-1.5,0-2.9,0.1-4.2,0.4l0,0c0,0-0.3,0-0.6,0c-1.7,0-5.8-0.5-5.8-4.7c0-0.2,0.3-4.7-2.2-6l-0.3-3.6c0.4-0.5,1.7-2.3,1.8-3.9
		c0.2-0.2,0.7-0.7,0.6-1.4c-0.2-1-1.4-1.9-3.7-2.7l-5-0.7l-2.2-1.5H22l-3.2-4l-1.2,2.9h-3.4l-5,1.1c-3.3-1.9-3.3-5.4-3.3-6
		c1.7-2.9,2.2-5.1,1.5-6.6c-0.4-0.8-1-1.2-1.4-1.4l0.3-3.3c1.7-0.1,3.1-1.1,3.1-1.1l0.1-0.1V93c1.5-3.4-2.1-7.8-2.2-8
		c-0.6-0.6-1.2-1.4-1.7-2.2c3.9-0.3,5.6-3.4,5.7-3.5v-0.1v-0.1c0-2.6-3.9-2.9-5.5-2.9c-0.1,0-0.2,0-0.2,0c-0.2-1.9-1.5-3.9-1.8-4.4
		c0.1-1.5,1.3-2.5,1.3-2.5l0.2-0.1l-0.7-4.9l0.7-4.9L9,55l-5.2-3.4v-6.4l-2.9-5.8c0.5-0.6,1.2-0.9,2-0.9c0.6,0,1.4,0.2,2.2,0.6
		c0.2,0.2,6.1,4.8,11.7,4.8c0.4,0,0.8,0,1.1-0.1c0,0,0.3,0,0.6,0c3.6,0,12-0.4,13-4.2c0.3-0.5,2.6-3.9,1.9-6.4
		c-0.1-0.5-0.3-0.9-0.7-1.2c0.7,0,1.7,0.1,2.8,0.1c5.2,0,8.3-0.6,9.2-1.7c0,0,8.8-7.2,16-7.2c0.5,0,0.9,0,1.4,0.1h0.2l0.1-0.2
		c0.1-0.1,5.4-7.1,12-7.4h0.3l0.1-0.3c0.1-0.3,1.6-6.7,9.4-6.7c0.6,0,1.1,0,1.7,0.1h0.2l0.1-0.2c0.1-0.1,1.4-2.4,6.2-2.4
		c0.6,0,1.2,0,1.8,0.1h0.2l0.1-0.1c0,0,2.9-2.7,5.4-2.7c1.2,0,2.1,0.6,2.7,1.9l0.1,0.2h0.2c0,0,0.2,0,0.5,0c0.5,0,1.3-0.1,2-0.8
		s1-1.9,0.9-3.4c0.3-0.2,0.9-0.5,1.4-0.5c0.2,0,0.9,0,1.1,1.5v0.4l0.4-0.1c0,0,3.1-0.7,6-0.7c3,0,4.6,0.7,4.7,2.2v0.1l0.1,0.2
		l0.7,2.3l-0.7,3.8l-2.2-0.9L116,6.9V3.7l-3.4,5.4l-3.8,2.5l-1.5,5l5.8,5.3l4.2,2.6l-0.7,3.7l-1.8,2.6l-4.4,2.8l-0.2,4l-2.4-1.2
		l0.2,0.8c0,0,0.5,1.8,0.3,3.3c-0.3,0.4-1.6,2.2-1.6,4.5l0,0l0.2,0.1c0,0,1.1,0.5,1.1,2.6l0.5,9.3l-2.7,2.2l0.6,3.9l-1.3,2.9
		l-1.1,7.2l-2.5,3v0.2c0.2,1.3,0.3,3.5-0.4,4c-0.1,0-2.5,1.5-2.5,3.6c0,1.3,0.9,2.4,2.7,3.5c0.2,0.5,1.2,3.1,1,5.4v0.3l0.3,0.1
		c0,0,1.9,0.4,2.4,1.7c0.3,0.8,0,1.7-0.9,2.8c-0.1,0.1-2.5,3.1-2.2,7.6c0.1,1.2,0,4.6-0.9,5.9c-0.7,0.4-5.8,2.9-7.4,4.7
		c-0.4-0.2-1.3-0.5-2.1-0.5c-1.2,0-2,0.6-2.4,1.7l-0.1,0.2l1.1,1.9l-1.1,3.3l0.1,0.2c0,0,0.4,0.7,0.2,1.5c-0.2,0.9-1.1,1.8-2.5,2.5
		l-3.1,1h-7.5l-0.7,2l0.1,0.1c0,0.1,0.6,1.6-1.5,3.1l0,0c0,0-1.6,0.6-1.8,1.8c-0.1,0.8,0.5,1.7,1.7,2.6l-1.6,2.3L70,141l-2.4,0.7
		L63.4,138z"/>
	<path class="st1" d="M107.6,1.5c0.2,0,0.6,0,0.7,1.1l0.1,0.8l0.8-0.2c0,0,3.1-0.7,5.9-0.7c0.4,0,0.8,0,1.1,0l-1.3,2.1l-2.6,4.2
		l-3.6,2.3l-0.2,0.2l-0.1,0.3l-1.4,4.6l-0.1,0.5l0.3,0.3l5.7,5.1l0,0h0.1l3.9,2.4l-0.7,3.4l-1.7,2.4l-4.2,2.6l-0.3,0.2v0.4l-0.2,3.2
		l-1.1-0.6l-1.5-0.8l0.5,1.6c0,0,0.4,1.6,0.3,3c-0.4,0.6-1.7,2.4-1.7,4.6V45l0.4,0.2c0,0,0.9,0.4,0.9,2.3l0.5,9.1l-2.4,1.9l-0.3,0.3
		l0.1,0.4l0.5,3.6l-1.3,2.8v0.1v0.1l-1.1,7.1l-2.3,2.8l-0.2,0.3l0.1,0.3c0.2,1.6,0.1,3.3-0.2,3.6c-0.4,0.2-2.7,1.8-2.6,3.9
		c0,1.4,0.9,2.6,2.8,3.7c0.3,0.7,1.1,3,0.9,5.1l-0.1,0.7l0.6,0.1c0.5,0.1,1.8,0.6,2.1,1.5c0.3,0.8-0.3,1.8-0.9,2.5
		c-0.1,0.1-2.6,3.3-2.3,7.8c0.1,1.6-0.1,4.5-0.8,5.6c-1,0.5-5.5,2.7-7.3,4.5c-0.5-0.2-1.3-0.5-2-0.5c-1.3,0-2.3,0.7-2.8,1.9
		l-0.1,0.3l0.2,0.3l0.9,1.6l-1,2.9l-0.1,0.3l0.2,0.3c0,0,0.3,0.5,0.1,1.3c-0.2,0.8-1,1.6-2.2,2.2l-3.1,1h-7.2h-0.5l-0.2,0.5
		l-0.5,1.6l-0.1,0.3l0.1,0.3c0.1,0.1,0.5,1.4-1.3,2.6c-0.4,0.2-1.8,0.8-2,2.1c-0.1,0.9,0.4,1.8,1.6,2.8l-1.4,2l-2.2,1.2l-2.2,0.6
		l-3.7-3.4l-0.1-0.1l-0.1-0.1c-1.5-0.6-3.1-0.9-4.8-0.9c-0.9,0-1.8,0.1-2.7,0.2v-0.3l-0.5-0.2c-0.2,0-3.8-1.1-8.3-1.1
		c-1.5,0-2.9,0.1-4.3,0.4c-0.1,0-0.3,0-0.6,0c-2,0-5.4-0.6-5.4-4.3c0-0.5,0.3-4.8-2.2-6.3l-0.3-3.3c0.5-0.6,1.6-2.3,1.8-3.8
		c0.3-0.4,0.7-1,0.6-1.7c-0.2-1.2-1.5-2.2-4-3h-0.1h-0.1l-4.9-0.7l-2-1.3l-0.2-0.1h-0.2h-3.2l-2.7-3.3l-0.8-1l-0.5,1.2l-0.9,2.1
		h-3.1h-0.1h-0.1l-4.8,1c-2.9-1.7-3-4.8-3-5.5c1.7-3,2.2-5.3,1.4-6.9c-0.3-0.7-0.9-1.2-1.4-1.4l0.3-2.8c1.7-0.2,2.9-1.1,3-1.2
		L9.8,93l0.1-0.2c1.6-3.6-2.1-8.2-2.3-8.4l0,0l0,0c-0.5-0.5-0.9-1-1.3-1.6c3.7-0.6,5.3-3.5,5.4-3.6l0.1-0.2v-0.2
		c0-2.1-2.1-3.3-5.8-3.3c-0.3-1.8-1.3-3.5-1.7-4.1c0.1-1.3,1.1-2.1,1.1-2.1L5.8,69l-0.1-0.4L5,64l0.7-4.7L9,55.6l0.5-0.7l-0.7-0.5
		l-4.7-3v-6.1v-0.2l0-0.1l-2.7-5.5C1.8,39.2,2.3,39,2.9,39s1.2,0.2,2,0.5c0.7,0.5,6.5,4.9,11.9,4.9c0.4,0,0.8,0,1.1-0.1
		c0.1,0,0.3,0,0.6,0c3.6,0,12.2-0.4,13.3-4.4c0.5-0.7,2.7-4.1,2-6.7c-0.1-0.3-0.2-0.5-0.3-0.7c0.6,0,1.3,0,2,0c7.7,0,9-1.3,9.5-1.8
		c0.7-0.6,9-7.1,15.7-7.1c0.5,0,0.9,0,1.3,0.1l0.4,0.1l0.3-0.4c0.1-0.1,5.3-6.9,11.7-7.3H75l0.1-0.5c0.1-0.3,1.6-6.4,9-6.4
		c0.5,0,1.1,0,1.7,0.1h0.5L86.6,9c0.1-0.1,1.4-2.2,5.8-2.2c0.5,0,1.1,0,1.7,0.1h0.3l0.3-0.2c0,0,2.8-2.6,5.1-2.6
		c1,0,1.8,0.5,2.4,1.7l0.2,0.3l0.3,0.1c0,0,0.3,0.1,0.6,0.1c0.9,0,1.7-0.3,2.2-0.9c0.7-0.8,1-1.9,1-3.4
		C106.8,1.7,107.2,1.5,107.6,1.5 M116.3,2.6c1.5,0.1,3,0.6,3.1,1.8v0.2l0.1,0.2l0,0l0.6,2.2l-0.6,3.3L118,9.6L116.3,7V5V2.6
		 M107.6,0.7c-0.9,0-1.8,0.7-1.8,0.7c0.3,3.6-1.6,4-2.4,4c-0.3,0-0.4,0-0.4,0c-0.8-1.5-1.9-2.1-3-2.1c-2.7,0-5.6,2.8-5.6,2.8
		C93.6,6,93,6,92.4,6c-5,0-6.5,2.6-6.5,2.6c-0.6-0.1-1.2-0.1-1.8-0.1c-8.2,0-9.8,6.9-9.8,6.9C67.6,15.8,62.1,23,62.1,23
		c-0.5-0.1-0.9-0.1-1.4-0.1c-7.3,0-16.2,7.3-16.2,7.3c-1.1,1.3-5.5,1.6-8.9,1.6c-2.3,0-4-0.1-4-0.1c4,1.8-0.4,7.9-0.4,7.9
		c-0.9,3.7-10.1,4-12.7,4c-0.4,0-0.7,0-0.7,0c-0.4,0-0.7,0.1-1.1,0.1c-5.5,0-11.5-4.8-11.5-4.8c-0.9-0.5-1.7-0.6-2.4-0.6
		c-1.2,0-1.9,0.6-2.4,1.2l3,5.9v6.5l5,3.2l-3.6,4.3l-0.7,5l0.7,4.7c0,0-1.4,1.1-1.4,2.9c0,0,1.8,2.5,1.8,4.7c0,0,0.2,0,0.6,0
		c1.5,0,5.2,0.2,5.2,2.5c0,0-1.8,3.3-6,3.3l0,0c0.6,1,1.2,2,2.1,2.8c0,0,3.6,4.3,2.2,7.6c0,0-1.4,1.1-3.2,1.1l-0.4,4
		c0,0,4,0.7,0,7.6c0,0-0.4,4.3,3.6,6.5l5-1.1h3.6l1.1-2.5l2.9,3.6h3.6l2.2,1.4l5,0.7c5.4,1.8,2.9,3.6,2.9,3.6c0,1.8-1.8,4-1.8,4
		l0.4,4c2.5,1.1,2.2,5.8,2.2,5.8c0,4.6,4.4,5.1,6.1,5.1c0.4,0,0.7,0,0.7,0c1.4-0.2,2.8-0.3,4.2-0.3c4.5,0,8.1,1.1,8.1,1.1v0.6
		c1.1-0.2,2.3-0.4,3.4-0.4c1.5,0,3,0.2,4.5,0.8l4,3.7l2.6-0.8l2.4-1.4l1.9-2.7c-4.1-2.7-0.3-4.1-0.3-4.1c2.4-1.6,1.6-3.5,1.6-3.5
		l0.5-1.6h7.3l3.2-1.1c4.1-2.2,2.4-4.6,2.4-4.6l1.1-3.2l-1.1-1.9c0.5-1.1,1.3-1.5,2.1-1.5c1.1,0,2.2,0.6,2.2,0.6
		c1.4-1.9,7.6-4.9,7.6-4.9c1.4-1.6,1.1-6.2,1.1-6.2c-0.3-4.3,2.2-7.3,2.2-7.3c3.2-4.1-1.6-5.1-1.6-5.1c0.3-2.7-1.1-5.7-1.1-5.7
		c-5.7-3.2-0.3-6.5-0.3-6.5c1.1-0.8,0.5-4.3,0.5-4.3l2.4-3l1.1-7.3l1.4-3l-0.5-3.8l2.7-2.2l-0.5-9.5c0-2.4-1.4-3-1.4-3
		c0-2.4,1.6-4.3,1.6-4.3c0.3-1.6-0.3-3.5-0.3-3.5l2.2,1.1l0.3-4.3L115,31l1.9-2.7l0.8-4.1l-4.3-2.7l-5.7-5.1l1.4-4.6l3.8-2.4
		l2.7-4.3v2.2l1.9,3l2.7,1.1l0.8-4.3l-0.7-2.5l-0.1-0.1c-0.2-2-2.6-2.5-5.1-2.5c-2.9,0-6.1,0.7-6.1,0.7
		C108.8,1.1,108.2,0.7,107.6,0.7L107.6,0.7z"/>
</g>
</svg>
