<?xml version="1.0" encoding="utf-8"?>
<!-- Generator: Adobe Illustrator 24.3.0, SVG Export Plug-In . SVG Version: 6.00 Build 0)  -->
<svg version="1.1" id="圖層_1" xmlns="http://www.w3.org/2000/svg" xmlns:xlink="http://www.w3.org/1999/xlink" x="0px" y="0px"
	 viewBox="0 0 99 59" style="enable-background:new 0 0 99 59;" xml:space="preserve">
<style type="text/css">
	.st0{fill:#009696;}
	.st1{fill:#FFFFFF;}
</style>
<g>
	<path class="st0" d="M10.4,59l-7.1-0.2c0.1-0.6-0.2-1.1-0.5-1.5c0.5-0.4,0.8-0.8,0.8-1.2c0-0.6-0.6-1-0.7-1H2.8H2.7
		c-0.4,0-0.5-0.6-0.5-0.9c0.7-0.5,1-0.9,1-1.4c-0.1-0.6-0.7-0.9-1-0.9c-1.3-1.5-0.7-3-0.5-3.4c0.2-0.1,0.4-0.3,0.4-0.6
		c0.4-1.2-0.9-3.8-1.1-4c-1-2.5-0.3-5.3-0.3-5.3L1.2,37c3.2-10.6,6.9-11.1,7.7-11.1c0.1,0,0.2,0,0.2,0L9.5,26v-0.4L9.9,19
		c0.5-1.4,2-2.2,2-2.2l0.5-0.3l-1.9-1.3c1.2-4.3,4.1-6.2,4.1-6.2c2.7-2.8,6.9-3.3,9.1-3.3c0.8,0,1.4,0.1,1.6,0.1
		c1.3,0.6,2.8,0.9,4.5,0.9c2.6,0,4.6-0.7,5.1-0.9c0.6,0,1.3,0,1.9,0c2.8,0,5.9-0.2,6-0.2h0.1L43,5.5c0.9-0.5,1.3-1.1,1.2-1.6
		c-0.1-0.6-0.8-1.2-2.2-1.6c1.2-0.8,3-1.6,5.6-1.6c1.7,0,3.5,0.3,5.5,1l11.2,2.2l8.8,1.5h0.1c0,0,1.4-0.5,3.1-0.5c1.6,0,2.9,0.4,4,1
		c0.1,0.4,0.4,1.5,1,2.9l0.2,0.5l0.2,0.4l0.2,0.5c0.1,0.1,0.2,0.3,0.2,0.4c0.6,1.1,1.4,2.1,2.1,2.9c0,0,3.3,4.1,2.1,7.1
		c-0.3,0.2-1.5,1-2.9,1h-0.3l-0.4,4.6l0.3,0.1c0,0,0.8,0.2,1.2,1c0.4,0.9,0.5,2.6-1.5,6v0.1v0.1c0,0-0.3,4.6,3.8,6.8l0.1,0.1
		l5.2-1.1h3.8l0.9-2.2l2.4,3l-2.3,7.4l-2.9-1h-7.2l-2.8-0.9c0.2-0.5,0.5-1.4,0.1-2c-0.2-0.4-0.7-0.6-1.4-0.6h-0.1l-5,2.9l-4.5-1
		l-4.3-1.8h-0.1c-0.2,0-5.8-0.1-5.8-4.3v-0.1v-0.1c0-0.1-0.7-1.6-3.6-1.6c-1.8,0-4,0.6-6.6,1.7c-0.2,0-0.5-0.1-1-0.1
		c-2.2,0-7,0.7-14.9,5.1L32,44.2l-1,5.3l-3.2-0.7l-1.5,3.8l-2.7,3.1h-3.2l-3,3.3H10.4z"/>
	<path class="st1" d="M47.6,0.3V1c1.6,0,3.4,0.3,5.3,1H53h0.1l11.2,2.2l7.5,1.2L73,5.6h0.2l0.2-0.1c0,0,1.3-0.4,3-0.4
		c1.4,0,2.7,0.3,3.7,0.9c0.1,0.5,0.4,1.5,1,2.8L81,9l0,0c0,0.1,0.1,0.2,0.2,0.3l0,0v0.1c0,0.1,0.1,0.2,0.1,0.3l0.1,0.1
		c0.1,0.1,0.1,0.2,0.2,0.4v0.1c0.1,0.1,0.2,0.3,0.2,0.4c0.7,1.2,1.4,2.2,2.2,2.9c0.3,0.3,3.1,3.9,2.1,6.6c-0.4,0.2-1.4,0.8-2.6,0.8
		h-0.7l-0.1,0.7l-0.4,4v0.7l0.6,0.1c0,0,0.7,0.2,1,0.8c0.3,0.6,0.5,2.2-1.5,5.6L82.3,33v0.2c0,0.2-0.4,4.8,4,7.2l0.2,0.1l0.3-0.1
		l5-1.1h3.5h0.5l0.2-0.5l0.6-1.4l1.8,2.3l-2.2,6.8L93.8,46h-0.1h-0.1h-3.2h-3.8l-2.3-0.8c0.2-0.6,0.3-1.4,0-2
		c-0.2-0.4-0.7-0.8-1.7-0.8h-0.2L82,42.5l-4.8,2.7l-4.3-1l-4.3-1.8l-0.1-0.1h-0.1c-0.2,0-5.4-0.1-5.4-3.9v-0.2l-0.1-0.1
		C62.8,38,62,36.4,59,36.4c-1.8,0-4,0.6-6.6,1.7c-0.2,0-0.5-0.1-0.9-0.1c-2.2,0-7.1,0.7-15.1,5.2l-4.2,0.7L31.7,44l-0.1,0.5
		l-0.9,4.7l-2.5-0.6l-0.6-0.1L27.3,49l-1.4,3.5l-2.6,2.9h-2.9h-0.3l-0.2,0.3l-2.7,3h-6.8l-6.7-0.2c0-0.4-0.2-0.7-0.4-1
		C3.7,57,4,56.6,4,56.1c0-0.6-0.5-1.1-0.9-1.3L3,54.7H2.7c0,0-0.1-0.2-0.1-0.3c0.5-0.3,1-0.9,1-1.6c-0.1-0.7-0.8-1.1-1.1-1.2
		c-1-1.2-0.6-2.4-0.4-2.8c0.2-0.2,0.4-0.4,0.5-0.7c0.4-1.3-0.7-3.6-1.1-4.3c-0.9-2.3-0.4-4.8-0.3-5.1l0.5-1.6
		C4.8,26.8,8.3,26.3,9,26.3c0.1,0,0.1,0,0.1,0l0,0l0.9,0.2v-0.9l0.4-6.4c0.5-1.3,1.8-2,1.8-2l1.1-0.6l-1-0.7L11,15.1
		c1.2-4,3.8-5.7,3.9-5.7H15l0.1-0.1c2.6-2.7,6.6-3.1,8.8-3.1c0.7,0,1.2,0,1.5,0.1c1.3,0.6,2.9,0.9,4.6,0.9c2.5,0,4.6-0.7,5.1-0.9
		c0.5,0,1.2,0,1.9,0c2.8,0,6-0.2,6-0.2h0.2L43.1,6c0.1,0,0.1-0.1,0.2-0.1c1-0.6,1.5-1.3,1.4-2S44.1,2.7,43,2.2C44,1.6,45.6,1,47.6,1
		V0.3 M47.6,0.3c-3.2,0-5.3,1.2-6.4,2.1c1.4,0.4,4.1,1.3,1.6,2.8c-0.1,0-0.1,0.1-0.2,0.1c0,0-3.1,0.2-5.9,0.2c-0.7,0-1.4,0-2-0.1
		c0,0-2.2,0.9-5,0.9c-1.4,0-2.9-0.2-4.4-0.9c0,0-0.6-0.1-1.7-0.1c-2.3,0-6.6,0.4-9.3,3.3c0,0-3.1,2-4.3,6.7l1.6,1.1
		c0,0-1.6,0.9-2.2,2.5L9,25.4c0,0-0.1,0-0.3,0c-1,0-4.8,0.8-8,11.4l-0.5,1.6c0,0-0.7,2.9,0.4,5.6c0,0,2,3.6,0.7,4.1c0,0-1.3,2,0.5,4
		c0,0,2,0.5-0.2,1.8c0,0,0,1.4,0.9,1.4c0,0,1.4,0.7-0.5,1.8c0,0,1.2,0.8,0.6,1.9l7.6,0.3h7.2l2.9-3.2h3.2l2.9-3.2l1.4-3.6L31,50
		l1.1-5.4l4.3-0.7c8-4.5,12.8-5.1,14.8-5.1c0.7,0,1,0.1,1,0.1c3-1.3,5-1.7,6.5-1.7c2.6,0,3.2,1.3,3.2,1.3c0,4.7,6.1,4.7,6.1,4.7
		l4.3,1.8l4.7,1.1l5-2.9c2.2,0,0.7,2.5,0.7,2.5l3.2,1.1h4h3.2l3.2,1.1l2.5-7.9l-2.9-3.6l-1.1,2.5h-3.6l-5,1.1
		c-4-2.2-3.6-6.5-3.6-6.5c4-6.8,0-7.6,0-7.6l0.4-4c1.8,0,3.2-1.1,3.2-1.1c1.4-3.2-2.2-7.6-2.2-7.6c-0.8-0.8-1.5-1.8-2.1-2.8
		c-0.1-0.1-0.2-0.3-0.2-0.4c0,0,0-0.1-0.1-0.1c-0.1-0.1-0.1-0.2-0.2-0.3c0,0,0-0.1-0.1-0.1c-0.1-0.1-0.1-0.2-0.1-0.3V9.1
		c-0.1-0.1-0.1-0.2-0.1-0.3c0,0,0,0,0-0.1c-0.6-1.4-0.9-2.5-1-2.9l0,0c0-0.1,0-0.1,0-0.1c-1.4-0.9-3-1.2-4.3-1.2
		C74,4.5,72.6,5,72.6,5l-1.2-0.2l-7.5-1.2L53.2,1.3C51.1,0.6,49.2,0.3,47.6,0.3L47.6,0.3z"/>
</g>
</svg>
