<?xml version="1.0" encoding="utf-8"?>
<!-- Generator: Adobe Illustrator 24.3.0, SVG Export Plug-In . SVG Version: 6.00 Build 0)  -->
<svg version="1.1" id="圖層_1" xmlns="http://www.w3.org/2000/svg" xmlns:xlink="http://www.w3.org/1999/xlink" x="0px" y="0px"
	 viewBox="0 0 100 91" style="enable-background:new 0 0 100 91;" xml:space="preserve">
<style type="text/css">
	.st0{fill:#F2AD11;}
	.st1{fill:#FFFFFF;}
</style>
<g>
	<path class="st0" d="M33.8,88.3l-5.7-2.7l-0.5,0.1v-0.5L22.5,86l-1.2-0.1v-0.2c0-1.7-0.8-4.4-0.9-4.8c-1.2-6.1-7.2-10.3-7.4-10.5
		c-1.7-1.4-1.8-4.7-1.7-5.8l0.1-1.1h-1.1c-2.9,0-4.7-1.1-4.7-1.1l-0.1-0.1H5.4c-1.8-0.6-1.9-1.5-1.9-1.8l0.1-1.9l-1.4,0.8l-0.9-0.2
		V59l-0.7-0.2c1.2-5.8,3-7.1,3.5-7.4c0.4,0,0.7,0,1,0c0.7,0,1.5-0.1,2.3-0.2c0.7-0.1,1.3-0.6,1.4-1.3C9,49.2,8.7,48.5,8.2,48
		c-0.8-0.7-1-2-1.1-2.8c0-0.4-0.2-0.7-0.4-1l-0.5-0.6L5.5,44c-0.4,0.2-0.6,0.2-0.7,0.2l-0.3-0.3L4,43.8c-0.1-0.1-0.2-0.8,0-1.7
		c0.3-0.7,0.8-1.2,1.3-1.4s0.8-0.5,1-0.9c0.2-0.5,0.2-1,0.1-1.5c-0.2-0.5-0.2-1.1-0.2-1.3l0.5-0.7c0.4-0.4,1.2-1.5,1.2-7l0.3-0.1
		c0.8-0.2,1.4-1.1,1.2-2c-0.6-3.3,1.4-4.3,1.8-4.5c1.2-0.3,2-1.3,2.2-2.9c0.1-0.7-0.3-1.3-0.8-1.7L12.4,18h-0.2
		c-0.2,0-0.3-0.1-0.5-0.1h-0.1h-0.1c-0.4-0.1-0.6-0.1-0.8-0.2c1.1-0.2,2-1.1,2.6-1.8l0.7,0.3l0.1-0.2l2.3,1.1l4.3,2.2h0.1
		c0,0,0.8,0.3,2,0.5c0.8,0.1,1.5,0.2,2.2,0.2c0.3,0,0.6,0,0.9,0c0.5,0,0.9-0.3,1.2-0.7c1-1.2,3.3-4.2,3.8-6.3l3.2-0.3
		c0.5,0,0.9-0.3,1.2-0.6l5.8-6.5l2.4-1c0.8-0.3,1.2-1.2,1.1-2c1.6-0.5,6.2-1.9,8.6-1.9c0.2,0,0.4,0,0.5,0h0.1L65,0.4
		c0.4,0.1,2.6,0.6,4.4,1.3c2,0.7,2.5,1.2,2.6,1.3v0.1l0.1,0.2c0.1,0.2,2.6,5.5,4.3,7.5l0.3,0.4h0.5c0.3,0,0.7,0,1,0.2l0.1,0.1h0.2
		c0.3,0.1,1.1,0.3,0.9,2.1c-1.1,0.4-2.3,1.6-2.3,4.4v0.1v0.1l0,0c0,0,0.2,0.8-0.4,2.6l-0.1,0.4l2.2,4.7c-0.4,1-1,3.5,0.7,5.6
		l0.2,0.2l3,1.3c0.1,0.1,0.3,0.1,0.5,0.1s0.5,0.1,0.9,0.1c2.7,0,4.5-1.3,4.7-3.4c0.4-0.3,0.8-0.4,1.1-0.4c0.2,0,0.4,0.1,0.5,0.2
		l0.2,0.1h0.2c0.2,0,0.5,0.2,0.8,0.7v0.1l0.1,0.1c0.1,0.1,0.8,0.9,2,1.5h0.1h0.1c0.4,0.1,0.8,0.2,1.2,0.2c0.9,0,1.8-0.3,2.6-0.9
		l0.1,0.4L95.6,35l1.8,1.6l-6.9,5.6l-0.1,0.3c-1.6,5.1-7.4,14.2-8.3,15.7c-3,1.6-4.8,3.2-5.3,5c-0.1,0.3-0.1,0.5-0.1,0.8
		c-4.3,1.1-9.9,7.7-11,9.1L63,74.4l0.1,0.7c0.5,3.3-2.6,7.5-3.5,8.6l-2.7,0.4L53,86.5l-2.7,2.7l-5.2,0.4l-5.3-1.9l-3.1,2.1
		L33.8,88.3z"/>
	<path class="st1" d="M64.9,1.4C65.5,1.5,67.5,2,69,2.6l0,0l0,0c1.1,0.4,1.7,0.7,1.9,0.8L71,3.7c0.3,0.6,2.7,5.7,4.4,7.7l0.6,0.7
		h0.9c0.3,0,0.4,0.1,0.5,0.1l0.3,0.2l0.3,0.1c0.1,0,0.1,0,0.1,0l0,0c0,0.1,0.1,0.2,0.1,0.5c-1.2,0.7-2.4,2.2-2.4,5.1l-0.1,0.2
		l0.1,0.3c0,0.2,0,0.9-0.4,2.1l-0.2,0.7l0.3,0.7l1.8,3.9c-0.5,1.6-0.7,4.1,1,6.2l0.3,0.4l0.5,0.2l2.8,1.2l0,0l0,0
		c0.2,0.1,0.4,0.1,0.7,0.2c0.2,0,0.6,0.1,1.1,0.1c3,0,5.1-1.4,5.6-3.7c0.1,0,0.2-0.1,0.2-0.1l0.3,0.2l0.4,0.1c0,0,0.1,0.1,0.1,0.2
		l0.1,0.2l0.1,0.1c0.1,0.1,0.9,1.1,2.3,1.8l0.2,0.1l0.2,0.1c0.5,0.1,1,0.2,1.5,0.2c0.1,0,0.3,0,0.4,0L94.8,34l-1,1.4l1.3,1.2
		l0.3,0.2l-5.8,4.6l-0.5,0.4l-0.2,0.6c-1.5,4.8-6.8,13.3-8.1,15.3c-3.1,1.7-5,3.5-5.5,5.4c0,0.1-0.1,0.2-0.1,0.3
		c-4.3,1.5-9.2,7.1-10.8,9L63,73.2l-1.3,0.7l0.2,1.5c0.4,2.4-1.8,5.9-3.1,7.5l-2.1,0.3l-0.4,0.1L56,83.4l-3.6,2.2l-0.2,0.1L52,85.9
		l-2.4,2.4L45,88.6l-4.6-1.7l-1-0.3l-0.8,0.6l-2.2,1.5l-2.1-1.2h-0.1h-0.1L28.7,85h-0.1v-0.8l-2.4,0.4l-0.7,0.1l-3,0.3h-0.3
		c-0.2-1.7-0.8-3.8-0.9-4.3c-1.2-6.1-6.9-10.4-7.7-11c-1.4-1.2-1.5-4-1.4-4.9l0.2-2.2h-2.2c-2.6,0-4.2-0.9-4.2-0.9l0,0l-0.2-0.1
		l-0.2-0.1c-1-0.4-1.2-0.7-1.2-0.8l0.2-3.8L2,58.4l-0.4-0.1c1-3.9,2.1-5.3,2.6-5.7c0.3,0,0.5,0,0.8,0c0.8,0,1.6-0.1,2.4-0.2
		c1.1-0.2,1.9-1,2.2-2.1s-0.1-2.2-1-2.9c-0.4-0.3-0.7-1.1-0.7-2.1c0-0.4-0.2-1-0.7-1.6l-0.9-1.1L5,43.1l0,0l0-0.2H4.9
		c0-0.2,0-0.3,0-0.5c0.2-0.3,0.4-0.6,0.7-0.7c0.7-0.3,1.3-0.8,1.6-1.5s0.4-1.5,0.1-2.2c-0.1-0.2-0.1-0.4-0.1-0.6L7.4,37
		c0.6-0.6,1.3-1.9,1.4-6.9c1.2-0.5,1.8-1.8,1.6-3c-0.4-2.4,0.7-3.2,1.1-3.3c1.6-0.4,2.7-1.8,2.8-3.8c0.1-1-0.4-2-1.2-2.6
		c0.1-0.1,0.3-0.2,0.4-0.4l0.8,0.4l0.1-0.2l1.5,0.7l4.3,2.2l0.1,0.1h0.1c0,0,0.9,0.3,2.1,0.5l0,0l0,0c0.8,0.1,1.6,0.2,2.3,0.2
		c0.3,0,0.6,0,0.9,0c0.8-0.1,1.4-0.4,1.9-1c1.1-1.4,3-3.9,3.8-6l2.5-0.2c0.7-0.1,1.4-0.4,1.9-0.9l5.6-6.3l2.2-1
		c0.9-0.4,1.5-1.2,1.7-2.1c3.4-1,6.2-1.6,7.6-1.6c0.2,0,0.3,0,0.4,0h0.2h0.2L64.9,1.4 M65-0.6L65-0.6L53.9-0.2c-0.2,0-0.4,0-0.6,0
		c-2.6,0-7.3,1.4-9.1,2c-0.4,0.1-0.7,0.6-0.6,1c0.1,0.4-0.1,0.8-0.5,1l-2.4,1.1c-0.1,0-0.2,0.1-0.3,0.2l-5.8,6.5
		c-0.1,0.2-0.3,0.3-0.6,0.3L30.8,12c-0.4,0-0.7,0.3-0.7,0.7c-0.5,2-2.9,5.1-3.7,6c-0.1,0.2-0.3,0.3-0.6,0.3c-0.2,0-0.5,0-0.8,0
		c-0.7,0-1.4-0.1-2-0.2c-1.1-0.2-1.9-0.5-1.9-0.5l-4.3-2.2l-3.1-1.4c0,0-0.1,0.1-0.1,0.2h-0.1c-0.1-0.1-0.2-0.1-0.4-0.1
		s-0.5,0.1-0.7,0.3c-0.5,0.6-1.3,1.4-2.3,1.6c-0.5,0.1-0.8,0.6-0.7,1s0.6,0.9,1.8,1.1c0.2,0.1,0.4,0.1,0.7,0.2
		c0.2,0.2,0.4,0.4,0.4,0.8c-0.1,0.8-0.4,1.8-1.5,2c0,0-3.3,1.1-2.5,5.6c0.1,0.4-0.2,0.8-0.6,0.9l-0.5,0.1c-0.4,0.1-0.6,0.4-0.6,0.8
		c0,1.6,0,5.7-0.9,6.4l-0.6,0.9C5,36.6,5,36.8,5,37c0,0.4,0,1,0.3,1.7c0.2,0.4,0,0.9-0.5,1.1c-0.6,0.2-1.4,0.7-1.9,1.9
		C3,41.7,3,41.8,3,41.9c-0.1,0.5-0.4,2.8,1,2.9c0.2,0.2,0.5,0.4,0.8,0.4s0.7-0.1,1.1-0.3C6,45,6.1,45.2,6.1,45.3
		c0.1,1.1,0.4,2.6,1.5,3.5c0.5,0.4,0.3,1.3-0.4,1.5c-0.6,0.1-1.3,0.2-2.1,0.2c-0.3,0-0.7,0-1,0H4c-0.1,0-0.2,0-0.3,0.1
		C3,50.9,1,52.4-0.4,58.9c-0.1,0.4,0.2,0.8,0.6,1c0,0.1,0,0.2-0.1,0.3l2.3,0.4l0,0c0,0.5,0.1,2,2.6,2.8c0,0,2,1.3,5.2,1.3
		c0,0-0.4,4.5,2.2,6.7c0,0,5.9,4.1,7,9.9c0,0,0.9,3.1,0.9,4.7c0,0,0.1,0.4,0.2,1l2,0.3l3.3-0.5l0.7-0.1c0,0.2,0,0.4,0,0.5l1.4-0.2
		l5.4,2.5l3.2,1.8l3.2-2.2l5,1.8l5.8-0.4l2.9-2.9l3.6-2.2l2.9-0.4c0,0,4.7-5.4,4-9.7l2.2-1.1c0,0,7.2-9,11.5-9c0,0-1.4-2.5,5-5.8
		c0,0,6.8-10.4,8.6-16.2l7.6-6.1l-2-1.8l2.5-3.6l-0.3-2c-0.2,0.2-0.4,0.5-0.5,0.7l-0.2-0.9c-1.1,1.5-2.2,2-3.2,2
		c-0.3,0-0.6-0.1-0.9-0.1c-1-0.5-1.6-1.3-1.6-1.3c-0.4-0.7-0.9-1-1.5-1.1c-0.4-0.3-0.8-0.4-1.2-0.4c-0.7,0-1.4,0.4-1.8,0.6
		c-0.2,0.1-0.3,0.4-0.4,0.7c-0.2,2.2-2.4,2.5-3.7,2.5c-0.4,0-0.7,0-0.8,0c-0.1,0-0.1,0-0.2,0L80.2,31c-1.8-2.2-0.4-5-0.4-5l-2.2-4.7
		c0.7-2.2,0.4-3.2,0.4-3.2c0-3.6,2.2-3.6,2.2-3.6c0.6-2.8-0.5-3.6-1.5-3.9c-0.5-0.3-1.1-0.4-1.6-0.4l0,0C75.6,8.3,73,2.9,73,2.9
		c0-0.8-1.6-1.6-3.2-2.2C68,0,65.7-0.5,65.2-0.6C65.1-0.6,65.1-0.6,65-0.6L65-0.6z"/>
</g>
</svg>
