<?xml version="1.0" encoding="utf-8"?>
<!-- Generator: Adobe Illustrator 24.3.0, SVG Export Plug-In . SVG Version: 6.00 Build 0)  -->
<svg version="1.1" id="圖層_1" xmlns="http://www.w3.org/2000/svg" xmlns:xlink="http://www.w3.org/1999/xlink" x="0px" y="0px"
	 viewBox="0 0 104 121" style="enable-background:new 0 0 104 121;" xml:space="preserve">
<style type="text/css">
	.st0{fill:#009696;}
	.st1{fill:#FFFFFF;}
</style>
<g>
	<path class="st0" d="M45.2,120.1c-3,0-9.7-5-9.7-5l-0.1-0.1h-0.1c-5.1,0-8.3-2.3-8.3-2.3l-0.2-0.1l-0.2,0.1
		c-0.6,0.3-1.4,0.4-2.1,0.4c-1.3,0-2.5-0.4-3-0.6c-0.2-2.2-2.3-3.3-3.5-3.6l0,0c-1.9,0-4.9,1.8-5.5,2.1c-3.4-0.1-6-3.3-6-3.3
		l-0.1-0.1H6.3c-3,0-3.7-1.7-3.9-2c0.4-2.1-1.2-5.9-1.6-6.7l1.5-4.1L3.9,93l1.6-2.1L7.1,88l3.9-2.6l2.3-1.8l-0.8-3.9l0.8-3.9
		l1.1-2.4v-1.6h0.1l7.2-0.3l0.1-0.1c0.1-0.2,3.7-4.8,2.2-8.5c-0.3-0.4-0.8-1.4-0.6-1.9c0-0.1,0.1-0.3,0.7-0.4h0.1l0.1-0.1
		c0.1-0.1,0.6-0.6,0.7-1.4l0.2-0.2c2.1-0.1,4.8-2.5,5.7-3.3c0.6,0.5,1.2,0.8,1.8,0.8c2,0,2.8-3.3,3-4.4c2.4-0.3,7.6-3.1,7.8-3.2
		l0.2-0.1l-0.5-10.1l4.4-1.8l1.8-2.6l9-1.9l0.1-0.1c2.6-3.1,5.6-5.7,6.2-6.3h4.2v-0.3c0.2-1.8,5.2-6.6,7.2-8.5
		c3.8-0.4,6-1.2,6.6-2.4c0.2-0.5,0.2-0.9,0-1.2c0.5-1.7-1-4.3-1.8-5.6c0.1,0,0.3,0,0.4,0C83,7.9,85.1,7,85.2,7h0.1l0,0
		c4.9-4.1,11.4-4.4,11.5-4.4h0.1l3.1-1l2.3,1.3l-8.1,4v0.2c0,0.6-0.7,1.6-1,1.9c-2.3,1.5-5.5,5.7-5.7,5.9L87.4,15v0.2
		c0.1,1.5-0.1,2.6-0.8,3.4c-1,1.1-2.6,1.2-3,1.2c-0.1,0-0.2,0-0.2,0H83v0.4c0,1.4-2.3,6-3.2,7.6L79,29.9l-0.4,6.8
		c-1.6,4.7,1.6,11.6,2.3,12.8l-0.7,1.3l1.3,2.3l0.3,2.4L82,59v2.2l1.5,3.1c1.1,2.9,3.8,4.6,5,5.2L87,70.7c-0.8,1-1,1.6-0.7,2.1
		c0.2,0.4,0.7,0.6,1.5,0.6c0.3,0,0.6,0,0.9-0.1c-0.9,1.5-0.7,4.1-0.7,4.2v0.1v0.1c0.9,2,1.1,3.7,0.4,4.9c-1.1,1.9-3.8,2.2-3.8,2.2
		c-1.1,0.3-1.6,0.8-1.8,1.4c-0.2,1,0.8,2,0.9,2l0.1,0.1h0.1c1.9,0.4,2.8,2.2,3.1,3.1c-3,0-5.8,3.9-6.2,4.4c-5.4,4.3-5.1,9.6-5.1,9.9
		c0.4,4.2-0.8,7.5-1.5,8.8l-4.9,2.6c-0.9,0.2-1.8,0.2-2.6,0.2c-4,0-6.3-1.8-6.4-1.8c-6.7-4.6-10.7-4.6-10.9-4.6H49v0.4
		c0.1,1.7-0.3,3-1.2,3.9c-1.2,1.3-3,1.3-3,1.3h-0.7l0.4,0.6c1.3,2.1,1,2.8,0.9,2.9C45.4,120.1,45.3,120.1,45.2,120.1z"/>
	<path class="st1" d="M99.9,1.8l1.5,0.8l-7.3,3.6l-0.4,0.2v0.5c0,0.4-0.5,1.1-0.8,1.6c-2.4,1.7-5.6,5.8-5.8,5.9L87,14.7V15
		c0.1,1.4-0.1,2.4-0.7,3.1c-0.9,1-2.3,1.1-2.8,1.1c-0.1,0-0.1,0-0.1,0l-0.8-0.1v0.8c0,1.2-1.9,5.2-3.1,7.5v0.1v0.1l-0.7,2.3V30v0.1
		l-0.3,6.6c-1.6,4.6,1.4,11.3,2.2,12.9L80,50.4l-0.2,0.4l0.2,0.4l1.2,2l0.3,2.3l0.2,3.5v2.1v0.2l0.1,0.2l1.4,3
		c1.1,2.6,3.3,4.4,4.7,5.2l-1.1,0.9l-0.1,0.1l-0.1,0.1c-0.5,0.7-1.1,1.6-0.7,2.5c0.3,0.6,0.9,0.8,1.8,0.8c0.1,0,0.2,0,0.3,0
		c-0.6,1.6-0.4,3.5-0.4,3.8V78l0.1,0.1c0.9,1.9,1,3.5,0.4,4.6c-1,1.7-3.5,2-3.5,2h-0.1h-0.1c-1.1,0.4-1.8,0.9-2,1.7
		c-0.3,1.2,0.8,2.3,1,2.4l0.2,0.1h0.2c1.5,0.3,2.3,1.5,2.6,2.4c-2.9,0.4-5.4,3.8-5.9,4.5c-5.5,4.4-5.2,9.9-5.2,10.2
		c0.4,4-0.8,7.1-1.4,8.5l-4.8,2.5c-0.8,0.1-1.7,0.2-2.5,0.2c-3.9,0-6.1-1.7-6.2-1.7c-6.8-4.6-10.9-4.7-11.1-4.7h-0.8v0.8
		c0.1,1.6-0.3,2.8-1.1,3.6c-1.1,1.2-2.7,1.2-2.7,1.2h-1.4l0.7,1.2c0.9,1.4,1,2.1,1,2.3c-2.4,0-7.7-3.6-9.5-4.9l-0.2-0.1h-0.2
		c-5,0-8-2.2-8.1-2.2l-0.3-0.3l-0.4,0.2c-0.6,0.2-1.3,0.4-2,0.4c-1.1,0-2.1-0.3-2.6-0.5c-0.4-2.8-3.6-3.6-3.7-3.7h-0.1H18
		c-1.8,0-4.7,1.6-5.5,2.1c-3.2-0.1-5.6-3.1-5.6-3.2l-0.2-0.3H6.3c-2.6,0-3.3-1.3-3.5-1.7c0.4-2.1-1.1-5.6-1.6-6.6l1.4-3.8l1.5-1.8
		l1.6-2.1l0,0l0,0l1.5-2.8l3.9-2.6l2.1-1.6l0.4-0.3l-0.1-0.5L12.7,80l0.8-3.8l1-2.3l0.1-0.1v-0.2v-1.1v-0.1l6.7-0.3h0.3l0.2-0.3
		c0.2-0.2,3.8-5,2.2-8.9v-0.1l-0.1-0.1c-0.3-0.5-0.6-1.2-0.5-1.5c0-0.1,0.2-0.1,0.4-0.2H24l0.1-0.1l0.3-0.2v-0.2
		c0.2-0.3,0.4-0.7,0.5-1.2c2.1-0.2,4.5-2.2,5.5-3.2c0.6,0.5,1.2,0.7,1.8,0.7c2.2,0,3.1-3.1,3.4-4.5c2.5-0.4,7.1-2.9,7.7-3.2l0.4-0.2
		v-0.5l-0.5-9.6l4-1.7l0.2-0.1l0.1-0.2l1.7-2.4l8.8-1.8l0.3-0.1l0.2-0.2c2.4-2.9,5.3-5.4,6.1-6.1h3.7H69l0.1-0.7
		c0.2-1.4,4.1-5.6,7-8.1c3.9-0.4,6.1-1.3,6.8-2.6c0.3-0.5,0.2-1,0.1-1.3c0.4-1.6-0.7-3.8-1.6-5.2c1.7-0.1,3.6-0.9,3.7-1h0.1l0.1-0.1
		c4.8-4,11.2-4.3,11.3-4.3h0.1h0.1L99.9,1.8 M100,1l-3.2,1c0,0-6.7,0.3-11.7,4.5c0,0-2.1,0.9-3.7,0.9c-0.5,0-1-0.1-1.4-0.4
		c0,0,3.2,4.3,2.4,6.4c0,0,1.6,2.4-6.4,3.2c0,0-7.2,6.4-7.5,8.8h-4c0,0-3.5,2.9-6.4,6.4L49,33.7l-1.9,2.7l-4.5,1.9l0.5,10.1
		c0,0-5.9,3.2-8,3.2c0,0-0.7,4.4-2.7,4.4c-0.5,0-1.1-0.3-1.8-1c0,0-3.5,3.5-5.9,3.5l-0.4,0.4l0,0c-0.1,0.7-0.5,1.2-0.6,1.3l0,0l0,0
		c-2.1,0.4-0.4,2.8-0.4,2.8c1.4,3.5-2.1,8.2-2.1,8.2l-7.1,0.4L12.6,72l-0.4,0.6l1.5-0.2v1.1l-1.1,2.4l-0.8,4l0.8,3.7l-2.1,1.6
		l-4,2.7l-1.6,2.9l-1.6,2.1L2,94.7L0.4,99c0,0,2.1,4.5,1.6,6.7c0,0,0.5,2.4,4.3,2.4c0,0,2.7,3.5,6.4,3.5c0,0,3.5-2.1,5.3-2.1
		c0,0,3.2,0.8,3.2,3.5c0,0,1.5,0.7,3.3,0.7c0.7,0,1.5-0.1,2.3-0.4c0,0,3.2,2.4,8.5,2.4c0,0,6.8,5.1,10,5.1c0.2,0,0.3,0,0.4,0
		c0,0,1.1-0.5-0.8-3.5c0,0,4.8,0,4.5-5.6c0,0,4,0,10.6,4.5c0,0,2.4,1.8,6.6,1.8c0.8,0,1.7-0.1,2.7-0.3l5.1-2.6
		c0.6-1.2,2-4.7,1.6-9.1c0,0-0.4-5.3,5-9.6c0,0,2.9-4.3,5.9-4.3c0.2,0,0.3,0,0.5,0c0,0-0.7-3.4-3.5-3.9c0,0-2.1-2,0.7-2.8
		c0,0,6.9-0.7,3.7-7.6c0,0-0.4-3.9,1.4-4.8c0,0-1.1,0.3-2,0.3c-1,0-1.8-0.4-0.5-2.1l2-1.6c0,0-3.9-1.8-5.3-5.3l-1.4-3v-2.1l-0.2-3.5
		l-0.4-2.5l-1.2-2.1l0.7-1.2c0,0-4.1-7.8-2.3-12.8l0.4-6.7l0.7-2.3c0,0,3.2-6,3.2-7.8c0,0,0.1,0,0.2,0c0.9,0,4.7-0.3,4.2-5
		c0,0,3.4-4.3,5.7-5.9c0,0,1.1-1.2,1.1-2.1l8.5-4.3L100,1L100,1z"/>
</g>
</svg>
