<?xml version="1.0" encoding="utf-8"?>
<!-- Generator: Adobe Illustrator 24.3.0, SVG Export Plug-In . SVG Version: 6.00 Build 0)  -->
<svg version="1.1" id="圖層_1" xmlns="http://www.w3.org/2000/svg" xmlns:xlink="http://www.w3.org/1999/xlink" x="0px" y="0px"
	 viewBox="0 0 31 39" style="enable-background:new 0 0 31 39;" xml:space="preserve">
<style type="text/css">
	.st0{fill:#009696;}
	.st1{fill:#FFFFFF;}
</style>
<g>
	<path class="st0" d="M12.4,36.3l-1.8-4.2L7.4,31l-2.5-3.8l0.3-5.1l0.4-3.9l-0.3-0.3C1.8,15,1,11.3,0.8,10.4l1.7-4.1L5,5.4l5.1-2.2
		l3.3-2.3l1.7,0.3l2.1,0.9l0.9,3.5l0.4,5.7l2.3,4.2l5,2.5l0.8,1.1L27,23l2.5,3.4l-3.6,2.1L21.6,32l1.1,3.6l-1,1.2l-3.8,0.6
		L12.4,36.3z"/>
	<path class="st1" d="M13.6,1.7L15,1.9l1.6,0.7l0.8,3l0.3,5.5v0.3l0.2,0.3l2.1,3.9l0.2,0.4l0.4,0.2l4.6,2.3l0.6,0.8l0.3,3.5v0.4
		l0.2,0.3l1.9,2.5l-2.8,1.6l-0.1,0.1l0.1,0.3l-3.9,3.2l-0.8,0.6l0.3,1l0.8,2.8l-0.6,0.7l-3.4,0.6l-5-1.2l-1.5-3.5L11,31.6l-0.6-0.2
		l-2.7-0.9l-2.3-3.4l0.3-4.7l0.4-3.5l0.1-0.8l-0.6-0.5c-3.1-2.5-4-5.8-4.2-6.8L3.1,7l2.2-0.8l0,0l0,0l5-2.1L10.4,4l0.1-0.1L13.6,1.7
		 M13.3,0.1L9.7,2.6l-5,2.1L1.9,5.8L0,10.4c0,0,0.5,4.6,4.8,8.1L4.4,22L4,27.3l2.8,4.2l3.2,1.1l1.8,4.2l6,1.4l4.2-0.7l1.4-1.8
		l-1.1-3.5l3.9-3.2l4.2-2.5l-2.8-3.9l-0.4-3.9l-1.1-1.4l-5-2.5L19,10.9l-0.4-5.7l-1.1-3.9L15,0.2L13.3,0.1L13.3,0.1z"/>
</g>
</svg>
